M48
INCH,TZ
T1C0.016
T2C0.030
T3C0.031
T4C0.032
T5C0.039
T6C0.040
T7C0.126
%
G90
G05
T1
X29500Y-46500
X29500Y-47000
X29500Y-47500
X29500Y-48000
X30000Y-46500
X30000Y-47000
X30000Y-47500
X30000Y-48000
X30500Y-46500
X30500Y-47000
X30500Y-47500
X30500Y-48000
X31000Y-46500
X31000Y-47000
X31000Y-47500
X31000Y-48000
X31500Y-46500
X31500Y-47000
X31500Y-47500
X31500Y-48000
X32000Y-35000
X32000Y-35500
X32000Y-36000
X32000Y-36500
X32500Y-35000
X32500Y-35500
X32500Y-36000
X32500Y-36500
X33000Y-35000
X33000Y-35500
X33000Y-36000
X33000Y-36500
X33500Y-35000
X33500Y-35500
X33500Y-36000
X33500Y-36500
X34000Y-35000
X34000Y-35500
X34000Y-36000
X34000Y-36500
X36980Y-40420
X37520Y-37700
X39560Y-48200
X40100Y-46400
X40400Y-46700
X40500Y-40500
X40500Y-41000
X40500Y-41500
X40500Y-42000
X40500Y-42500
X40500Y-43000
X40500Y-43500
X40700Y-47000
X40900Y-44600
X40900Y-45600
X40900Y-46600
X40900Y-48600
X40900Y-49300
X41000Y-40500
X41000Y-41000
X41000Y-41500
X41000Y-42000
X41000Y-42500
X41000Y-43000
X41000Y-43500
X41000Y-47300
X41200Y-48100
X44000Y-57500
X44000Y-58000
X44000Y-58500
X44500Y-57500
X44500Y-58000
X44500Y-58500
X45000Y-57500
X45000Y-58000
X45000Y-58500
X45500Y-57500
X45500Y-58000
X45500Y-58500
X45500Y-60500
X45500Y-61000
X46000Y-57500
X46000Y-58000
X46000Y-58500
X46000Y-60500
X46000Y-61000
X46500Y-57500
X46500Y-58000
X46500Y-58500
X46500Y-60500
X46500Y-61000
X47000Y-60500
X47000Y-61000
X47500Y-60500
X47500Y-61000
X48000Y-60500
X48000Y-61000
X48480Y-38900
X48480Y-40280
X48500Y-60500
X48500Y-61000
X48520Y-39760
X48560Y-37780
X51000Y-55000
X51000Y-55500
X51000Y-56000
X51280Y-43980
X51300Y-40900
X51500Y-55000
X51500Y-55500
X51500Y-56000
X51780Y-40900
X51780Y-44920
X52000Y-55000
X52000Y-55500
X52000Y-56000
X52420Y-40900
X52500Y-55000
X52500Y-55500
X52500Y-56000
X52840Y-40940
X53000Y-35500
X53000Y-36000
X53000Y-36500
X53000Y-37000
X53000Y-37500
X53000Y-38000
X53000Y-55000
X53000Y-55500
X53000Y-56000
X53500Y-35500
X53500Y-36000
X53500Y-36500
X53500Y-37000
X53500Y-37500
X53500Y-38000
X53500Y-55000
X53500Y-55500
X53500Y-56000
X54000Y-35500
X54000Y-36000
X54000Y-36500
X54000Y-37000
X54000Y-37500
X54000Y-38000
X55400Y-46700
X55800Y-41520
X58520Y-37220
X59120Y-37160
X59750Y-37250
X60440Y-48040
X61000Y-46140
X63000Y-38000
X63000Y-38500
X63000Y-39000
X63500Y-38000
X63500Y-38500
X63500Y-39000
X64000Y-38000
X64000Y-38500
X64000Y-39000
X64500Y-38000
X64500Y-38500
X64500Y-39000
X65000Y-38000
X65000Y-38500
X65000Y-39000
T2
X36250Y-58000
X40250Y-58000
T3
X29250Y-50750
X29250Y-53750
X32250Y-49250
X32250Y-50750
X32250Y-53750
X43300Y-49800
X51000Y-57000
X54000Y-39000
X64750Y-40000
T4
X31266Y-49250
X43300Y-48816
X51000Y-57984
X54000Y-39984
X64750Y-40984
T5
X32200Y-58241
X32200Y-60800
X33972Y-58241
X33972Y-60800
X36258Y-37762
X36258Y-38762
X36258Y-39762
X36258Y-40762
X36258Y-41762
X36258Y-42762
X36258Y-43762
X36258Y-44762
X36258Y-45762
X36258Y-46762
X36258Y-47762
X36258Y-48762
X36258Y-49762
X36258Y-50762
X36258Y-51762
X36258Y-52762
X36258Y-53762
X36258Y-54762
X36258Y-55762
X36258Y-56762
X42258Y-37762
X42258Y-38762
X42258Y-39762
X42258Y-40762
X42258Y-41762
X42258Y-42762
X42258Y-43762
X42258Y-44762
X42258Y-45762
X42258Y-46762
X42258Y-47762
X42258Y-48762
X42258Y-49762
X42258Y-50762
X42258Y-51762
X42258Y-52762
X42258Y-53762
X42258Y-54762
X42258Y-55762
X42258Y-56762
X48000Y-41000
X48000Y-42000
X48000Y-43000
X48000Y-44000
X48000Y-45000
X48000Y-46000
X48000Y-47000
X48000Y-48000
X48000Y-49000
X48000Y-50000
X48000Y-51000
X48000Y-52000
X48000Y-53000
X48000Y-54000
X54000Y-41000
X54000Y-42000
X54000Y-43000
X54000Y-44000
X54000Y-45000
X54000Y-46000
X54000Y-47000
X54000Y-48000
X54000Y-49000
X54000Y-50000
X54000Y-51000
X54000Y-52000
X54000Y-53000
X54000Y-54000
X56500Y-41000
X56500Y-42000
X56500Y-43000
X56500Y-44000
X56500Y-45000
X56500Y-46000
X56500Y-47000
X56500Y-48000
X56500Y-49000
X56500Y-50000
X56500Y-51000
X56500Y-52000
X56500Y-53000
X56500Y-54000
X62500Y-41000
X62500Y-42000
X62500Y-43000
X62500Y-44000
X62500Y-45000
X62500Y-46000
X62500Y-47000
X62500Y-48000
X62500Y-49000
X62500Y-50000
X62500Y-51000
X62500Y-52000
X62500Y-53000
X62500Y-54000
T6
X34000Y-37750
X34000Y-38750
X34000Y-39750
X34000Y-40750
X34000Y-41750
X34000Y-42750
X34000Y-43750
X34000Y-44750
X34000Y-45750
X34000Y-46750
X34000Y-47750
X34000Y-48750
X34000Y-49750
X34000Y-50750
X34000Y-51750
X34000Y-52750
X34000Y-53750
X34000Y-54750
X34000Y-55750
X34000Y-56750
X35000Y-37750
X35000Y-38750
X35000Y-39750
X35000Y-40750
X35000Y-41750
X35000Y-42750
X35000Y-43750
X35000Y-44750
X35000Y-45750
X35000Y-46750
X35000Y-47750
X35000Y-48750
X35000Y-49750
X35000Y-50750
X35000Y-51750
X35000Y-52750
X35000Y-53750
X35000Y-54750
X35000Y-55750
X35000Y-56750
X37580Y-35720
X38580Y-35720
X39580Y-35720
X40580Y-35720
X41580Y-35720
X42580Y-35720
X45250Y-37750
X45250Y-38750
X45250Y-39750
X45250Y-40750
X45250Y-41750
X45250Y-42750
X45250Y-43750
X45250Y-44750
X45250Y-45750
X45250Y-46750
X45250Y-47750
X45250Y-48750
X45250Y-49750
X45250Y-50750
X45250Y-51750
X45250Y-52750
X45250Y-53750
X45250Y-54750
X45250Y-55750
X45250Y-56750
X46250Y-37750
X46250Y-38750
X46250Y-39750
X46250Y-40750
X46250Y-41750
X46250Y-42750
X46250Y-43750
X46250Y-44750
X46250Y-45750
X46250Y-46750
X46250Y-47750
X46250Y-48750
X46250Y-49750
X46250Y-50750
X46250Y-51750
X46250Y-52750
X46250Y-53750
X46250Y-54750
X46250Y-55750
X46250Y-56750
X50000Y-60500
X51000Y-60500
T7
X29750Y-34750
X29750Y-60250
X64250Y-34750
X64250Y-60250
T0
M30
