G04 #@! TF.FileFunction,Soldermask,Top*
%FSLAX46Y46*%
G04 Gerber Fmt 4.6, Leading zero omitted, Abs format (unit mm)*
G04 Created by KiCad (PCBNEW (2015-08-16 BZR 6097, Git b384c94)-product) date 11/3/2015 8:57:16 PM*
%MOMM*%
G01*
G04 APERTURE LIST*
%ADD10C,0.100000*%
%ADD11C,5.000000*%
%ADD12R,1.300000X1.300000*%
%ADD13C,1.300000*%
%ADD14C,1.400000*%
%ADD15C,1.700000*%
%ADD16R,1.700000X1.700000*%
%ADD17C,1.600000*%
%ADD18R,1.600000X1.600000*%
%ADD19R,2.032000X2.032000*%
%ADD20O,2.032000X2.032000*%
%ADD21C,1.727200*%
%ADD22O,1.727200X1.727200*%
%ADD23R,1.727200X2.032000*%
%ADD24O,1.727200X2.032000*%
%ADD25R,1.524000X1.524000*%
%ADD26C,1.524000*%
G04 APERTURE END LIST*
D10*
D11*
X163195000Y-153035000D03*
X163195000Y-88265000D03*
X75565000Y-153035000D03*
D12*
X109982000Y-126492000D03*
D13*
X109982000Y-123992000D03*
D12*
X81915000Y-125095000D03*
D13*
X79415000Y-125095000D03*
D12*
X164465000Y-101600000D03*
D13*
X164465000Y-104100000D03*
D12*
X137160000Y-99060000D03*
D13*
X137160000Y-101560000D03*
D14*
X102235000Y-147320000D03*
X92075000Y-147320000D03*
D15*
X81788000Y-154432000D03*
X81788000Y-147932000D03*
X86288000Y-154432000D03*
X86288000Y-147932000D03*
D16*
X107335000Y-144175000D03*
D17*
X107335000Y-141635000D03*
X107335000Y-139095000D03*
X107335000Y-136555000D03*
X107335000Y-134015000D03*
X107335000Y-131475000D03*
X107335000Y-128935000D03*
X107335000Y-126395000D03*
X107335000Y-123855000D03*
X107335000Y-121315000D03*
X107335000Y-118775000D03*
X107335000Y-116235000D03*
X107335000Y-113695000D03*
X107335000Y-111155000D03*
X107335000Y-108615000D03*
X107335000Y-106075000D03*
X107335000Y-103535000D03*
X107335000Y-100995000D03*
X107335000Y-98455000D03*
X107335000Y-95915000D03*
X92095000Y-95915000D03*
X92095000Y-98455000D03*
X92095000Y-100995000D03*
X92095000Y-103535000D03*
X92095000Y-106075000D03*
X92095000Y-108615000D03*
X92095000Y-111155000D03*
X92095000Y-113695000D03*
X92095000Y-116235000D03*
X92095000Y-118775000D03*
X92095000Y-121315000D03*
X92095000Y-123855000D03*
X92095000Y-126395000D03*
X92095000Y-128935000D03*
X92095000Y-131475000D03*
X92095000Y-134015000D03*
X92095000Y-136555000D03*
X92095000Y-139095000D03*
X92095000Y-141635000D03*
X92095000Y-144175000D03*
D18*
X143510000Y-104140000D03*
D17*
X143510000Y-106680000D03*
X143510000Y-109220000D03*
X143510000Y-111760000D03*
X143510000Y-114300000D03*
X143510000Y-116840000D03*
X143510000Y-119380000D03*
X143510000Y-121920000D03*
X143510000Y-124460000D03*
X143510000Y-127000000D03*
X143510000Y-129540000D03*
X143510000Y-132080000D03*
X143510000Y-134620000D03*
X143510000Y-137160000D03*
X158750000Y-137160000D03*
X158750000Y-134620000D03*
X158750000Y-132080000D03*
X158750000Y-129540000D03*
X158750000Y-127000000D03*
X158750000Y-124460000D03*
X158750000Y-121920000D03*
X158750000Y-119380000D03*
X158750000Y-116840000D03*
X158750000Y-114300000D03*
X158750000Y-111760000D03*
X158750000Y-109220000D03*
X158750000Y-106680000D03*
X158750000Y-104140000D03*
D18*
X121920000Y-104140000D03*
D17*
X121920000Y-106680000D03*
X121920000Y-109220000D03*
X121920000Y-111760000D03*
X121920000Y-114300000D03*
X121920000Y-116840000D03*
X121920000Y-119380000D03*
X121920000Y-121920000D03*
X121920000Y-124460000D03*
X121920000Y-127000000D03*
X121920000Y-129540000D03*
X121920000Y-132080000D03*
X121920000Y-134620000D03*
X121920000Y-137160000D03*
X137160000Y-137160000D03*
X137160000Y-134620000D03*
X137160000Y-132080000D03*
X137160000Y-129540000D03*
X137160000Y-127000000D03*
X137160000Y-124460000D03*
X137160000Y-121920000D03*
X137160000Y-119380000D03*
X137160000Y-116840000D03*
X137160000Y-114300000D03*
X137160000Y-111760000D03*
X137160000Y-109220000D03*
X137160000Y-106680000D03*
X137160000Y-104140000D03*
D12*
X129540000Y-144780000D03*
D13*
X129540000Y-147280000D03*
D19*
X127000000Y-153670000D03*
D20*
X129540000Y-153670000D03*
D21*
X88900000Y-144145000D03*
D22*
X86360000Y-144145000D03*
X88900000Y-141605000D03*
X86360000Y-141605000D03*
X88900000Y-139065000D03*
X86360000Y-139065000D03*
X88900000Y-136525000D03*
X86360000Y-136525000D03*
X88900000Y-133985000D03*
X86360000Y-133985000D03*
X88900000Y-131445000D03*
X86360000Y-131445000D03*
X88900000Y-128905000D03*
X86360000Y-128905000D03*
X88900000Y-126365000D03*
X86360000Y-126365000D03*
X88900000Y-123825000D03*
X86360000Y-123825000D03*
X88900000Y-121285000D03*
X86360000Y-121285000D03*
X88900000Y-118745000D03*
X86360000Y-118745000D03*
X88900000Y-116205000D03*
X86360000Y-116205000D03*
X88900000Y-113665000D03*
X86360000Y-113665000D03*
X88900000Y-111125000D03*
X86360000Y-111125000D03*
X88900000Y-108585000D03*
X86360000Y-108585000D03*
X88900000Y-106045000D03*
X86360000Y-106045000D03*
X88900000Y-103505000D03*
X86360000Y-103505000D03*
X88900000Y-100965000D03*
X86360000Y-100965000D03*
X88900000Y-98425000D03*
X86360000Y-98425000D03*
X88900000Y-95885000D03*
X86360000Y-95885000D03*
D23*
X95453200Y-90728800D03*
D24*
X97993200Y-90728800D03*
X100533200Y-90728800D03*
X103073200Y-90728800D03*
X105613200Y-90728800D03*
X108153200Y-90728800D03*
D21*
X117475000Y-144145000D03*
D22*
X114935000Y-144145000D03*
X117475000Y-141605000D03*
X114935000Y-141605000D03*
X117475000Y-139065000D03*
X114935000Y-139065000D03*
X117475000Y-136525000D03*
X114935000Y-136525000D03*
X117475000Y-133985000D03*
X114935000Y-133985000D03*
X117475000Y-131445000D03*
X114935000Y-131445000D03*
X117475000Y-128905000D03*
X114935000Y-128905000D03*
X117475000Y-126365000D03*
X114935000Y-126365000D03*
X117475000Y-123825000D03*
X114935000Y-123825000D03*
X117475000Y-121285000D03*
X114935000Y-121285000D03*
X117475000Y-118745000D03*
X114935000Y-118745000D03*
X117475000Y-116205000D03*
X114935000Y-116205000D03*
X117475000Y-113665000D03*
X114935000Y-113665000D03*
X117475000Y-111125000D03*
X114935000Y-111125000D03*
X117475000Y-108585000D03*
X114935000Y-108585000D03*
X117475000Y-106045000D03*
X114935000Y-106045000D03*
X117475000Y-103505000D03*
X114935000Y-103505000D03*
X117475000Y-100965000D03*
X114935000Y-100965000D03*
X117475000Y-98425000D03*
X114935000Y-98425000D03*
X117475000Y-95885000D03*
X114935000Y-95885000D03*
D11*
X75565000Y-88265000D03*
D25*
X74295000Y-128905000D03*
D26*
X74295000Y-136525000D03*
X81915000Y-128905000D03*
X81915000Y-136525000D03*
M02*
