G04 #@! TF.FileFunction,Legend,Top*
%FSLAX46Y46*%
G04 Gerber Fmt 4.6, Leading zero omitted, Abs format (unit mm)*
G04 Created by KiCad (PCBNEW (2015-08-16 BZR 6097, Git b384c94)-product) date 11/3/2015 8:57:16 PM*
%MOMM*%
G01*
G04 APERTURE LIST*
%ADD10C,0.100000*%
%ADD11C,0.300000*%
%ADD12C,0.200000*%
%ADD13C,0.150000*%
G04 APERTURE END LIST*
D10*
D11*
X118290715Y-86808571D02*
X118005001Y-86808571D01*
X117862144Y-86880000D01*
X117790715Y-86951429D01*
X117647858Y-87165714D01*
X117576429Y-87451429D01*
X117576429Y-88022857D01*
X117647858Y-88165714D01*
X117719286Y-88237143D01*
X117862144Y-88308571D01*
X118147858Y-88308571D01*
X118290715Y-88237143D01*
X118362144Y-88165714D01*
X118433572Y-88022857D01*
X118433572Y-87665714D01*
X118362144Y-87522857D01*
X118290715Y-87451429D01*
X118147858Y-87380000D01*
X117862144Y-87380000D01*
X117719286Y-87451429D01*
X117647858Y-87522857D01*
X117576429Y-87665714D01*
X119790715Y-86808571D02*
X119076429Y-86808571D01*
X119005000Y-87522857D01*
X119076429Y-87451429D01*
X119219286Y-87380000D01*
X119576429Y-87380000D01*
X119719286Y-87451429D01*
X119790715Y-87522857D01*
X119862143Y-87665714D01*
X119862143Y-88022857D01*
X119790715Y-88165714D01*
X119719286Y-88237143D01*
X119576429Y-88308571D01*
X119219286Y-88308571D01*
X119076429Y-88237143D01*
X119005000Y-88165714D01*
X120790714Y-86808571D02*
X120933571Y-86808571D01*
X121076428Y-86880000D01*
X121147857Y-86951429D01*
X121219286Y-87094286D01*
X121290714Y-87380000D01*
X121290714Y-87737143D01*
X121219286Y-88022857D01*
X121147857Y-88165714D01*
X121076428Y-88237143D01*
X120933571Y-88308571D01*
X120790714Y-88308571D01*
X120647857Y-88237143D01*
X120576428Y-88165714D01*
X120505000Y-88022857D01*
X120433571Y-87737143D01*
X120433571Y-87380000D01*
X120505000Y-87094286D01*
X120576428Y-86951429D01*
X120647857Y-86880000D01*
X120790714Y-86808571D01*
X121862142Y-86951429D02*
X121933571Y-86880000D01*
X122076428Y-86808571D01*
X122433571Y-86808571D01*
X122576428Y-86880000D01*
X122647857Y-86951429D01*
X122719285Y-87094286D01*
X122719285Y-87237143D01*
X122647857Y-87451429D01*
X121790714Y-88308571D01*
X122719285Y-88308571D01*
X123362142Y-88165714D02*
X123433570Y-88237143D01*
X123362142Y-88308571D01*
X123290713Y-88237143D01*
X123362142Y-88165714D01*
X123362142Y-88308571D01*
X124076428Y-88308571D02*
X124076428Y-87308571D01*
X124076428Y-86808571D02*
X124004999Y-86880000D01*
X124076428Y-86951429D01*
X124147856Y-86880000D01*
X124076428Y-86808571D01*
X124076428Y-86951429D01*
X125005000Y-88308571D02*
X124862142Y-88237143D01*
X124790714Y-88165714D01*
X124719285Y-88022857D01*
X124719285Y-87594286D01*
X124790714Y-87451429D01*
X124862142Y-87380000D01*
X125005000Y-87308571D01*
X125219285Y-87308571D01*
X125362142Y-87380000D01*
X125433571Y-87451429D01*
X125505000Y-87594286D01*
X125505000Y-88022857D01*
X125433571Y-88165714D01*
X125362142Y-88237143D01*
X125219285Y-88308571D01*
X125005000Y-88308571D01*
X127290714Y-88308571D02*
X127290714Y-86808571D01*
X127862142Y-86808571D01*
X128005000Y-86880000D01*
X128076428Y-86951429D01*
X128147857Y-87094286D01*
X128147857Y-87308571D01*
X128076428Y-87451429D01*
X128005000Y-87522857D01*
X127862142Y-87594286D01*
X127290714Y-87594286D01*
X128790714Y-88308571D02*
X128790714Y-87308571D01*
X128790714Y-87594286D02*
X128862142Y-87451429D01*
X128933571Y-87380000D01*
X129076428Y-87308571D01*
X129219285Y-87308571D01*
X129933571Y-88308571D02*
X129790713Y-88237143D01*
X129719285Y-88165714D01*
X129647856Y-88022857D01*
X129647856Y-87594286D01*
X129719285Y-87451429D01*
X129790713Y-87380000D01*
X129933571Y-87308571D01*
X130147856Y-87308571D01*
X130290713Y-87380000D01*
X130362142Y-87451429D01*
X130433571Y-87594286D01*
X130433571Y-88022857D01*
X130362142Y-88165714D01*
X130290713Y-88237143D01*
X130147856Y-88308571D01*
X129933571Y-88308571D01*
X130862142Y-87308571D02*
X131433571Y-87308571D01*
X131076428Y-86808571D02*
X131076428Y-88094286D01*
X131147856Y-88237143D01*
X131290714Y-88308571D01*
X131433571Y-88308571D01*
X132147857Y-88308571D02*
X132004999Y-88237143D01*
X131933571Y-88165714D01*
X131862142Y-88022857D01*
X131862142Y-87594286D01*
X131933571Y-87451429D01*
X132004999Y-87380000D01*
X132147857Y-87308571D01*
X132362142Y-87308571D01*
X132504999Y-87380000D01*
X132576428Y-87451429D01*
X132647857Y-87594286D01*
X132647857Y-88022857D01*
X132576428Y-88165714D01*
X132504999Y-88237143D01*
X132362142Y-88308571D01*
X132147857Y-88308571D01*
X133076428Y-87308571D02*
X133647857Y-87308571D01*
X133290714Y-86808571D02*
X133290714Y-88094286D01*
X133362142Y-88237143D01*
X133505000Y-88308571D01*
X133647857Y-88308571D01*
X134005000Y-87308571D02*
X134362143Y-88308571D01*
X134719285Y-87308571D02*
X134362143Y-88308571D01*
X134219285Y-88665714D01*
X134147857Y-88737143D01*
X134005000Y-88808571D01*
X135290714Y-87308571D02*
X135290714Y-88808571D01*
X135290714Y-87380000D02*
X135433571Y-87308571D01*
X135719285Y-87308571D01*
X135862142Y-87380000D01*
X135933571Y-87451429D01*
X136005000Y-87594286D01*
X136005000Y-88022857D01*
X135933571Y-88165714D01*
X135862142Y-88237143D01*
X135719285Y-88308571D01*
X135433571Y-88308571D01*
X135290714Y-88237143D01*
X136647857Y-88308571D02*
X136647857Y-87308571D01*
X136647857Y-86808571D02*
X136576428Y-86880000D01*
X136647857Y-86951429D01*
X136719285Y-86880000D01*
X136647857Y-86808571D01*
X136647857Y-86951429D01*
X137362143Y-87308571D02*
X137362143Y-88308571D01*
X137362143Y-87451429D02*
X137433571Y-87380000D01*
X137576429Y-87308571D01*
X137790714Y-87308571D01*
X137933571Y-87380000D01*
X138005000Y-87522857D01*
X138005000Y-88308571D01*
X139362143Y-87308571D02*
X139362143Y-88522857D01*
X139290714Y-88665714D01*
X139219286Y-88737143D01*
X139076429Y-88808571D01*
X138862143Y-88808571D01*
X138719286Y-88737143D01*
X139362143Y-88237143D02*
X139219286Y-88308571D01*
X138933572Y-88308571D01*
X138790714Y-88237143D01*
X138719286Y-88165714D01*
X138647857Y-88022857D01*
X138647857Y-87594286D01*
X138719286Y-87451429D01*
X138790714Y-87380000D01*
X138933572Y-87308571D01*
X139219286Y-87308571D01*
X139362143Y-87380000D01*
X141719286Y-87522857D02*
X141933572Y-87594286D01*
X142005000Y-87665714D01*
X142076429Y-87808571D01*
X142076429Y-88022857D01*
X142005000Y-88165714D01*
X141933572Y-88237143D01*
X141790714Y-88308571D01*
X141219286Y-88308571D01*
X141219286Y-86808571D01*
X141719286Y-86808571D01*
X141862143Y-86880000D01*
X141933572Y-86951429D01*
X142005000Y-87094286D01*
X142005000Y-87237143D01*
X141933572Y-87380000D01*
X141862143Y-87451429D01*
X141719286Y-87522857D01*
X141219286Y-87522857D01*
X142933572Y-88308571D02*
X142790714Y-88237143D01*
X142719286Y-88165714D01*
X142647857Y-88022857D01*
X142647857Y-87594286D01*
X142719286Y-87451429D01*
X142790714Y-87380000D01*
X142933572Y-87308571D01*
X143147857Y-87308571D01*
X143290714Y-87380000D01*
X143362143Y-87451429D01*
X143433572Y-87594286D01*
X143433572Y-88022857D01*
X143362143Y-88165714D01*
X143290714Y-88237143D01*
X143147857Y-88308571D01*
X142933572Y-88308571D01*
X144719286Y-88308571D02*
X144719286Y-87522857D01*
X144647857Y-87380000D01*
X144505000Y-87308571D01*
X144219286Y-87308571D01*
X144076429Y-87380000D01*
X144719286Y-88237143D02*
X144576429Y-88308571D01*
X144219286Y-88308571D01*
X144076429Y-88237143D01*
X144005000Y-88094286D01*
X144005000Y-87951429D01*
X144076429Y-87808571D01*
X144219286Y-87737143D01*
X144576429Y-87737143D01*
X144719286Y-87665714D01*
X145433572Y-88308571D02*
X145433572Y-87308571D01*
X145433572Y-87594286D02*
X145505000Y-87451429D01*
X145576429Y-87380000D01*
X145719286Y-87308571D01*
X145862143Y-87308571D01*
X147005000Y-88308571D02*
X147005000Y-86808571D01*
X147005000Y-88237143D02*
X146862143Y-88308571D01*
X146576429Y-88308571D01*
X146433571Y-88237143D01*
X146362143Y-88165714D01*
X146290714Y-88022857D01*
X146290714Y-87594286D01*
X146362143Y-87451429D01*
X146433571Y-87380000D01*
X146576429Y-87308571D01*
X146862143Y-87308571D01*
X147005000Y-87380000D01*
X148719286Y-87308571D02*
X149076429Y-88308571D01*
X149433571Y-87308571D01*
X150790714Y-88308571D02*
X149933571Y-88308571D01*
X150362143Y-88308571D02*
X150362143Y-86808571D01*
X150219286Y-87022857D01*
X150076428Y-87165714D01*
X149933571Y-87237143D01*
X151433571Y-88165714D02*
X151504999Y-88237143D01*
X151433571Y-88308571D01*
X151362142Y-88237143D01*
X151433571Y-88165714D01*
X151433571Y-88308571D01*
X152076428Y-86951429D02*
X152147857Y-86880000D01*
X152290714Y-86808571D01*
X152647857Y-86808571D01*
X152790714Y-86880000D01*
X152862143Y-86951429D01*
X152933571Y-87094286D01*
X152933571Y-87237143D01*
X152862143Y-87451429D01*
X152005000Y-88308571D01*
X152933571Y-88308571D01*
D12*
X111760000Y-125222000D02*
X113538000Y-125222000D01*
X111760000Y-129794000D02*
X111760000Y-125222000D01*
X111760000Y-137922000D02*
X111760000Y-133604000D01*
X93980000Y-86106000D02*
X96266000Y-86106000D01*
X93980000Y-88900000D02*
X93980000Y-86106000D01*
X101854000Y-86106000D02*
X99822000Y-86106000D01*
X101854000Y-86106000D02*
X103886000Y-86106000D01*
X101854000Y-88900000D02*
X101854000Y-86106000D01*
X109474000Y-86106000D02*
X107442000Y-86106000D01*
X109474000Y-88900000D02*
X109474000Y-86106000D01*
D13*
X104949524Y-86812381D02*
X104616190Y-86336190D01*
X104378095Y-86812381D02*
X104378095Y-85812381D01*
X104759048Y-85812381D01*
X104854286Y-85860000D01*
X104901905Y-85907619D01*
X104949524Y-86002857D01*
X104949524Y-86145714D01*
X104901905Y-86240952D01*
X104854286Y-86288571D01*
X104759048Y-86336190D01*
X104378095Y-86336190D01*
X105568571Y-85812381D02*
X105759048Y-85812381D01*
X105854286Y-85860000D01*
X105949524Y-85955238D01*
X105997143Y-86145714D01*
X105997143Y-86479048D01*
X105949524Y-86669524D01*
X105854286Y-86764762D01*
X105759048Y-86812381D01*
X105568571Y-86812381D01*
X105473333Y-86764762D01*
X105378095Y-86669524D01*
X105330476Y-86479048D01*
X105330476Y-86145714D01*
X105378095Y-85955238D01*
X105473333Y-85860000D01*
X105568571Y-85812381D01*
X106425714Y-86812381D02*
X106425714Y-85812381D01*
X106759048Y-86526667D01*
X107092381Y-85812381D01*
X107092381Y-86812381D01*
X97329524Y-86812381D02*
X96996190Y-86336190D01*
X96758095Y-86812381D02*
X96758095Y-85812381D01*
X97139048Y-85812381D01*
X97234286Y-85860000D01*
X97281905Y-85907619D01*
X97329524Y-86002857D01*
X97329524Y-86145714D01*
X97281905Y-86240952D01*
X97234286Y-86288571D01*
X97139048Y-86336190D01*
X96758095Y-86336190D01*
X97710476Y-86526667D02*
X98186667Y-86526667D01*
X97615238Y-86812381D02*
X97948571Y-85812381D01*
X98281905Y-86812381D01*
X98615238Y-86812381D02*
X98615238Y-85812381D01*
X98948572Y-86526667D01*
X99281905Y-85812381D01*
X99281905Y-86812381D01*
X108124524Y-88622143D02*
X108076905Y-88669762D01*
X107934048Y-88717381D01*
X107838810Y-88717381D01*
X107695952Y-88669762D01*
X107600714Y-88574524D01*
X107553095Y-88479286D01*
X107505476Y-88288810D01*
X107505476Y-88145952D01*
X107553095Y-87955476D01*
X107600714Y-87860238D01*
X107695952Y-87765000D01*
X107838810Y-87717381D01*
X107934048Y-87717381D01*
X108076905Y-87765000D01*
X108124524Y-87812619D01*
X108553095Y-88193571D02*
X108886429Y-88193571D01*
X109029286Y-88717381D02*
X108553095Y-88717381D01*
X108553095Y-87717381D01*
X109029286Y-87717381D01*
X105203571Y-87717381D02*
X105394048Y-87717381D01*
X105489286Y-87765000D01*
X105584524Y-87860238D01*
X105632143Y-88050714D01*
X105632143Y-88384048D01*
X105584524Y-88574524D01*
X105489286Y-88669762D01*
X105394048Y-88717381D01*
X105203571Y-88717381D01*
X105108333Y-88669762D01*
X105013095Y-88574524D01*
X104965476Y-88384048D01*
X104965476Y-88050714D01*
X105013095Y-87860238D01*
X105108333Y-87765000D01*
X105203571Y-87717381D01*
X106060714Y-88193571D02*
X106394048Y-88193571D01*
X106536905Y-88717381D02*
X106060714Y-88717381D01*
X106060714Y-87717381D01*
X106536905Y-87717381D01*
X102377857Y-87717381D02*
X102615952Y-88717381D01*
X102806429Y-88003095D01*
X102996905Y-88717381D01*
X103235000Y-87717381D01*
X103615952Y-88193571D02*
X103949286Y-88193571D01*
X104092143Y-88717381D02*
X103615952Y-88717381D01*
X103615952Y-87717381D01*
X104092143Y-87717381D01*
X100504524Y-88622143D02*
X100456905Y-88669762D01*
X100314048Y-88717381D01*
X100218810Y-88717381D01*
X100075952Y-88669762D01*
X99980714Y-88574524D01*
X99933095Y-88479286D01*
X99885476Y-88288810D01*
X99885476Y-88145952D01*
X99933095Y-87955476D01*
X99980714Y-87860238D01*
X100075952Y-87765000D01*
X100218810Y-87717381D01*
X100314048Y-87717381D01*
X100456905Y-87765000D01*
X100504524Y-87812619D01*
X100933095Y-88193571D02*
X101266429Y-88193571D01*
X101409286Y-88717381D02*
X100933095Y-88717381D01*
X100933095Y-87717381D01*
X101409286Y-87717381D01*
X97583571Y-87717381D02*
X97774048Y-87717381D01*
X97869286Y-87765000D01*
X97964524Y-87860238D01*
X98012143Y-88050714D01*
X98012143Y-88384048D01*
X97964524Y-88574524D01*
X97869286Y-88669762D01*
X97774048Y-88717381D01*
X97583571Y-88717381D01*
X97488333Y-88669762D01*
X97393095Y-88574524D01*
X97345476Y-88384048D01*
X97345476Y-88050714D01*
X97393095Y-87860238D01*
X97488333Y-87765000D01*
X97583571Y-87717381D01*
X98440714Y-88193571D02*
X98774048Y-88193571D01*
X98916905Y-88717381D02*
X98440714Y-88717381D01*
X98440714Y-87717381D01*
X98916905Y-87717381D01*
X94757857Y-87717381D02*
X94995952Y-88717381D01*
X95186429Y-88003095D01*
X95376905Y-88717381D01*
X95615000Y-87717381D01*
X95995952Y-88193571D02*
X96329286Y-88193571D01*
X96472143Y-88717381D02*
X95995952Y-88717381D01*
X95995952Y-87717381D01*
X96472143Y-87717381D01*
D12*
X111760000Y-145415000D02*
X111760000Y-143510000D01*
X113665000Y-145415000D02*
X111760000Y-145415000D01*
X111760000Y-137795000D02*
X111760000Y-139700000D01*
X113665000Y-137795000D02*
X111760000Y-137795000D01*
D13*
X111895000Y-142366904D02*
X111847381Y-142462142D01*
X111847381Y-142604999D01*
X111895000Y-142747857D01*
X111990238Y-142843095D01*
X112085476Y-142890714D01*
X112275952Y-142938333D01*
X112418810Y-142938333D01*
X112609286Y-142890714D01*
X112704524Y-142843095D01*
X112799762Y-142747857D01*
X112847381Y-142604999D01*
X112847381Y-142509761D01*
X112799762Y-142366904D01*
X112752143Y-142319285D01*
X112418810Y-142319285D01*
X112418810Y-142509761D01*
X112847381Y-141890714D02*
X111847381Y-141890714D01*
X112847381Y-141319285D01*
X111847381Y-141319285D01*
X112847381Y-140843095D02*
X111847381Y-140843095D01*
X111847381Y-140605000D01*
X111895000Y-140462142D01*
X111990238Y-140366904D01*
X112085476Y-140319285D01*
X112275952Y-140271666D01*
X112418810Y-140271666D01*
X112609286Y-140319285D01*
X112704524Y-140366904D01*
X112799762Y-140462142D01*
X112847381Y-140605000D01*
X112847381Y-140843095D01*
X111720381Y-133063905D02*
X112720381Y-132730572D01*
X111720381Y-132397238D01*
X112625143Y-131492476D02*
X112672762Y-131540095D01*
X112720381Y-131682952D01*
X112720381Y-131778190D01*
X112672762Y-131921048D01*
X112577524Y-132016286D01*
X112482286Y-132063905D01*
X112291810Y-132111524D01*
X112148952Y-132111524D01*
X111958476Y-132063905D01*
X111863238Y-132016286D01*
X111768000Y-131921048D01*
X111720381Y-131778190D01*
X111720381Y-131682952D01*
X111768000Y-131540095D01*
X111815619Y-131492476D01*
X112625143Y-130492476D02*
X112672762Y-130540095D01*
X112720381Y-130682952D01*
X112720381Y-130778190D01*
X112672762Y-130921048D01*
X112577524Y-131016286D01*
X112482286Y-131063905D01*
X112291810Y-131111524D01*
X112148952Y-131111524D01*
X111958476Y-131063905D01*
X111863238Y-131016286D01*
X111768000Y-130921048D01*
X111720381Y-130778190D01*
X111720381Y-130682952D01*
X111768000Y-130540095D01*
X111815619Y-130492476D01*
X108807238Y-143724381D02*
X109140571Y-144724381D01*
X109473905Y-143724381D01*
X109807238Y-144724381D02*
X109807238Y-143724381D01*
X110188191Y-143724381D01*
X110283429Y-143772000D01*
X110331048Y-143819619D01*
X110378667Y-143914857D01*
X110378667Y-144057714D01*
X110331048Y-144152952D01*
X110283429Y-144200571D01*
X110188191Y-144248190D01*
X109807238Y-144248190D01*
X111140572Y-144200571D02*
X111283429Y-144248190D01*
X111331048Y-144295810D01*
X111378667Y-144391048D01*
X111378667Y-144533905D01*
X111331048Y-144629143D01*
X111283429Y-144676762D01*
X111188191Y-144724381D01*
X110807238Y-144724381D01*
X110807238Y-143724381D01*
X111140572Y-143724381D01*
X111235810Y-143772000D01*
X111283429Y-143819619D01*
X111331048Y-143914857D01*
X111331048Y-144010095D01*
X111283429Y-144105333D01*
X111235810Y-144152952D01*
X111140572Y-144200571D01*
X110807238Y-144200571D01*
X109204381Y-142184381D02*
X108871047Y-141708190D01*
X108632952Y-142184381D02*
X108632952Y-141184381D01*
X109013905Y-141184381D01*
X109109143Y-141232000D01*
X109156762Y-141279619D01*
X109204381Y-141374857D01*
X109204381Y-141517714D01*
X109156762Y-141612952D01*
X109109143Y-141660571D01*
X109013905Y-141708190D01*
X108632952Y-141708190D01*
X109632952Y-142184381D02*
X109632952Y-141184381D01*
X109871047Y-141184381D01*
X110013905Y-141232000D01*
X110109143Y-141327238D01*
X110156762Y-141422476D01*
X110204381Y-141612952D01*
X110204381Y-141755810D01*
X110156762Y-141946286D01*
X110109143Y-142041524D01*
X110013905Y-142136762D01*
X109871047Y-142184381D01*
X109632952Y-142184381D01*
X110823428Y-141708190D02*
X110823428Y-142184381D01*
X110490095Y-141184381D02*
X110823428Y-141708190D01*
X111156762Y-141184381D01*
X108696095Y-139644381D02*
X108696095Y-138644381D01*
X109077048Y-138644381D01*
X109172286Y-138692000D01*
X109219905Y-138739619D01*
X109267524Y-138834857D01*
X109267524Y-138977714D01*
X109219905Y-139072952D01*
X109172286Y-139120571D01*
X109077048Y-139168190D01*
X108696095Y-139168190D01*
X109648476Y-138739619D02*
X109696095Y-138692000D01*
X109791333Y-138644381D01*
X110029429Y-138644381D01*
X110124667Y-138692000D01*
X110172286Y-138739619D01*
X110219905Y-138834857D01*
X110219905Y-138930095D01*
X110172286Y-139072952D01*
X109600857Y-139644381D01*
X110219905Y-139644381D01*
X108696095Y-137104381D02*
X108696095Y-136104381D01*
X109743714Y-137104381D02*
X109410380Y-136628190D01*
X109172285Y-137104381D02*
X109172285Y-136104381D01*
X109553238Y-136104381D01*
X109648476Y-136152000D01*
X109696095Y-136199619D01*
X109743714Y-136294857D01*
X109743714Y-136437714D01*
X109696095Y-136532952D01*
X109648476Y-136580571D01*
X109553238Y-136628190D01*
X109172285Y-136628190D01*
X110838952Y-137199619D02*
X110743714Y-137152000D01*
X110648476Y-137056762D01*
X110505619Y-136913905D01*
X110410380Y-136866286D01*
X110315142Y-136866286D01*
X110362761Y-137104381D02*
X110267523Y-137056762D01*
X110172285Y-136961524D01*
X110124666Y-136771048D01*
X110124666Y-136437714D01*
X110172285Y-136247238D01*
X110267523Y-136152000D01*
X110362761Y-136104381D01*
X110553238Y-136104381D01*
X110648476Y-136152000D01*
X110743714Y-136247238D01*
X110791333Y-136437714D01*
X110791333Y-136771048D01*
X110743714Y-136961524D01*
X110648476Y-137056762D01*
X110553238Y-137104381D01*
X110362761Y-137104381D01*
X108696095Y-134564381D02*
X108696095Y-133564381D01*
X109029429Y-134278667D01*
X109362762Y-133564381D01*
X109362762Y-134564381D01*
X110315143Y-134564381D02*
X109838952Y-134564381D01*
X109838952Y-133564381D01*
X110981810Y-134040571D02*
X111124667Y-134088190D01*
X111172286Y-134135810D01*
X111219905Y-134231048D01*
X111219905Y-134373905D01*
X111172286Y-134469143D01*
X111124667Y-134516762D01*
X111029429Y-134564381D01*
X110648476Y-134564381D01*
X110648476Y-133564381D01*
X110981810Y-133564381D01*
X111077048Y-133612000D01*
X111124667Y-133659619D01*
X111172286Y-133754857D01*
X111172286Y-133850095D01*
X111124667Y-133945333D01*
X111077048Y-133992952D01*
X110981810Y-134040571D01*
X110648476Y-134040571D01*
X108696095Y-132024381D02*
X108696095Y-131024381D01*
X109267524Y-132024381D01*
X109267524Y-131024381D01*
X109743714Y-132024381D02*
X109743714Y-131024381D01*
X110077048Y-131738667D01*
X110410381Y-131024381D01*
X110410381Y-132024381D01*
X110886571Y-132024381D02*
X110886571Y-131024381D01*
X108648476Y-129436762D02*
X108791333Y-129484381D01*
X109029429Y-129484381D01*
X109124667Y-129436762D01*
X109172286Y-129389143D01*
X109219905Y-129293905D01*
X109219905Y-129198667D01*
X109172286Y-129103429D01*
X109124667Y-129055810D01*
X109029429Y-129008190D01*
X108838952Y-128960571D01*
X108743714Y-128912952D01*
X108696095Y-128865333D01*
X108648476Y-128770095D01*
X108648476Y-128674857D01*
X108696095Y-128579619D01*
X108743714Y-128532000D01*
X108838952Y-128484381D01*
X109077048Y-128484381D01*
X109219905Y-128532000D01*
X109838952Y-129008190D02*
X109838952Y-129484381D01*
X109505619Y-128484381D02*
X109838952Y-129008190D01*
X110172286Y-128484381D01*
X111077048Y-129389143D02*
X111029429Y-129436762D01*
X110886572Y-129484381D01*
X110791334Y-129484381D01*
X110648476Y-129436762D01*
X110553238Y-129341524D01*
X110505619Y-129246286D01*
X110458000Y-129055810D01*
X110458000Y-128912952D01*
X110505619Y-128722476D01*
X110553238Y-128627238D01*
X110648476Y-128532000D01*
X110791334Y-128484381D01*
X110886572Y-128484381D01*
X111029429Y-128532000D01*
X111077048Y-128579619D01*
X112045952Y-123991667D02*
X112522143Y-123991667D01*
X111950714Y-124277381D02*
X112284047Y-123277381D01*
X112617381Y-124277381D01*
X113141190Y-123277381D02*
X113236429Y-123277381D01*
X113331667Y-123325000D01*
X113379286Y-123372619D01*
X113426905Y-123467857D01*
X113474524Y-123658333D01*
X113474524Y-123896429D01*
X113426905Y-124086905D01*
X113379286Y-124182143D01*
X113331667Y-124229762D01*
X113236429Y-124277381D01*
X113141190Y-124277381D01*
X113045952Y-124229762D01*
X112998333Y-124182143D01*
X112950714Y-124086905D01*
X112903095Y-123896429D01*
X112903095Y-123658333D01*
X112950714Y-123467857D01*
X112998333Y-123372619D01*
X113045952Y-123325000D01*
X113141190Y-123277381D01*
X112045952Y-121451667D02*
X112522143Y-121451667D01*
X111950714Y-121737381D02*
X112284047Y-120737381D01*
X112617381Y-121737381D01*
X113474524Y-121737381D02*
X112903095Y-121737381D01*
X113188809Y-121737381D02*
X113188809Y-120737381D01*
X113093571Y-120880238D01*
X112998333Y-120975476D01*
X112903095Y-121023095D01*
X112045952Y-118911667D02*
X112522143Y-118911667D01*
X111950714Y-119197381D02*
X112284047Y-118197381D01*
X112617381Y-119197381D01*
X112903095Y-118292619D02*
X112950714Y-118245000D01*
X113045952Y-118197381D01*
X113284048Y-118197381D01*
X113379286Y-118245000D01*
X113426905Y-118292619D01*
X113474524Y-118387857D01*
X113474524Y-118483095D01*
X113426905Y-118625952D01*
X112855476Y-119197381D01*
X113474524Y-119197381D01*
X112045952Y-116371667D02*
X112522143Y-116371667D01*
X111950714Y-116657381D02*
X112284047Y-115657381D01*
X112617381Y-116657381D01*
X112855476Y-115657381D02*
X113474524Y-115657381D01*
X113141190Y-116038333D01*
X113284048Y-116038333D01*
X113379286Y-116085952D01*
X113426905Y-116133571D01*
X113474524Y-116228810D01*
X113474524Y-116466905D01*
X113426905Y-116562143D01*
X113379286Y-116609762D01*
X113284048Y-116657381D01*
X112998333Y-116657381D01*
X112903095Y-116609762D01*
X112855476Y-116562143D01*
X112045952Y-113831667D02*
X112522143Y-113831667D01*
X111950714Y-114117381D02*
X112284047Y-113117381D01*
X112617381Y-114117381D01*
X113379286Y-113450714D02*
X113379286Y-114117381D01*
X113141190Y-113069762D02*
X112903095Y-113784048D01*
X113522143Y-113784048D01*
X112045952Y-111291667D02*
X112522143Y-111291667D01*
X111950714Y-111577381D02*
X112284047Y-110577381D01*
X112617381Y-111577381D01*
X113426905Y-110577381D02*
X112950714Y-110577381D01*
X112903095Y-111053571D01*
X112950714Y-111005952D01*
X113045952Y-110958333D01*
X113284048Y-110958333D01*
X113379286Y-111005952D01*
X113426905Y-111053571D01*
X113474524Y-111148810D01*
X113474524Y-111386905D01*
X113426905Y-111482143D01*
X113379286Y-111529762D01*
X113284048Y-111577381D01*
X113045952Y-111577381D01*
X112950714Y-111529762D01*
X112903095Y-111482143D01*
X112045952Y-108751667D02*
X112522143Y-108751667D01*
X111950714Y-109037381D02*
X112284047Y-108037381D01*
X112617381Y-109037381D01*
X113379286Y-108037381D02*
X113188809Y-108037381D01*
X113093571Y-108085000D01*
X113045952Y-108132619D01*
X112950714Y-108275476D01*
X112903095Y-108465952D01*
X112903095Y-108846905D01*
X112950714Y-108942143D01*
X112998333Y-108989762D01*
X113093571Y-109037381D01*
X113284048Y-109037381D01*
X113379286Y-108989762D01*
X113426905Y-108942143D01*
X113474524Y-108846905D01*
X113474524Y-108608810D01*
X113426905Y-108513571D01*
X113379286Y-108465952D01*
X113284048Y-108418333D01*
X113093571Y-108418333D01*
X112998333Y-108465952D01*
X112950714Y-108513571D01*
X112903095Y-108608810D01*
X112045952Y-106211667D02*
X112522143Y-106211667D01*
X111950714Y-106497381D02*
X112284047Y-105497381D01*
X112617381Y-106497381D01*
X112855476Y-105497381D02*
X113522143Y-105497381D01*
X113093571Y-106497381D01*
X112045952Y-103671667D02*
X112522143Y-103671667D01*
X111950714Y-103957381D02*
X112284047Y-102957381D01*
X112617381Y-103957381D01*
X113093571Y-103385952D02*
X112998333Y-103338333D01*
X112950714Y-103290714D01*
X112903095Y-103195476D01*
X112903095Y-103147857D01*
X112950714Y-103052619D01*
X112998333Y-103005000D01*
X113093571Y-102957381D01*
X113284048Y-102957381D01*
X113379286Y-103005000D01*
X113426905Y-103052619D01*
X113474524Y-103147857D01*
X113474524Y-103195476D01*
X113426905Y-103290714D01*
X113379286Y-103338333D01*
X113284048Y-103385952D01*
X113093571Y-103385952D01*
X112998333Y-103433571D01*
X112950714Y-103481190D01*
X112903095Y-103576429D01*
X112903095Y-103766905D01*
X112950714Y-103862143D01*
X112998333Y-103909762D01*
X113093571Y-103957381D01*
X113284048Y-103957381D01*
X113379286Y-103909762D01*
X113426905Y-103862143D01*
X113474524Y-103766905D01*
X113474524Y-103576429D01*
X113426905Y-103481190D01*
X113379286Y-103433571D01*
X113284048Y-103385952D01*
X112045952Y-101131667D02*
X112522143Y-101131667D01*
X111950714Y-101417381D02*
X112284047Y-100417381D01*
X112617381Y-101417381D01*
X112998333Y-101417381D02*
X113188809Y-101417381D01*
X113284048Y-101369762D01*
X113331667Y-101322143D01*
X113426905Y-101179286D01*
X113474524Y-100988810D01*
X113474524Y-100607857D01*
X113426905Y-100512619D01*
X113379286Y-100465000D01*
X113284048Y-100417381D01*
X113093571Y-100417381D01*
X112998333Y-100465000D01*
X112950714Y-100512619D01*
X112903095Y-100607857D01*
X112903095Y-100845952D01*
X112950714Y-100941190D01*
X112998333Y-100988810D01*
X113093571Y-101036429D01*
X113284048Y-101036429D01*
X113379286Y-100988810D01*
X113426905Y-100941190D01*
X113474524Y-100845952D01*
X111093571Y-98591667D02*
X111569762Y-98591667D01*
X110998333Y-98877381D02*
X111331666Y-97877381D01*
X111665000Y-98877381D01*
X112522143Y-98877381D02*
X111950714Y-98877381D01*
X112236428Y-98877381D02*
X112236428Y-97877381D01*
X112141190Y-98020238D01*
X112045952Y-98115476D01*
X111950714Y-98163095D01*
X113141190Y-97877381D02*
X113236429Y-97877381D01*
X113331667Y-97925000D01*
X113379286Y-97972619D01*
X113426905Y-98067857D01*
X113474524Y-98258333D01*
X113474524Y-98496429D01*
X113426905Y-98686905D01*
X113379286Y-98782143D01*
X113331667Y-98829762D01*
X113236429Y-98877381D01*
X113141190Y-98877381D01*
X113045952Y-98829762D01*
X112998333Y-98782143D01*
X112950714Y-98686905D01*
X112903095Y-98496429D01*
X112903095Y-98258333D01*
X112950714Y-98067857D01*
X112998333Y-97972619D01*
X113045952Y-97925000D01*
X113141190Y-97877381D01*
X111093571Y-96051667D02*
X111569762Y-96051667D01*
X110998333Y-96337381D02*
X111331666Y-95337381D01*
X111665000Y-96337381D01*
X112522143Y-96337381D02*
X111950714Y-96337381D01*
X112236428Y-96337381D02*
X112236428Y-95337381D01*
X112141190Y-95480238D01*
X112045952Y-95575476D01*
X111950714Y-95623095D01*
X113474524Y-96337381D02*
X112903095Y-96337381D01*
X113188809Y-96337381D02*
X113188809Y-95337381D01*
X113093571Y-95480238D01*
X112998333Y-95575476D01*
X112903095Y-95623095D01*
X154591048Y-92908381D02*
X154257714Y-92432190D01*
X154019619Y-92908381D02*
X154019619Y-91908381D01*
X154400572Y-91908381D01*
X154495810Y-91956000D01*
X154543429Y-92003619D01*
X154591048Y-92098857D01*
X154591048Y-92241714D01*
X154543429Y-92336952D01*
X154495810Y-92384571D01*
X154400572Y-92432190D01*
X154019619Y-92432190D01*
X155210095Y-91908381D02*
X155400572Y-91908381D01*
X155495810Y-91956000D01*
X155591048Y-92051238D01*
X155638667Y-92241714D01*
X155638667Y-92575048D01*
X155591048Y-92765524D01*
X155495810Y-92860762D01*
X155400572Y-92908381D01*
X155210095Y-92908381D01*
X155114857Y-92860762D01*
X155019619Y-92765524D01*
X154972000Y-92575048D01*
X154972000Y-92241714D01*
X155019619Y-92051238D01*
X155114857Y-91956000D01*
X155210095Y-91908381D01*
X156067238Y-92908381D02*
X156067238Y-91908381D01*
X156400572Y-92622667D01*
X156733905Y-91908381D01*
X156733905Y-92908381D01*
X131667524Y-102560381D02*
X131334190Y-102084190D01*
X131096095Y-102560381D02*
X131096095Y-101560381D01*
X131477048Y-101560381D01*
X131572286Y-101608000D01*
X131619905Y-101655619D01*
X131667524Y-101750857D01*
X131667524Y-101893714D01*
X131619905Y-101988952D01*
X131572286Y-102036571D01*
X131477048Y-102084190D01*
X131096095Y-102084190D01*
X132048476Y-102274667D02*
X132524667Y-102274667D01*
X131953238Y-102560381D02*
X132286571Y-101560381D01*
X132619905Y-102560381D01*
X132953238Y-102560381D02*
X132953238Y-101560381D01*
X133286572Y-102274667D01*
X133619905Y-101560381D01*
X133619905Y-102560381D01*
X100743143Y-93432381D02*
X100552666Y-93432381D01*
X100457428Y-93480000D01*
X100409809Y-93527619D01*
X100314571Y-93670476D01*
X100266952Y-93860952D01*
X100266952Y-94241905D01*
X100314571Y-94337143D01*
X100362190Y-94384762D01*
X100457428Y-94432381D01*
X100647905Y-94432381D01*
X100743143Y-94384762D01*
X100790762Y-94337143D01*
X100838381Y-94241905D01*
X100838381Y-94003810D01*
X100790762Y-93908571D01*
X100743143Y-93860952D01*
X100647905Y-93813333D01*
X100457428Y-93813333D01*
X100362190Y-93860952D01*
X100314571Y-93908571D01*
X100266952Y-94003810D01*
X101743143Y-93432381D02*
X101266952Y-93432381D01*
X101219333Y-93908571D01*
X101266952Y-93860952D01*
X101362190Y-93813333D01*
X101600286Y-93813333D01*
X101695524Y-93860952D01*
X101743143Y-93908571D01*
X101790762Y-94003810D01*
X101790762Y-94241905D01*
X101743143Y-94337143D01*
X101695524Y-94384762D01*
X101600286Y-94432381D01*
X101362190Y-94432381D01*
X101266952Y-94384762D01*
X101219333Y-94337143D01*
X102409809Y-93432381D02*
X102505048Y-93432381D01*
X102600286Y-93480000D01*
X102647905Y-93527619D01*
X102695524Y-93622857D01*
X102743143Y-93813333D01*
X102743143Y-94051429D01*
X102695524Y-94241905D01*
X102647905Y-94337143D01*
X102600286Y-94384762D01*
X102505048Y-94432381D01*
X102409809Y-94432381D01*
X102314571Y-94384762D01*
X102266952Y-94337143D01*
X102219333Y-94241905D01*
X102171714Y-94051429D01*
X102171714Y-93813333D01*
X102219333Y-93622857D01*
X102266952Y-93527619D01*
X102314571Y-93480000D01*
X102409809Y-93432381D01*
X103124095Y-93527619D02*
X103171714Y-93480000D01*
X103266952Y-93432381D01*
X103505048Y-93432381D01*
X103600286Y-93480000D01*
X103647905Y-93527619D01*
X103695524Y-93622857D01*
X103695524Y-93718095D01*
X103647905Y-93860952D01*
X103076476Y-94432381D01*
X103695524Y-94432381D01*
X83185238Y-144597381D02*
X82851904Y-144121190D01*
X82613809Y-144597381D02*
X82613809Y-143597381D01*
X82994762Y-143597381D01*
X83090000Y-143645000D01*
X83137619Y-143692619D01*
X83185238Y-143787857D01*
X83185238Y-143930714D01*
X83137619Y-144025952D01*
X83090000Y-144073571D01*
X82994762Y-144121190D01*
X82613809Y-144121190D01*
X83566190Y-144549762D02*
X83709047Y-144597381D01*
X83947143Y-144597381D01*
X84042381Y-144549762D01*
X84090000Y-144502143D01*
X84137619Y-144406905D01*
X84137619Y-144311667D01*
X84090000Y-144216429D01*
X84042381Y-144168810D01*
X83947143Y-144121190D01*
X83756666Y-144073571D01*
X83661428Y-144025952D01*
X83613809Y-143978333D01*
X83566190Y-143883095D01*
X83566190Y-143787857D01*
X83613809Y-143692619D01*
X83661428Y-143645000D01*
X83756666Y-143597381D01*
X83994762Y-143597381D01*
X84137619Y-143645000D01*
X84423333Y-143597381D02*
X84994762Y-143597381D01*
X84709047Y-144597381D02*
X84709047Y-143597381D01*
X83375714Y-142057381D02*
X83375714Y-141057381D01*
X83756667Y-141057381D01*
X83851905Y-141105000D01*
X83899524Y-141152619D01*
X83947143Y-141247857D01*
X83947143Y-141390714D01*
X83899524Y-141485952D01*
X83851905Y-141533571D01*
X83756667Y-141581190D01*
X83375714Y-141581190D01*
X84328095Y-141152619D02*
X84375714Y-141105000D01*
X84470952Y-141057381D01*
X84709048Y-141057381D01*
X84804286Y-141105000D01*
X84851905Y-141152619D01*
X84899524Y-141247857D01*
X84899524Y-141343095D01*
X84851905Y-141485952D01*
X84280476Y-142057381D01*
X84899524Y-142057381D01*
X83280476Y-139469762D02*
X83423333Y-139517381D01*
X83661429Y-139517381D01*
X83756667Y-139469762D01*
X83804286Y-139422143D01*
X83851905Y-139326905D01*
X83851905Y-139231667D01*
X83804286Y-139136429D01*
X83756667Y-139088810D01*
X83661429Y-139041190D01*
X83470952Y-138993571D01*
X83375714Y-138945952D01*
X83328095Y-138898333D01*
X83280476Y-138803095D01*
X83280476Y-138707857D01*
X83328095Y-138612619D01*
X83375714Y-138565000D01*
X83470952Y-138517381D01*
X83709048Y-138517381D01*
X83851905Y-138565000D01*
X84470952Y-138517381D02*
X84661429Y-138517381D01*
X84756667Y-138565000D01*
X84851905Y-138660238D01*
X84899524Y-138850714D01*
X84899524Y-139184048D01*
X84851905Y-139374524D01*
X84756667Y-139469762D01*
X84661429Y-139517381D01*
X84470952Y-139517381D01*
X84375714Y-139469762D01*
X84280476Y-139374524D01*
X84232857Y-139184048D01*
X84232857Y-138850714D01*
X84280476Y-138660238D01*
X84375714Y-138565000D01*
X84470952Y-138517381D01*
X83899524Y-136882143D02*
X83851905Y-136929762D01*
X83709048Y-136977381D01*
X83613810Y-136977381D01*
X83470952Y-136929762D01*
X83375714Y-136834524D01*
X83328095Y-136739286D01*
X83280476Y-136548810D01*
X83280476Y-136405952D01*
X83328095Y-136215476D01*
X83375714Y-136120238D01*
X83470952Y-136025000D01*
X83613810Y-135977381D01*
X83709048Y-135977381D01*
X83851905Y-136025000D01*
X83899524Y-136072619D01*
X84328095Y-136977381D02*
X84328095Y-135977381D01*
X84899524Y-136977381D02*
X84470952Y-136405952D01*
X84899524Y-135977381D02*
X84328095Y-136548810D01*
X83756667Y-133913571D02*
X83899524Y-133961190D01*
X83947143Y-134008810D01*
X83994762Y-134104048D01*
X83994762Y-134246905D01*
X83947143Y-134342143D01*
X83899524Y-134389762D01*
X83804286Y-134437381D01*
X83423333Y-134437381D01*
X83423333Y-133437381D01*
X83756667Y-133437381D01*
X83851905Y-133485000D01*
X83899524Y-133532619D01*
X83947143Y-133627857D01*
X83947143Y-133723095D01*
X83899524Y-133818333D01*
X83851905Y-133865952D01*
X83756667Y-133913571D01*
X83423333Y-133913571D01*
X84423333Y-133913571D02*
X84756667Y-133913571D01*
X84899524Y-134437381D02*
X84423333Y-134437381D01*
X84423333Y-133437381D01*
X84899524Y-133437381D01*
X83280476Y-131897381D02*
X83280476Y-130897381D01*
X83851905Y-131897381D01*
X83851905Y-130897381D01*
X84899524Y-131802143D02*
X84851905Y-131849762D01*
X84709048Y-131897381D01*
X84613810Y-131897381D01*
X84470952Y-131849762D01*
X84375714Y-131754524D01*
X84328095Y-131659286D01*
X84280476Y-131468810D01*
X84280476Y-131325952D01*
X84328095Y-131135476D01*
X84375714Y-131040238D01*
X84470952Y-130945000D01*
X84613810Y-130897381D01*
X84709048Y-130897381D01*
X84851905Y-130945000D01*
X84899524Y-130992619D01*
X83756667Y-129357381D02*
X83423333Y-128881190D01*
X83185238Y-129357381D02*
X83185238Y-128357381D01*
X83566191Y-128357381D01*
X83661429Y-128405000D01*
X83709048Y-128452619D01*
X83756667Y-128547857D01*
X83756667Y-128690714D01*
X83709048Y-128785952D01*
X83661429Y-128833571D01*
X83566191Y-128881190D01*
X83185238Y-128881190D01*
X84090000Y-128357381D02*
X84328095Y-129357381D01*
X84518572Y-128643095D01*
X84709048Y-129357381D01*
X84947143Y-128357381D01*
X83375714Y-126817381D02*
X83375714Y-125817381D01*
X83613809Y-125817381D01*
X83756667Y-125865000D01*
X83851905Y-125960238D01*
X83899524Y-126055476D01*
X83947143Y-126245952D01*
X83947143Y-126388810D01*
X83899524Y-126579286D01*
X83851905Y-126674524D01*
X83756667Y-126769762D01*
X83613809Y-126817381D01*
X83375714Y-126817381D01*
X84566190Y-125817381D02*
X84661429Y-125817381D01*
X84756667Y-125865000D01*
X84804286Y-125912619D01*
X84851905Y-126007857D01*
X84899524Y-126198333D01*
X84899524Y-126436429D01*
X84851905Y-126626905D01*
X84804286Y-126722143D01*
X84756667Y-126769762D01*
X84661429Y-126817381D01*
X84566190Y-126817381D01*
X84470952Y-126769762D01*
X84423333Y-126722143D01*
X84375714Y-126626905D01*
X84328095Y-126436429D01*
X84328095Y-126198333D01*
X84375714Y-126007857D01*
X84423333Y-125912619D01*
X84470952Y-125865000D01*
X84566190Y-125817381D01*
X83375714Y-124277381D02*
X83375714Y-123277381D01*
X83613809Y-123277381D01*
X83756667Y-123325000D01*
X83851905Y-123420238D01*
X83899524Y-123515476D01*
X83947143Y-123705952D01*
X83947143Y-123848810D01*
X83899524Y-124039286D01*
X83851905Y-124134524D01*
X83756667Y-124229762D01*
X83613809Y-124277381D01*
X83375714Y-124277381D01*
X84899524Y-124277381D02*
X84328095Y-124277381D01*
X84613809Y-124277381D02*
X84613809Y-123277381D01*
X84518571Y-123420238D01*
X84423333Y-123515476D01*
X84328095Y-123563095D01*
X83375714Y-121737381D02*
X83375714Y-120737381D01*
X83613809Y-120737381D01*
X83756667Y-120785000D01*
X83851905Y-120880238D01*
X83899524Y-120975476D01*
X83947143Y-121165952D01*
X83947143Y-121308810D01*
X83899524Y-121499286D01*
X83851905Y-121594524D01*
X83756667Y-121689762D01*
X83613809Y-121737381D01*
X83375714Y-121737381D01*
X84328095Y-120832619D02*
X84375714Y-120785000D01*
X84470952Y-120737381D01*
X84709048Y-120737381D01*
X84804286Y-120785000D01*
X84851905Y-120832619D01*
X84899524Y-120927857D01*
X84899524Y-121023095D01*
X84851905Y-121165952D01*
X84280476Y-121737381D01*
X84899524Y-121737381D01*
X83375714Y-119197381D02*
X83375714Y-118197381D01*
X83613809Y-118197381D01*
X83756667Y-118245000D01*
X83851905Y-118340238D01*
X83899524Y-118435476D01*
X83947143Y-118625952D01*
X83947143Y-118768810D01*
X83899524Y-118959286D01*
X83851905Y-119054524D01*
X83756667Y-119149762D01*
X83613809Y-119197381D01*
X83375714Y-119197381D01*
X84280476Y-118197381D02*
X84899524Y-118197381D01*
X84566190Y-118578333D01*
X84709048Y-118578333D01*
X84804286Y-118625952D01*
X84851905Y-118673571D01*
X84899524Y-118768810D01*
X84899524Y-119006905D01*
X84851905Y-119102143D01*
X84804286Y-119149762D01*
X84709048Y-119197381D01*
X84423333Y-119197381D01*
X84328095Y-119149762D01*
X84280476Y-119102143D01*
X83375714Y-116657381D02*
X83375714Y-115657381D01*
X83613809Y-115657381D01*
X83756667Y-115705000D01*
X83851905Y-115800238D01*
X83899524Y-115895476D01*
X83947143Y-116085952D01*
X83947143Y-116228810D01*
X83899524Y-116419286D01*
X83851905Y-116514524D01*
X83756667Y-116609762D01*
X83613809Y-116657381D01*
X83375714Y-116657381D01*
X84804286Y-115990714D02*
X84804286Y-116657381D01*
X84566190Y-115609762D02*
X84328095Y-116324048D01*
X84947143Y-116324048D01*
X83375714Y-114117381D02*
X83375714Y-113117381D01*
X83613809Y-113117381D01*
X83756667Y-113165000D01*
X83851905Y-113260238D01*
X83899524Y-113355476D01*
X83947143Y-113545952D01*
X83947143Y-113688810D01*
X83899524Y-113879286D01*
X83851905Y-113974524D01*
X83756667Y-114069762D01*
X83613809Y-114117381D01*
X83375714Y-114117381D01*
X84851905Y-113117381D02*
X84375714Y-113117381D01*
X84328095Y-113593571D01*
X84375714Y-113545952D01*
X84470952Y-113498333D01*
X84709048Y-113498333D01*
X84804286Y-113545952D01*
X84851905Y-113593571D01*
X84899524Y-113688810D01*
X84899524Y-113926905D01*
X84851905Y-114022143D01*
X84804286Y-114069762D01*
X84709048Y-114117381D01*
X84470952Y-114117381D01*
X84375714Y-114069762D01*
X84328095Y-114022143D01*
X83375714Y-111577381D02*
X83375714Y-110577381D01*
X83613809Y-110577381D01*
X83756667Y-110625000D01*
X83851905Y-110720238D01*
X83899524Y-110815476D01*
X83947143Y-111005952D01*
X83947143Y-111148810D01*
X83899524Y-111339286D01*
X83851905Y-111434524D01*
X83756667Y-111529762D01*
X83613809Y-111577381D01*
X83375714Y-111577381D01*
X84804286Y-110577381D02*
X84613809Y-110577381D01*
X84518571Y-110625000D01*
X84470952Y-110672619D01*
X84375714Y-110815476D01*
X84328095Y-111005952D01*
X84328095Y-111386905D01*
X84375714Y-111482143D01*
X84423333Y-111529762D01*
X84518571Y-111577381D01*
X84709048Y-111577381D01*
X84804286Y-111529762D01*
X84851905Y-111482143D01*
X84899524Y-111386905D01*
X84899524Y-111148810D01*
X84851905Y-111053571D01*
X84804286Y-111005952D01*
X84709048Y-110958333D01*
X84518571Y-110958333D01*
X84423333Y-111005952D01*
X84375714Y-111053571D01*
X84328095Y-111148810D01*
X83375714Y-109037381D02*
X83375714Y-108037381D01*
X83613809Y-108037381D01*
X83756667Y-108085000D01*
X83851905Y-108180238D01*
X83899524Y-108275476D01*
X83947143Y-108465952D01*
X83947143Y-108608810D01*
X83899524Y-108799286D01*
X83851905Y-108894524D01*
X83756667Y-108989762D01*
X83613809Y-109037381D01*
X83375714Y-109037381D01*
X84280476Y-108037381D02*
X84947143Y-108037381D01*
X84518571Y-109037381D01*
X82518571Y-106211667D02*
X82994762Y-106211667D01*
X82423333Y-106497381D02*
X82756666Y-105497381D01*
X83090000Y-106497381D01*
X83947143Y-106497381D02*
X83375714Y-106497381D01*
X83661428Y-106497381D02*
X83661428Y-105497381D01*
X83566190Y-105640238D01*
X83470952Y-105735476D01*
X83375714Y-105783095D01*
X84851905Y-105497381D02*
X84375714Y-105497381D01*
X84328095Y-105973571D01*
X84375714Y-105925952D01*
X84470952Y-105878333D01*
X84709048Y-105878333D01*
X84804286Y-105925952D01*
X84851905Y-105973571D01*
X84899524Y-106068810D01*
X84899524Y-106306905D01*
X84851905Y-106402143D01*
X84804286Y-106449762D01*
X84709048Y-106497381D01*
X84470952Y-106497381D01*
X84375714Y-106449762D01*
X84328095Y-106402143D01*
X82518571Y-103671667D02*
X82994762Y-103671667D01*
X82423333Y-103957381D02*
X82756666Y-102957381D01*
X83090000Y-103957381D01*
X83947143Y-103957381D02*
X83375714Y-103957381D01*
X83661428Y-103957381D02*
X83661428Y-102957381D01*
X83566190Y-103100238D01*
X83470952Y-103195476D01*
X83375714Y-103243095D01*
X84804286Y-103290714D02*
X84804286Y-103957381D01*
X84566190Y-102909762D02*
X84328095Y-103624048D01*
X84947143Y-103624048D01*
X82518571Y-101131667D02*
X82994762Y-101131667D01*
X82423333Y-101417381D02*
X82756666Y-100417381D01*
X83090000Y-101417381D01*
X83947143Y-101417381D02*
X83375714Y-101417381D01*
X83661428Y-101417381D02*
X83661428Y-100417381D01*
X83566190Y-100560238D01*
X83470952Y-100655476D01*
X83375714Y-100703095D01*
X84280476Y-100417381D02*
X84899524Y-100417381D01*
X84566190Y-100798333D01*
X84709048Y-100798333D01*
X84804286Y-100845952D01*
X84851905Y-100893571D01*
X84899524Y-100988810D01*
X84899524Y-101226905D01*
X84851905Y-101322143D01*
X84804286Y-101369762D01*
X84709048Y-101417381D01*
X84423333Y-101417381D01*
X84328095Y-101369762D01*
X84280476Y-101322143D01*
X82518571Y-98591667D02*
X82994762Y-98591667D01*
X82423333Y-98877381D02*
X82756666Y-97877381D01*
X83090000Y-98877381D01*
X83947143Y-98877381D02*
X83375714Y-98877381D01*
X83661428Y-98877381D02*
X83661428Y-97877381D01*
X83566190Y-98020238D01*
X83470952Y-98115476D01*
X83375714Y-98163095D01*
X84328095Y-97972619D02*
X84375714Y-97925000D01*
X84470952Y-97877381D01*
X84709048Y-97877381D01*
X84804286Y-97925000D01*
X84851905Y-97972619D01*
X84899524Y-98067857D01*
X84899524Y-98163095D01*
X84851905Y-98305952D01*
X84280476Y-98877381D01*
X84899524Y-98877381D01*
X82804286Y-95385000D02*
X82709048Y-95337381D01*
X82566191Y-95337381D01*
X82423333Y-95385000D01*
X82328095Y-95480238D01*
X82280476Y-95575476D01*
X82232857Y-95765952D01*
X82232857Y-95908810D01*
X82280476Y-96099286D01*
X82328095Y-96194524D01*
X82423333Y-96289762D01*
X82566191Y-96337381D01*
X82661429Y-96337381D01*
X82804286Y-96289762D01*
X82851905Y-96242143D01*
X82851905Y-95908810D01*
X82661429Y-95908810D01*
X83280476Y-96337381D02*
X83280476Y-95337381D01*
X83851905Y-96337381D01*
X83851905Y-95337381D01*
X84328095Y-96337381D02*
X84328095Y-95337381D01*
X84566190Y-95337381D01*
X84709048Y-95385000D01*
X84804286Y-95480238D01*
X84851905Y-95575476D01*
X84899524Y-95765952D01*
X84899524Y-95908810D01*
X84851905Y-96099286D01*
X84804286Y-96194524D01*
X84709048Y-96289762D01*
X84566190Y-96337381D01*
X84328095Y-96337381D01*
X126500000Y-150368095D02*
X126452381Y-150463333D01*
X126452381Y-150606190D01*
X126500000Y-150749048D01*
X126595238Y-150844286D01*
X126690476Y-150891905D01*
X126880952Y-150939524D01*
X127023810Y-150939524D01*
X127214286Y-150891905D01*
X127309524Y-150844286D01*
X127404762Y-150749048D01*
X127452381Y-150606190D01*
X127452381Y-150510952D01*
X127404762Y-150368095D01*
X127357143Y-150320476D01*
X127023810Y-150320476D01*
X127023810Y-150510952D01*
X127452381Y-149891905D02*
X126452381Y-149891905D01*
X127452381Y-149320476D01*
X126452381Y-149320476D01*
X127452381Y-148844286D02*
X126452381Y-148844286D01*
X126452381Y-148606191D01*
X126500000Y-148463333D01*
X126595238Y-148368095D01*
X126690476Y-148320476D01*
X126880952Y-148272857D01*
X127023810Y-148272857D01*
X127214286Y-148320476D01*
X127309524Y-148368095D01*
X127404762Y-148463333D01*
X127452381Y-148606191D01*
X127452381Y-148844286D01*
X128992381Y-150415714D02*
X128992381Y-150891905D01*
X129468571Y-150939524D01*
X129420952Y-150891905D01*
X129373333Y-150796667D01*
X129373333Y-150558571D01*
X129420952Y-150463333D01*
X129468571Y-150415714D01*
X129563810Y-150368095D01*
X129801905Y-150368095D01*
X129897143Y-150415714D01*
X129944762Y-150463333D01*
X129992381Y-150558571D01*
X129992381Y-150796667D01*
X129944762Y-150891905D01*
X129897143Y-150939524D01*
X128992381Y-150082381D02*
X129992381Y-149749048D01*
X128992381Y-149415714D01*
X165481000Y-153035000D02*
G75*
G03X165481000Y-153035000I-2286000J0D01*
G01*
X165481000Y-88265000D02*
G75*
G03X165481000Y-88265000I-2286000J0D01*
G01*
X77851000Y-153035000D02*
G75*
G03X77851000Y-153035000I-2286000J0D01*
G01*
X108732000Y-126742000D02*
X108732000Y-123742000D01*
X111232000Y-123742000D02*
X111232000Y-126742000D01*
X82165000Y-126345000D02*
X79165000Y-126345000D01*
X79165000Y-123845000D02*
X82165000Y-123845000D01*
X165715000Y-101350000D02*
X165715000Y-104350000D01*
X163215000Y-104350000D02*
X163215000Y-101350000D01*
X138410000Y-98810000D02*
X138410000Y-101810000D01*
X135910000Y-101810000D02*
X135910000Y-98810000D01*
X100905000Y-147320000D02*
X101155000Y-147320000D01*
X93405000Y-147320000D02*
X93155000Y-147320000D01*
X94655000Y-146570000D02*
X94655000Y-148070000D01*
X94655000Y-148070000D02*
X99655000Y-148070000D01*
X99655000Y-148070000D02*
X99655000Y-146570000D01*
X99655000Y-146570000D02*
X94655000Y-146570000D01*
X99695000Y-147320000D02*
X100965000Y-147320000D01*
X94615000Y-147320000D02*
X93345000Y-147320000D01*
X98065000Y-144895000D02*
X98065000Y-143145000D01*
X98065000Y-143145000D02*
X101815000Y-143145000D01*
X101815000Y-143145000D02*
X101815000Y-144895000D01*
X93619000Y-144937000D02*
X93619000Y-95153000D01*
X93619000Y-95153000D02*
X105811000Y-95153000D01*
X105811000Y-95153000D02*
X105811000Y-144937000D01*
X105811000Y-144937000D02*
X93619000Y-144937000D01*
X142519400Y-93599000D02*
X141884400Y-93599000D01*
X139725400Y-94996000D02*
X139471400Y-92049600D01*
X141757400Y-95021400D02*
X141986000Y-92075000D01*
X141986000Y-92049600D02*
G75*
G03X139446000Y-92049600I-1270000J-1270000D01*
G01*
X141706600Y-94970600D02*
X139750800Y-94970600D01*
X159994600Y-93599000D02*
X142544800Y-93599000D01*
X141732000Y-99085400D02*
X141732000Y-94970600D01*
X139700000Y-96139000D02*
X139700000Y-94996000D01*
X141732000Y-99060000D02*
X139700000Y-99060000D01*
X139700000Y-141859000D02*
X139700000Y-96139000D01*
X141732000Y-144399000D02*
X160020000Y-144399000D01*
X139700000Y-141859000D02*
G75*
G03X141732000Y-144399000I2286000J-254000D01*
G01*
X160020000Y-144399000D02*
G75*
G03X162560000Y-141859000I0J2540000D01*
G01*
X162560000Y-96139000D02*
G75*
G03X160020000Y-93599000I-2540000J0D01*
G01*
X162560000Y-96139000D02*
X162560000Y-141859000D01*
X162560000Y-96139000D02*
X162560000Y-141859000D01*
X162560000Y-96139000D02*
G75*
G03X160020000Y-93599000I-2540000J0D01*
G01*
X160020000Y-144399000D02*
G75*
G03X162560000Y-141859000I0J2540000D01*
G01*
X160020000Y-144399000D02*
G75*
G03X162560000Y-141859000I0J2540000D01*
G01*
X162560000Y-96139000D02*
G75*
G03X160020000Y-93599000I-2540000J0D01*
G01*
X162560000Y-96139000D02*
X162560000Y-141859000D01*
X162560000Y-96139000D02*
X162560000Y-141859000D01*
X162560000Y-96139000D02*
G75*
G03X160020000Y-93599000I-2540000J0D01*
G01*
X160020000Y-144399000D02*
G75*
G03X162560000Y-141859000I0J2540000D01*
G01*
X160020000Y-144399000D02*
G75*
G03X162560000Y-141859000I0J2540000D01*
G01*
X162560000Y-96139000D02*
G75*
G03X160020000Y-93599000I-2540000J0D01*
G01*
X162560000Y-96139000D02*
X162560000Y-141859000D01*
X162560000Y-96139000D02*
X162560000Y-141859000D01*
X162560000Y-96139000D02*
G75*
G03X160020000Y-93599000I-2540000J0D01*
G01*
X160020000Y-144399000D02*
G75*
G03X162560000Y-141859000I0J2540000D01*
G01*
X160020000Y-144399000D02*
G75*
G03X162560000Y-141859000I0J2540000D01*
G01*
X162560000Y-96139000D02*
G75*
G03X160020000Y-93599000I-2540000J0D01*
G01*
X162560000Y-96139000D02*
X162560000Y-141859000D01*
X162560000Y-96139000D02*
X162560000Y-141859000D01*
X162560000Y-96139000D02*
G75*
G03X160020000Y-93599000I-2540000J0D01*
G01*
X160020000Y-144399000D02*
G75*
G03X162560000Y-141859000I0J2540000D01*
G01*
X131546600Y-103352600D02*
X131546600Y-104749600D01*
X131546600Y-104749600D02*
X127660400Y-104749600D01*
X127660400Y-104749600D02*
X127660400Y-103428800D01*
X135636000Y-103378000D02*
X135636000Y-137414000D01*
X135636000Y-137414000D02*
X123444000Y-137414000D01*
X123444000Y-137414000D02*
X123444000Y-103378000D01*
X123444000Y-103378000D02*
X135636000Y-103378000D01*
X130790000Y-144530000D02*
X130790000Y-147530000D01*
X128290000Y-147530000D02*
X128290000Y-144530000D01*
X128270000Y-152400000D02*
X130810000Y-152400000D01*
X125450000Y-152120000D02*
X127000000Y-152120000D01*
X128270000Y-152400000D02*
X128270000Y-154940000D01*
X127000000Y-155220000D02*
X125450000Y-155220000D01*
X125450000Y-155220000D02*
X125450000Y-152120000D01*
X128270000Y-154940000D02*
X130810000Y-154940000D01*
X130810000Y-154940000D02*
X130810000Y-152400000D01*
X90170000Y-142885000D02*
X90170000Y-145415000D01*
X90170000Y-145415000D02*
X87590000Y-145415000D01*
X85090000Y-94615000D02*
X85090000Y-145415000D01*
X90170000Y-142875000D02*
X90170000Y-94615000D01*
X85090000Y-94615000D02*
X90170000Y-94615000D01*
X85090000Y-145415000D02*
X87630000Y-145415000D01*
X96723200Y-89458800D02*
X109423200Y-89458800D01*
X109423200Y-89458800D02*
X109423200Y-91998800D01*
X109423200Y-91998800D02*
X96723200Y-91998800D01*
X93903200Y-89178800D02*
X95453200Y-89178800D01*
X96723200Y-89458800D02*
X96723200Y-91998800D01*
X95453200Y-92278800D02*
X93903200Y-92278800D01*
X93903200Y-92278800D02*
X93903200Y-89178800D01*
X118745000Y-142885000D02*
X118745000Y-145415000D01*
X118745000Y-145415000D02*
X116165000Y-145415000D01*
X113665000Y-94615000D02*
X113665000Y-145415000D01*
X118745000Y-142875000D02*
X118745000Y-94615000D01*
X113665000Y-94615000D02*
X118745000Y-94615000D01*
X113665000Y-145415000D02*
X116205000Y-145415000D01*
X77851000Y-88265000D02*
G75*
G03X77851000Y-88265000I-2286000J0D01*
G01*
X77241400Y-128600200D02*
X76835000Y-128625600D01*
X76835000Y-128625600D02*
X77419200Y-128524000D01*
X77419200Y-128524000D02*
X76758800Y-128524000D01*
X76758800Y-128524000D02*
X77368400Y-128397000D01*
X77368400Y-128397000D02*
X76708000Y-128371600D01*
X76708000Y-128371600D02*
X77470000Y-128270000D01*
X77470000Y-128270000D02*
X76733400Y-128270000D01*
X76733400Y-128270000D02*
X77292200Y-128092200D01*
X77292200Y-128092200D02*
X77063600Y-127990600D01*
X77063600Y-127990600D02*
X76809600Y-128117600D01*
X76809600Y-128117600D02*
X76657200Y-128117600D01*
X76657200Y-128117600D02*
X77419200Y-128168400D01*
X77481792Y-128346200D02*
G75*
G03X77481792Y-128346200I-443592J0D01*
G01*
X83195000Y-127605000D02*
X83195000Y-137705000D01*
X73095000Y-127605000D02*
X73095000Y-137705000D01*
X83195000Y-137705000D02*
X73095000Y-137705000D01*
X83195000Y-127605000D02*
X73095000Y-127605000D01*
X109815334Y-122404143D02*
X109767715Y-122451762D01*
X109624858Y-122499381D01*
X109529620Y-122499381D01*
X109386762Y-122451762D01*
X109291524Y-122356524D01*
X109243905Y-122261286D01*
X109196286Y-122070810D01*
X109196286Y-121927952D01*
X109243905Y-121737476D01*
X109291524Y-121642238D01*
X109386762Y-121547000D01*
X109529620Y-121499381D01*
X109624858Y-121499381D01*
X109767715Y-121547000D01*
X109815334Y-121594619D01*
X110767715Y-122499381D02*
X110196286Y-122499381D01*
X110482000Y-122499381D02*
X110482000Y-121499381D01*
X110386762Y-121642238D01*
X110291524Y-121737476D01*
X110196286Y-121785095D01*
X79843334Y-122912143D02*
X79795715Y-122959762D01*
X79652858Y-123007381D01*
X79557620Y-123007381D01*
X79414762Y-122959762D01*
X79319524Y-122864524D01*
X79271905Y-122769286D01*
X79224286Y-122578810D01*
X79224286Y-122435952D01*
X79271905Y-122245476D01*
X79319524Y-122150238D01*
X79414762Y-122055000D01*
X79557620Y-122007381D01*
X79652858Y-122007381D01*
X79795715Y-122055000D01*
X79843334Y-122102619D01*
X80224286Y-122102619D02*
X80271905Y-122055000D01*
X80367143Y-122007381D01*
X80605239Y-122007381D01*
X80700477Y-122055000D01*
X80748096Y-122102619D01*
X80795715Y-122197857D01*
X80795715Y-122293095D01*
X80748096Y-122435952D01*
X80176667Y-123007381D01*
X80795715Y-123007381D01*
X164298334Y-100052143D02*
X164250715Y-100099762D01*
X164107858Y-100147381D01*
X164012620Y-100147381D01*
X163869762Y-100099762D01*
X163774524Y-100004524D01*
X163726905Y-99909286D01*
X163679286Y-99718810D01*
X163679286Y-99575952D01*
X163726905Y-99385476D01*
X163774524Y-99290238D01*
X163869762Y-99195000D01*
X164012620Y-99147381D01*
X164107858Y-99147381D01*
X164250715Y-99195000D01*
X164298334Y-99242619D01*
X164631667Y-99147381D02*
X165250715Y-99147381D01*
X164917381Y-99528333D01*
X165060239Y-99528333D01*
X165155477Y-99575952D01*
X165203096Y-99623571D01*
X165250715Y-99718810D01*
X165250715Y-99956905D01*
X165203096Y-100052143D01*
X165155477Y-100099762D01*
X165060239Y-100147381D01*
X164774524Y-100147381D01*
X164679286Y-100099762D01*
X164631667Y-100052143D01*
X136993334Y-97512143D02*
X136945715Y-97559762D01*
X136802858Y-97607381D01*
X136707620Y-97607381D01*
X136564762Y-97559762D01*
X136469524Y-97464524D01*
X136421905Y-97369286D01*
X136374286Y-97178810D01*
X136374286Y-97035952D01*
X136421905Y-96845476D01*
X136469524Y-96750238D01*
X136564762Y-96655000D01*
X136707620Y-96607381D01*
X136802858Y-96607381D01*
X136945715Y-96655000D01*
X136993334Y-96702619D01*
X137850477Y-96940714D02*
X137850477Y-97607381D01*
X137612381Y-96559762D02*
X137374286Y-97274048D01*
X137993334Y-97274048D01*
X96988334Y-149677381D02*
X96655000Y-149201190D01*
X96416905Y-149677381D02*
X96416905Y-148677381D01*
X96797858Y-148677381D01*
X96893096Y-148725000D01*
X96940715Y-148772619D01*
X96988334Y-148867857D01*
X96988334Y-149010714D01*
X96940715Y-149105952D01*
X96893096Y-149153571D01*
X96797858Y-149201190D01*
X96416905Y-149201190D01*
X97940715Y-149677381D02*
X97369286Y-149677381D01*
X97655000Y-149677381D02*
X97655000Y-148677381D01*
X97559762Y-148820238D01*
X97464524Y-148915476D01*
X97369286Y-148963095D01*
X80160762Y-152463333D02*
X80208381Y-152320476D01*
X80208381Y-152082380D01*
X80160762Y-151987142D01*
X80113143Y-151939523D01*
X80017905Y-151891904D01*
X79922667Y-151891904D01*
X79827429Y-151939523D01*
X79779810Y-151987142D01*
X79732190Y-152082380D01*
X79684571Y-152272857D01*
X79636952Y-152368095D01*
X79589333Y-152415714D01*
X79494095Y-152463333D01*
X79398857Y-152463333D01*
X79303619Y-152415714D01*
X79256000Y-152368095D01*
X79208381Y-152272857D01*
X79208381Y-152034761D01*
X79256000Y-151891904D01*
X79208381Y-151558571D02*
X80208381Y-151320476D01*
X79494095Y-151129999D01*
X80208381Y-150939523D01*
X79208381Y-150701428D01*
X80208381Y-149796666D02*
X80208381Y-150368095D01*
X80208381Y-150082381D02*
X79208381Y-150082381D01*
X79351238Y-150177619D01*
X79446476Y-150272857D01*
X79494095Y-150368095D01*
X94996095Y-93432381D02*
X94996095Y-94241905D01*
X95043714Y-94337143D01*
X95091333Y-94384762D01*
X95186571Y-94432381D01*
X95377048Y-94432381D01*
X95472286Y-94384762D01*
X95519905Y-94337143D01*
X95567524Y-94241905D01*
X95567524Y-93432381D01*
X96567524Y-94432381D02*
X95996095Y-94432381D01*
X96281809Y-94432381D02*
X96281809Y-93432381D01*
X96186571Y-93575238D01*
X96091333Y-93670476D01*
X95996095Y-93718095D01*
X143510095Y-91908381D02*
X143510095Y-92717905D01*
X143557714Y-92813143D01*
X143605333Y-92860762D01*
X143700571Y-92908381D01*
X143891048Y-92908381D01*
X143986286Y-92860762D01*
X144033905Y-92813143D01*
X144081524Y-92717905D01*
X144081524Y-91908381D01*
X144510095Y-92003619D02*
X144557714Y-91956000D01*
X144652952Y-91908381D01*
X144891048Y-91908381D01*
X144986286Y-91956000D01*
X145033905Y-92003619D01*
X145081524Y-92098857D01*
X145081524Y-92194095D01*
X145033905Y-92336952D01*
X144462476Y-92908381D01*
X145081524Y-92908381D01*
X124460095Y-101560381D02*
X124460095Y-102369905D01*
X124507714Y-102465143D01*
X124555333Y-102512762D01*
X124650571Y-102560381D01*
X124841048Y-102560381D01*
X124936286Y-102512762D01*
X124983905Y-102465143D01*
X125031524Y-102369905D01*
X125031524Y-101560381D01*
X125412476Y-101560381D02*
X126031524Y-101560381D01*
X125698190Y-101941333D01*
X125841048Y-101941333D01*
X125936286Y-101988952D01*
X125983905Y-102036571D01*
X126031524Y-102131810D01*
X126031524Y-102369905D01*
X125983905Y-102465143D01*
X125936286Y-102512762D01*
X125841048Y-102560381D01*
X125555333Y-102560381D01*
X125460095Y-102512762D01*
X125412476Y-102465143D01*
X129373334Y-142597143D02*
X129325715Y-142644762D01*
X129182858Y-142692381D01*
X129087620Y-142692381D01*
X128944762Y-142644762D01*
X128849524Y-142549524D01*
X128801905Y-142454286D01*
X128754286Y-142263810D01*
X128754286Y-142120952D01*
X128801905Y-141930476D01*
X128849524Y-141835238D01*
X128944762Y-141740000D01*
X129087620Y-141692381D01*
X129182858Y-141692381D01*
X129325715Y-141740000D01*
X129373334Y-141787619D01*
X130278096Y-141692381D02*
X129801905Y-141692381D01*
X129754286Y-142168571D01*
X129801905Y-142120952D01*
X129897143Y-142073333D01*
X130135239Y-142073333D01*
X130230477Y-142120952D01*
X130278096Y-142168571D01*
X130325715Y-142263810D01*
X130325715Y-142501905D01*
X130278096Y-142597143D01*
X130230477Y-142644762D01*
X130135239Y-142692381D01*
X129897143Y-142692381D01*
X129801905Y-142644762D01*
X129754286Y-142597143D01*
X124658381Y-154662095D02*
X123658381Y-154662095D01*
X123658381Y-154281142D01*
X123706000Y-154185904D01*
X123753619Y-154138285D01*
X123848857Y-154090666D01*
X123991714Y-154090666D01*
X124086952Y-154138285D01*
X124134571Y-154185904D01*
X124182190Y-154281142D01*
X124182190Y-154662095D01*
X123658381Y-153185904D02*
X123658381Y-153662095D01*
X124134571Y-153709714D01*
X124086952Y-153662095D01*
X124039333Y-153566857D01*
X124039333Y-153328761D01*
X124086952Y-153233523D01*
X124134571Y-153185904D01*
X124229810Y-153138285D01*
X124467905Y-153138285D01*
X124563143Y-153185904D01*
X124610762Y-153233523D01*
X124658381Y-153328761D01*
X124658381Y-153566857D01*
X124610762Y-153662095D01*
X124563143Y-153709714D01*
X86891905Y-93924381D02*
X86891905Y-92924381D01*
X87272858Y-92924381D01*
X87368096Y-92972000D01*
X87415715Y-93019619D01*
X87463334Y-93114857D01*
X87463334Y-93257714D01*
X87415715Y-93352952D01*
X87368096Y-93400571D01*
X87272858Y-93448190D01*
X86891905Y-93448190D01*
X88320477Y-93257714D02*
X88320477Y-93924381D01*
X88082381Y-92876762D02*
X87844286Y-93591048D01*
X88463334Y-93591048D01*
X93162381Y-91670095D02*
X92162381Y-91670095D01*
X92162381Y-91289142D01*
X92210000Y-91193904D01*
X92257619Y-91146285D01*
X92352857Y-91098666D01*
X92495714Y-91098666D01*
X92590952Y-91146285D01*
X92638571Y-91193904D01*
X92686190Y-91289142D01*
X92686190Y-91670095D01*
X92162381Y-90241523D02*
X92162381Y-90432000D01*
X92210000Y-90527238D01*
X92257619Y-90574857D01*
X92400476Y-90670095D01*
X92590952Y-90717714D01*
X92971905Y-90717714D01*
X93067143Y-90670095D01*
X93114762Y-90622476D01*
X93162381Y-90527238D01*
X93162381Y-90336761D01*
X93114762Y-90241523D01*
X93067143Y-90193904D01*
X92971905Y-90146285D01*
X92733810Y-90146285D01*
X92638571Y-90193904D01*
X92590952Y-90241523D01*
X92543333Y-90336761D01*
X92543333Y-90527238D01*
X92590952Y-90622476D01*
X92638571Y-90670095D01*
X92733810Y-90717714D01*
X115339905Y-93924381D02*
X115339905Y-92924381D01*
X115720858Y-92924381D01*
X115816096Y-92972000D01*
X115863715Y-93019619D01*
X115911334Y-93114857D01*
X115911334Y-93257714D01*
X115863715Y-93352952D01*
X115816096Y-93400571D01*
X115720858Y-93448190D01*
X115339905Y-93448190D01*
X116244667Y-92924381D02*
X116863715Y-92924381D01*
X116530381Y-93305333D01*
X116673239Y-93305333D01*
X116768477Y-93352952D01*
X116816096Y-93400571D01*
X116863715Y-93495810D01*
X116863715Y-93733905D01*
X116816096Y-93829143D01*
X116768477Y-93876762D01*
X116673239Y-93924381D01*
X116387524Y-93924381D01*
X116292286Y-93876762D01*
X116244667Y-93829143D01*
X72171190Y-133581191D02*
X72647381Y-133581191D01*
X71647381Y-133914524D02*
X72171190Y-133581191D01*
X71647381Y-133247857D01*
X72647381Y-132390714D02*
X72647381Y-132962143D01*
X72647381Y-132676429D02*
X71647381Y-132676429D01*
X71790238Y-132771667D01*
X71885476Y-132866905D01*
X71933095Y-132962143D01*
M02*
