G04 #@! TF.FileFunction,Copper,L2,Bot,Signal*
%FSLAX46Y46*%
G04 Gerber Fmt 4.6, Leading zero omitted, Abs format (unit mm)*
G04 Created by KiCad (PCBNEW (2015-08-16 BZR 6097, Git b384c94)-product) date 11/3/2015 8:57:16 PM*
%MOMM*%
G01*
G04 APERTURE LIST*
%ADD10C,0.100000*%
%ADD11C,5.000000*%
%ADD12R,1.300000X1.300000*%
%ADD13C,1.300000*%
%ADD14C,1.400000*%
%ADD15C,1.700000*%
%ADD16R,1.700000X1.700000*%
%ADD17C,1.600000*%
%ADD18R,1.600000X1.600000*%
%ADD19R,2.032000X2.032000*%
%ADD20O,2.032000X2.032000*%
%ADD21C,1.727200*%
%ADD22O,1.727200X1.727200*%
%ADD23R,1.727200X2.032000*%
%ADD24O,1.727200X2.032000*%
%ADD25R,1.524000X1.524000*%
%ADD26C,1.524000*%
%ADD27C,0.600000*%
%ADD28C,0.381000*%
%ADD29C,0.635000*%
%ADD30C,0.254000*%
G04 APERTURE END LIST*
D10*
D11*
X163195000Y-153035000D03*
X163195000Y-88265000D03*
X75565000Y-153035000D03*
D12*
X109982000Y-126492000D03*
D13*
X109982000Y-123992000D03*
D12*
X81915000Y-125095000D03*
D13*
X79415000Y-125095000D03*
D12*
X164465000Y-101600000D03*
D13*
X164465000Y-104100000D03*
D12*
X137160000Y-99060000D03*
D13*
X137160000Y-101560000D03*
D14*
X102235000Y-147320000D03*
X92075000Y-147320000D03*
D15*
X81788000Y-154432000D03*
X81788000Y-147932000D03*
X86288000Y-154432000D03*
X86288000Y-147932000D03*
D16*
X107335000Y-144175000D03*
D17*
X107335000Y-141635000D03*
X107335000Y-139095000D03*
X107335000Y-136555000D03*
X107335000Y-134015000D03*
X107335000Y-131475000D03*
X107335000Y-128935000D03*
X107335000Y-126395000D03*
X107335000Y-123855000D03*
X107335000Y-121315000D03*
X107335000Y-118775000D03*
X107335000Y-116235000D03*
X107335000Y-113695000D03*
X107335000Y-111155000D03*
X107335000Y-108615000D03*
X107335000Y-106075000D03*
X107335000Y-103535000D03*
X107335000Y-100995000D03*
X107335000Y-98455000D03*
X107335000Y-95915000D03*
X92095000Y-95915000D03*
X92095000Y-98455000D03*
X92095000Y-100995000D03*
X92095000Y-103535000D03*
X92095000Y-106075000D03*
X92095000Y-108615000D03*
X92095000Y-111155000D03*
X92095000Y-113695000D03*
X92095000Y-116235000D03*
X92095000Y-118775000D03*
X92095000Y-121315000D03*
X92095000Y-123855000D03*
X92095000Y-126395000D03*
X92095000Y-128935000D03*
X92095000Y-131475000D03*
X92095000Y-134015000D03*
X92095000Y-136555000D03*
X92095000Y-139095000D03*
X92095000Y-141635000D03*
X92095000Y-144175000D03*
D18*
X143510000Y-104140000D03*
D17*
X143510000Y-106680000D03*
X143510000Y-109220000D03*
X143510000Y-111760000D03*
X143510000Y-114300000D03*
X143510000Y-116840000D03*
X143510000Y-119380000D03*
X143510000Y-121920000D03*
X143510000Y-124460000D03*
X143510000Y-127000000D03*
X143510000Y-129540000D03*
X143510000Y-132080000D03*
X143510000Y-134620000D03*
X143510000Y-137160000D03*
X158750000Y-137160000D03*
X158750000Y-134620000D03*
X158750000Y-132080000D03*
X158750000Y-129540000D03*
X158750000Y-127000000D03*
X158750000Y-124460000D03*
X158750000Y-121920000D03*
X158750000Y-119380000D03*
X158750000Y-116840000D03*
X158750000Y-114300000D03*
X158750000Y-111760000D03*
X158750000Y-109220000D03*
X158750000Y-106680000D03*
X158750000Y-104140000D03*
D18*
X121920000Y-104140000D03*
D17*
X121920000Y-106680000D03*
X121920000Y-109220000D03*
X121920000Y-111760000D03*
X121920000Y-114300000D03*
X121920000Y-116840000D03*
X121920000Y-119380000D03*
X121920000Y-121920000D03*
X121920000Y-124460000D03*
X121920000Y-127000000D03*
X121920000Y-129540000D03*
X121920000Y-132080000D03*
X121920000Y-134620000D03*
X121920000Y-137160000D03*
X137160000Y-137160000D03*
X137160000Y-134620000D03*
X137160000Y-132080000D03*
X137160000Y-129540000D03*
X137160000Y-127000000D03*
X137160000Y-124460000D03*
X137160000Y-121920000D03*
X137160000Y-119380000D03*
X137160000Y-116840000D03*
X137160000Y-114300000D03*
X137160000Y-111760000D03*
X137160000Y-109220000D03*
X137160000Y-106680000D03*
X137160000Y-104140000D03*
D12*
X129540000Y-144780000D03*
D13*
X129540000Y-147280000D03*
D19*
X127000000Y-153670000D03*
D20*
X129540000Y-153670000D03*
D21*
X88900000Y-144145000D03*
D22*
X86360000Y-144145000D03*
X88900000Y-141605000D03*
X86360000Y-141605000D03*
X88900000Y-139065000D03*
X86360000Y-139065000D03*
X88900000Y-136525000D03*
X86360000Y-136525000D03*
X88900000Y-133985000D03*
X86360000Y-133985000D03*
X88900000Y-131445000D03*
X86360000Y-131445000D03*
X88900000Y-128905000D03*
X86360000Y-128905000D03*
X88900000Y-126365000D03*
X86360000Y-126365000D03*
X88900000Y-123825000D03*
X86360000Y-123825000D03*
X88900000Y-121285000D03*
X86360000Y-121285000D03*
X88900000Y-118745000D03*
X86360000Y-118745000D03*
X88900000Y-116205000D03*
X86360000Y-116205000D03*
X88900000Y-113665000D03*
X86360000Y-113665000D03*
X88900000Y-111125000D03*
X86360000Y-111125000D03*
X88900000Y-108585000D03*
X86360000Y-108585000D03*
X88900000Y-106045000D03*
X86360000Y-106045000D03*
X88900000Y-103505000D03*
X86360000Y-103505000D03*
X88900000Y-100965000D03*
X86360000Y-100965000D03*
X88900000Y-98425000D03*
X86360000Y-98425000D03*
X88900000Y-95885000D03*
X86360000Y-95885000D03*
D23*
X95453200Y-90728800D03*
D24*
X97993200Y-90728800D03*
X100533200Y-90728800D03*
X103073200Y-90728800D03*
X105613200Y-90728800D03*
X108153200Y-90728800D03*
D21*
X117475000Y-144145000D03*
D22*
X114935000Y-144145000D03*
X117475000Y-141605000D03*
X114935000Y-141605000D03*
X117475000Y-139065000D03*
X114935000Y-139065000D03*
X117475000Y-136525000D03*
X114935000Y-136525000D03*
X117475000Y-133985000D03*
X114935000Y-133985000D03*
X117475000Y-131445000D03*
X114935000Y-131445000D03*
X117475000Y-128905000D03*
X114935000Y-128905000D03*
X117475000Y-126365000D03*
X114935000Y-126365000D03*
X117475000Y-123825000D03*
X114935000Y-123825000D03*
X117475000Y-121285000D03*
X114935000Y-121285000D03*
X117475000Y-118745000D03*
X114935000Y-118745000D03*
X117475000Y-116205000D03*
X114935000Y-116205000D03*
X117475000Y-113665000D03*
X114935000Y-113665000D03*
X117475000Y-111125000D03*
X114935000Y-111125000D03*
X117475000Y-108585000D03*
X114935000Y-108585000D03*
X117475000Y-106045000D03*
X114935000Y-106045000D03*
X117475000Y-103505000D03*
X114935000Y-103505000D03*
X117475000Y-100965000D03*
X114935000Y-100965000D03*
X117475000Y-98425000D03*
X114935000Y-98425000D03*
X117475000Y-95885000D03*
X114935000Y-95885000D03*
D11*
X75565000Y-88265000D03*
D25*
X74295000Y-128905000D03*
D26*
X74295000Y-136525000D03*
X81915000Y-128905000D03*
X81915000Y-136525000D03*
D27*
X111760000Y-146050000D03*
X113030000Y-146050000D03*
X114300000Y-146050000D03*
X115570000Y-146050000D03*
X116840000Y-146050000D03*
X116840000Y-147320000D03*
X115570000Y-147320000D03*
X114300000Y-147320000D03*
X113030000Y-147320000D03*
X111760000Y-147320000D03*
X111760000Y-148590000D03*
X113030000Y-148590000D03*
X114300000Y-148590000D03*
X115570000Y-148590000D03*
X116840000Y-148590000D03*
X118110000Y-148590000D03*
X118110000Y-147320000D03*
X118110000Y-146050000D03*
X104140000Y-120142000D03*
X103378000Y-119380000D03*
X102616000Y-118618000D03*
X101854000Y-117856000D03*
X102870000Y-110490000D03*
X102870000Y-109220000D03*
X102870000Y-107950000D03*
X102870000Y-106680000D03*
X102870000Y-105410000D03*
X102870000Y-104140000D03*
X102870000Y-102870000D03*
X104140000Y-102870000D03*
X104140000Y-104140000D03*
X104140000Y-105410000D03*
X104140000Y-106680000D03*
X104140000Y-107950000D03*
X104140000Y-109220000D03*
X104140000Y-110490000D03*
X123190000Y-154940000D03*
X121920000Y-154940000D03*
X120650000Y-154940000D03*
X119380000Y-154940000D03*
X118110000Y-154940000D03*
X116840000Y-154940000D03*
X115570000Y-154940000D03*
X115570000Y-153670000D03*
X116840000Y-153670000D03*
X118110000Y-153670000D03*
X119380000Y-153670000D03*
X120650000Y-153670000D03*
X121920000Y-153670000D03*
X123190000Y-153670000D03*
X78740000Y-121920000D03*
X77470000Y-121920000D03*
X76200000Y-121920000D03*
X74930000Y-121920000D03*
X74930000Y-120650000D03*
X76200000Y-120650000D03*
X77470000Y-120650000D03*
X78740000Y-120650000D03*
X78740000Y-119380000D03*
X77470000Y-119380000D03*
X76200000Y-119380000D03*
X74930000Y-119380000D03*
X74930000Y-118110000D03*
X76200000Y-118110000D03*
X77470000Y-118110000D03*
X78740000Y-118110000D03*
X80010000Y-118110000D03*
X80010000Y-119380000D03*
X80010000Y-120650000D03*
X80010000Y-121920000D03*
X85090000Y-92710000D03*
X83820000Y-92710000D03*
X82550000Y-92710000D03*
X81280000Y-92710000D03*
X81280000Y-91440000D03*
X82550000Y-91440000D03*
X83820000Y-91440000D03*
X85090000Y-91440000D03*
X85090000Y-90170000D03*
X83820000Y-90170000D03*
X82550000Y-90170000D03*
X81280000Y-90170000D03*
X81280000Y-88900000D03*
X82550000Y-88900000D03*
X83820000Y-88900000D03*
X85090000Y-88900000D03*
X86360000Y-88900000D03*
X86360000Y-90170000D03*
X86360000Y-91440000D03*
X86360000Y-92710000D03*
X134620000Y-90170000D03*
X134620000Y-91440000D03*
X134620000Y-92710000D03*
X134620000Y-93980000D03*
X134620000Y-95250000D03*
X134620000Y-96520000D03*
X135890000Y-96520000D03*
X135890000Y-95250000D03*
X135890000Y-93980000D03*
X135890000Y-92710000D03*
X135890000Y-91440000D03*
X135890000Y-90170000D03*
X137160000Y-90170000D03*
X137160000Y-91440000D03*
X137160000Y-92710000D03*
X137160000Y-93980000D03*
X137160000Y-95250000D03*
X137160000Y-96520000D03*
X160020000Y-99060000D03*
X161290000Y-99060000D03*
X162560000Y-99060000D03*
X163830000Y-99060000D03*
X163830000Y-97790000D03*
X162560000Y-97790000D03*
X161290000Y-97790000D03*
X160020000Y-97790000D03*
X160020000Y-96520000D03*
X161290000Y-96520000D03*
X162560000Y-96520000D03*
X163830000Y-96520000D03*
X165100000Y-96520000D03*
X165100000Y-97790000D03*
X165100000Y-99060000D03*
X135890000Y-142240000D03*
X134620000Y-142240000D03*
X133350000Y-142240000D03*
X132080000Y-142240000D03*
X130810000Y-142240000D03*
X130810000Y-140970000D03*
X132080000Y-140970000D03*
X133350000Y-140970000D03*
X134620000Y-140970000D03*
X135890000Y-140970000D03*
X135890000Y-139700000D03*
X134620000Y-139700000D03*
X133350000Y-139700000D03*
X132080000Y-139700000D03*
X130810000Y-139700000D03*
X129540000Y-139700000D03*
X129540000Y-140970000D03*
X129540000Y-142240000D03*
X123139200Y-102311200D03*
X130302000Y-103886000D03*
X130251200Y-111709200D03*
X131521200Y-114096800D03*
X131521200Y-103886000D03*
X123240800Y-100990400D03*
X123139200Y-98806000D03*
X133146800Y-103886000D03*
X134213600Y-103987600D03*
X123342400Y-95961200D03*
X95300800Y-95758000D03*
X93929200Y-102666800D03*
X103886000Y-125222000D03*
X100482400Y-122428000D03*
X103886000Y-123444000D03*
X104648000Y-122174000D03*
X103886000Y-118364000D03*
X103886000Y-115824000D03*
X103886000Y-113284000D03*
X141732000Y-105460800D03*
X140716000Y-118618000D03*
X151765000Y-94615000D03*
X150164800Y-94386400D03*
X154940000Y-117195600D03*
X148640800Y-94538800D03*
X153517600Y-122021600D03*
D28*
X113030000Y-146050000D02*
X111760000Y-146050000D01*
X115570000Y-146050000D02*
X114300000Y-146050000D01*
X116840000Y-147320000D02*
X116840000Y-146050000D01*
X114300000Y-147320000D02*
X115570000Y-147320000D01*
X111760000Y-147320000D02*
X113030000Y-147320000D01*
X113030000Y-148590000D02*
X111760000Y-148590000D01*
X115570000Y-148590000D02*
X114300000Y-148590000D01*
X118110000Y-148590000D02*
X116840000Y-148590000D01*
X118110000Y-146050000D02*
X118110000Y-147320000D01*
X101854000Y-117856000D02*
X101854000Y-112776000D01*
D29*
X104187829Y-120094171D02*
X104140000Y-120142000D01*
X103378000Y-119380000D02*
X102616000Y-118618000D01*
D28*
X106757501Y-122505501D02*
X104346171Y-120094171D01*
X108171902Y-122428000D02*
X108094401Y-122505501D01*
X108094401Y-122505501D02*
X106757501Y-122505501D01*
D29*
X109337238Y-122428000D02*
X108171902Y-122428000D01*
X109982000Y-123992000D02*
X109982000Y-123072762D01*
X109982000Y-123072762D02*
X109337238Y-122428000D01*
X104346171Y-120094171D02*
X104187829Y-120094171D01*
D28*
X102870000Y-107950000D02*
X102870000Y-109220000D01*
X102870000Y-105410000D02*
X102870000Y-106680000D01*
X102870000Y-102870000D02*
X102870000Y-104140000D01*
X104140000Y-104140000D02*
X104140000Y-102870000D01*
X104140000Y-106680000D02*
X104140000Y-105410000D01*
X104140000Y-109220000D02*
X104140000Y-107950000D01*
X101854000Y-112776000D02*
X104140000Y-110490000D01*
X121920000Y-154940000D02*
X123190000Y-154940000D01*
X119380000Y-154940000D02*
X120650000Y-154940000D01*
X116840000Y-154940000D02*
X118110000Y-154940000D01*
X115570000Y-153670000D02*
X115570000Y-154940000D01*
X118110000Y-153670000D02*
X116840000Y-153670000D01*
X120650000Y-153670000D02*
X119380000Y-153670000D01*
X123190000Y-153670000D02*
X121920000Y-153670000D01*
X77470000Y-121920000D02*
X78740000Y-121920000D01*
X74930000Y-121920000D02*
X76200000Y-121920000D01*
X76200000Y-120650000D02*
X74930000Y-120650000D01*
X78740000Y-120650000D02*
X77470000Y-120650000D01*
X77470000Y-119380000D02*
X78740000Y-119380000D01*
X74930000Y-119380000D02*
X76200000Y-119380000D01*
X76200000Y-118110000D02*
X74930000Y-118110000D01*
X78740000Y-118110000D02*
X77470000Y-118110000D01*
X80010000Y-119380000D02*
X80010000Y-118110000D01*
X80010000Y-121920000D02*
X80010000Y-120650000D01*
X83820000Y-92710000D02*
X85090000Y-92710000D01*
X81280000Y-92710000D02*
X82550000Y-92710000D01*
X82550000Y-91440000D02*
X81280000Y-91440000D01*
X85090000Y-91440000D02*
X83820000Y-91440000D01*
X83820000Y-90170000D02*
X85090000Y-90170000D01*
X81280000Y-90170000D02*
X82550000Y-90170000D01*
X82550000Y-88900000D02*
X81280000Y-88900000D01*
X85090000Y-88900000D02*
X83820000Y-88900000D01*
X86360000Y-90170000D02*
X86360000Y-88900000D01*
X86360000Y-92710000D02*
X86360000Y-91440000D01*
X134620000Y-91440000D02*
X134620000Y-90170000D01*
X134620000Y-93980000D02*
X134620000Y-92710000D01*
X134620000Y-96520000D02*
X134620000Y-95250000D01*
X135890000Y-95250000D02*
X135890000Y-96520000D01*
X135890000Y-92710000D02*
X135890000Y-93980000D01*
X135890000Y-90170000D02*
X135890000Y-91440000D01*
X137160000Y-91440000D02*
X137160000Y-90170000D01*
X137160000Y-93980000D02*
X137160000Y-92710000D01*
X137160000Y-96520000D02*
X137160000Y-95250000D01*
X162560000Y-99060000D02*
X161290000Y-99060000D01*
X163830000Y-97790000D02*
X163830000Y-99060000D01*
X161290000Y-97790000D02*
X162560000Y-97790000D01*
X160020000Y-96520000D02*
X160020000Y-97790000D01*
X162560000Y-96520000D02*
X161290000Y-96520000D01*
X165100000Y-96520000D02*
X163830000Y-96520000D01*
X165100000Y-99060000D02*
X165100000Y-97790000D01*
X134620000Y-142240000D02*
X135890000Y-142240000D01*
X132080000Y-142240000D02*
X133350000Y-142240000D01*
X130810000Y-140970000D02*
X130810000Y-142240000D01*
X133350000Y-140970000D02*
X132080000Y-140970000D01*
X135890000Y-140970000D02*
X134620000Y-140970000D01*
X134620000Y-139700000D02*
X135890000Y-139700000D01*
X132080000Y-139700000D02*
X133350000Y-139700000D01*
X129540000Y-139700000D02*
X130810000Y-139700000D01*
X129540000Y-142240000D02*
X129540000Y-140970000D01*
D29*
X118999000Y-103505000D02*
X117475000Y-103505000D01*
X120192800Y-102311200D02*
X118999000Y-103505000D01*
X123139200Y-102311200D02*
X120192800Y-102311200D01*
X130251200Y-103936800D02*
X130302000Y-103886000D01*
X130251200Y-111709200D02*
X130251200Y-103936800D01*
X117475000Y-100965000D02*
X123215400Y-100965000D01*
X131521200Y-103886000D02*
X131521200Y-114096800D01*
X123215400Y-100965000D02*
X123240800Y-100990400D01*
X137160000Y-121920000D02*
X135280400Y-121920000D01*
X122758200Y-98425000D02*
X117475000Y-98425000D01*
X123139200Y-98806000D02*
X122758200Y-98425000D01*
X133146800Y-119786400D02*
X133146800Y-103886000D01*
X135280400Y-121920000D02*
X133146800Y-119786400D01*
X117475000Y-95885000D02*
X123266200Y-95885000D01*
X135737600Y-116840000D02*
X137160000Y-116840000D01*
X134772400Y-115874800D02*
X135737600Y-116840000D01*
X134772400Y-104546400D02*
X134772400Y-115874800D01*
X134213600Y-103987600D02*
X134772400Y-104546400D01*
X123266200Y-95885000D02*
X123342400Y-95961200D01*
X93929200Y-102666800D02*
X95300800Y-101295200D01*
X95300800Y-101295200D02*
X95300800Y-95758000D01*
D28*
X105816400Y-132537200D02*
X105978301Y-132699101D01*
X105978301Y-132699101D02*
X120169529Y-132699101D01*
X120169529Y-132699101D02*
X120788630Y-132080000D01*
X120788630Y-132080000D02*
X121920000Y-132080000D01*
D29*
X103886000Y-130606800D02*
X105816400Y-132537200D01*
X103886000Y-125222000D02*
X103886000Y-130606800D01*
D28*
X102514400Y-135128000D02*
X102625501Y-135239101D01*
X102625501Y-135239101D02*
X120169529Y-135239101D01*
X120169529Y-135239101D02*
X120788630Y-134620000D01*
X120788630Y-134620000D02*
X121920000Y-134620000D01*
D29*
X100482400Y-133096000D02*
X102514400Y-135128000D01*
X100482400Y-122852264D02*
X100482400Y-133096000D01*
X100482400Y-122428000D02*
X100482400Y-122852264D01*
X105816400Y-129844800D02*
X106019600Y-130048000D01*
X105816400Y-125374400D02*
X105816400Y-129844800D01*
X103886000Y-123444000D02*
X105816400Y-125374400D01*
D28*
X123567701Y-130730501D02*
X129997200Y-137160000D01*
X129997200Y-137160000D02*
X137160000Y-137160000D01*
X106019600Y-130048000D02*
X106130701Y-130159101D01*
X106130701Y-130159101D02*
X120777159Y-130159101D01*
X120777159Y-130159101D02*
X121348559Y-130730501D01*
X121348559Y-130730501D02*
X123567701Y-130730501D01*
D29*
X123269499Y-128349499D02*
X129540000Y-134620000D01*
X129540000Y-134620000D02*
X137160000Y-134620000D01*
D28*
X105138499Y-123426499D02*
X106791101Y-125079101D01*
X106791101Y-125079101D02*
X118237159Y-125079101D01*
X118237159Y-125079101D02*
X121507557Y-128349499D01*
X121507557Y-128349499D02*
X123269499Y-128349499D01*
X104648000Y-122174000D02*
X105138499Y-122664499D01*
X105138499Y-122664499D02*
X105138499Y-123426499D01*
D29*
X123574299Y-125809499D02*
X129844800Y-132080000D01*
X129844800Y-132080000D02*
X137160000Y-132080000D01*
D28*
X118017901Y-122539101D02*
X121288299Y-125809499D01*
X121288299Y-125809499D02*
X123574299Y-125809499D01*
X111699699Y-120030899D02*
X114207901Y-122539101D01*
X114207901Y-122539101D02*
X118017901Y-122539101D01*
X105918000Y-120040400D02*
X105927501Y-120030899D01*
X105927501Y-120030899D02*
X111699699Y-120030899D01*
D29*
X105562400Y-120040400D02*
X105918000Y-120040400D01*
X103886000Y-118364000D02*
X105562400Y-120040400D01*
X124387099Y-120570501D02*
X133356598Y-129540000D01*
X133356598Y-129540000D02*
X137160000Y-129540000D01*
D28*
X105664000Y-117602000D02*
X105775101Y-117490899D01*
X105775101Y-117490899D02*
X118268957Y-117490899D01*
X118268957Y-117490899D02*
X121348559Y-120570501D01*
X121348559Y-120570501D02*
X124387099Y-120570501D01*
D29*
X103886000Y-115824000D02*
X105664000Y-117602000D01*
D28*
X105918000Y-114909600D02*
X105927501Y-114919101D01*
X105927501Y-114919101D02*
X118237159Y-114919101D01*
X121348559Y-118030501D02*
X128190501Y-118030501D01*
X128190501Y-118030501D02*
X137160000Y-127000000D01*
X118237159Y-114919101D02*
X121348559Y-118030501D01*
D29*
X105511600Y-114909600D02*
X105918000Y-114909600D01*
X103886000Y-113284000D02*
X105511600Y-114909600D01*
X141732000Y-90627200D02*
X141732000Y-87172800D01*
X141732000Y-105460800D02*
X141732000Y-90627200D01*
X95453200Y-87274400D02*
X95453200Y-90728800D01*
X97078800Y-85648800D02*
X95453200Y-87274400D01*
X140208000Y-85648800D02*
X97078800Y-85648800D01*
X141732000Y-87172800D02*
X140208000Y-85648800D01*
X97993200Y-90728800D02*
X97993200Y-88036400D01*
X140716000Y-118618000D02*
X140766800Y-118668800D01*
X140716000Y-87884000D02*
X140716000Y-118618000D01*
X139598400Y-86766400D02*
X140716000Y-87884000D01*
X99263200Y-86766400D02*
X139598400Y-86766400D01*
X97993200Y-88036400D02*
X99263200Y-86766400D01*
X101244400Y-87884000D02*
X100533200Y-88595200D01*
X100533200Y-88595200D02*
X100533200Y-90728800D01*
X139039600Y-87884000D02*
X101244400Y-87884000D01*
X139649200Y-88493600D02*
X139039600Y-87884000D01*
X139649200Y-122783600D02*
X139649200Y-88493600D01*
X137972800Y-124460000D02*
X139649200Y-122783600D01*
X137160000Y-124460000D02*
X137972800Y-124460000D01*
X153670000Y-106680000D02*
X158750000Y-106680000D01*
X151765000Y-104775000D02*
X153670000Y-106680000D01*
X151765000Y-94615000D02*
X151765000Y-104775000D01*
X154940000Y-117195600D02*
X150164800Y-112420400D01*
X150164800Y-112420400D02*
X150164800Y-94386400D01*
X153517600Y-122021600D02*
X148640800Y-117144800D01*
X148640800Y-117144800D02*
X148640800Y-94538800D01*
D30*
G36*
X166955000Y-156795000D02*
X71805000Y-156795000D01*
X71805000Y-153655854D01*
X72429457Y-153655854D01*
X72905727Y-154808515D01*
X73786847Y-155691174D01*
X74938674Y-156169454D01*
X76185854Y-156170543D01*
X77338515Y-155694273D01*
X77557211Y-155475958D01*
X80923647Y-155475958D01*
X81003920Y-155727259D01*
X81559279Y-155928718D01*
X82149458Y-155902315D01*
X82572080Y-155727259D01*
X82652353Y-155475958D01*
X81788000Y-154611605D01*
X80923647Y-155475958D01*
X77557211Y-155475958D01*
X78221174Y-154813153D01*
X78474415Y-154203279D01*
X80291282Y-154203279D01*
X80317685Y-154793458D01*
X80492741Y-155216080D01*
X80744042Y-155296353D01*
X81608395Y-154432000D01*
X81967605Y-154432000D01*
X82831958Y-155296353D01*
X83083259Y-155216080D01*
X83261005Y-154726089D01*
X84802743Y-154726089D01*
X85028344Y-155272086D01*
X85445717Y-155690188D01*
X85991319Y-155916742D01*
X86582089Y-155917257D01*
X87128086Y-155691656D01*
X87546188Y-155274283D01*
X87772742Y-154728681D01*
X87773257Y-154137911D01*
X87697990Y-153955750D01*
X125349000Y-153955750D01*
X125349000Y-154812309D01*
X125445673Y-155045698D01*
X125624301Y-155224327D01*
X125857690Y-155321000D01*
X126714250Y-155321000D01*
X126873000Y-155162250D01*
X126873000Y-153797000D01*
X125507750Y-153797000D01*
X125349000Y-153955750D01*
X87697990Y-153955750D01*
X87547656Y-153591914D01*
X87130283Y-153173812D01*
X86584681Y-152947258D01*
X85993911Y-152946743D01*
X85447914Y-153172344D01*
X85029812Y-153589717D01*
X84803258Y-154135319D01*
X84802743Y-154726089D01*
X83261005Y-154726089D01*
X83284718Y-154660721D01*
X83258315Y-154070542D01*
X83083259Y-153647920D01*
X82831958Y-153567647D01*
X81967605Y-154432000D01*
X81608395Y-154432000D01*
X80744042Y-153567647D01*
X80492741Y-153647920D01*
X80291282Y-154203279D01*
X78474415Y-154203279D01*
X78699454Y-153661326D01*
X78699692Y-153388042D01*
X80923647Y-153388042D01*
X81788000Y-154252395D01*
X82652353Y-153388042D01*
X82572080Y-153136741D01*
X82016721Y-152935282D01*
X81426542Y-152961685D01*
X81003920Y-153136741D01*
X80923647Y-153388042D01*
X78699692Y-153388042D01*
X78700443Y-152527691D01*
X125349000Y-152527691D01*
X125349000Y-153384250D01*
X125507750Y-153543000D01*
X126873000Y-153543000D01*
X126873000Y-152177750D01*
X127127000Y-152177750D01*
X127127000Y-153543000D01*
X127147000Y-153543000D01*
X127147000Y-153797000D01*
X127127000Y-153797000D01*
X127127000Y-155162250D01*
X127285750Y-155321000D01*
X128142310Y-155321000D01*
X128375699Y-155224327D01*
X128554327Y-155045698D01*
X128571999Y-155003034D01*
X128908190Y-155227670D01*
X129540000Y-155353345D01*
X130171810Y-155227670D01*
X130707433Y-154869778D01*
X131065325Y-154334155D01*
X131191000Y-153702345D01*
X131191000Y-153655854D01*
X160059457Y-153655854D01*
X160535727Y-154808515D01*
X161416847Y-155691174D01*
X162568674Y-156169454D01*
X163815854Y-156170543D01*
X164968515Y-155694273D01*
X165851174Y-154813153D01*
X166329454Y-153661326D01*
X166330543Y-152414146D01*
X165854273Y-151261485D01*
X164973153Y-150378826D01*
X163821326Y-149900546D01*
X162574146Y-149899457D01*
X161421485Y-150375727D01*
X160538826Y-151256847D01*
X160060546Y-152408674D01*
X160059457Y-153655854D01*
X131191000Y-153655854D01*
X131191000Y-153637655D01*
X131065325Y-153005845D01*
X130707433Y-152470222D01*
X130171810Y-152112330D01*
X129540000Y-151986655D01*
X128908190Y-152112330D01*
X128571999Y-152336966D01*
X128554327Y-152294302D01*
X128375699Y-152115673D01*
X128142310Y-152019000D01*
X127285750Y-152019000D01*
X127127000Y-152177750D01*
X126873000Y-152177750D01*
X126714250Y-152019000D01*
X125857690Y-152019000D01*
X125624301Y-152115673D01*
X125445673Y-152294302D01*
X125349000Y-152527691D01*
X78700443Y-152527691D01*
X78700543Y-152414146D01*
X78224273Y-151261485D01*
X77343153Y-150378826D01*
X76191326Y-149900546D01*
X74944146Y-149899457D01*
X73791485Y-150375727D01*
X72908826Y-151256847D01*
X72430546Y-152408674D01*
X72429457Y-153655854D01*
X71805000Y-153655854D01*
X71805000Y-148226089D01*
X80302743Y-148226089D01*
X80528344Y-148772086D01*
X80945717Y-149190188D01*
X81491319Y-149416742D01*
X82082089Y-149417257D01*
X82628086Y-149191656D01*
X83046188Y-148774283D01*
X83272742Y-148228681D01*
X83272744Y-148226089D01*
X84802743Y-148226089D01*
X85028344Y-148772086D01*
X85445717Y-149190188D01*
X85991319Y-149416742D01*
X86582089Y-149417257D01*
X87128086Y-149191656D01*
X87546188Y-148774283D01*
X87772742Y-148228681D01*
X87773257Y-147637911D01*
X87751140Y-147584383D01*
X90739769Y-147584383D01*
X90942582Y-148075229D01*
X91317796Y-148451098D01*
X91808287Y-148654768D01*
X92339383Y-148655231D01*
X92830229Y-148452418D01*
X93206098Y-148077204D01*
X93409768Y-147586713D01*
X93409770Y-147584383D01*
X100899769Y-147584383D01*
X101102582Y-148075229D01*
X101477796Y-148451098D01*
X101968287Y-148654768D01*
X102499383Y-148655231D01*
X102990229Y-148452418D01*
X103366098Y-148077204D01*
X103569768Y-147586713D01*
X103569813Y-147534481D01*
X128254777Y-147534481D01*
X128449995Y-148006943D01*
X128811155Y-148368735D01*
X129283276Y-148564777D01*
X129794481Y-148565223D01*
X130266943Y-148370005D01*
X130628735Y-148008845D01*
X130824777Y-147536724D01*
X130825223Y-147025519D01*
X130630005Y-146553057D01*
X130268845Y-146191265D01*
X129964765Y-146065000D01*
X130316310Y-146065000D01*
X130549699Y-145968327D01*
X130728327Y-145789698D01*
X130825000Y-145556309D01*
X130825000Y-145065750D01*
X130666250Y-144907000D01*
X129667000Y-144907000D01*
X129667000Y-144927000D01*
X129413000Y-144927000D01*
X129413000Y-144907000D01*
X128413750Y-144907000D01*
X128255000Y-145065750D01*
X128255000Y-145556309D01*
X128351673Y-145789698D01*
X128530301Y-145968327D01*
X128763690Y-146065000D01*
X129115567Y-146065000D01*
X128813057Y-146189995D01*
X128451265Y-146551155D01*
X128255223Y-147023276D01*
X128254777Y-147534481D01*
X103569813Y-147534481D01*
X103570231Y-147055617D01*
X103367418Y-146564771D01*
X102992204Y-146188902D01*
X102501713Y-145985232D01*
X101970617Y-145984769D01*
X101479771Y-146187582D01*
X101103902Y-146562796D01*
X100900232Y-147053287D01*
X100899769Y-147584383D01*
X93409770Y-147584383D01*
X93410231Y-147055617D01*
X93207418Y-146564771D01*
X92832204Y-146188902D01*
X92341713Y-145985232D01*
X91810617Y-145984769D01*
X91319771Y-146187582D01*
X90943902Y-146562796D01*
X90740232Y-147053287D01*
X90739769Y-147584383D01*
X87751140Y-147584383D01*
X87547656Y-147091914D01*
X87130283Y-146673812D01*
X86584681Y-146447258D01*
X85993911Y-146446743D01*
X85447914Y-146672344D01*
X85029812Y-147089717D01*
X84803258Y-147635319D01*
X84802743Y-148226089D01*
X83272744Y-148226089D01*
X83273257Y-147637911D01*
X83047656Y-147091914D01*
X82630283Y-146673812D01*
X82084681Y-146447258D01*
X81493911Y-146446743D01*
X80947914Y-146672344D01*
X80529812Y-147089717D01*
X80303258Y-147635319D01*
X80302743Y-148226089D01*
X71805000Y-148226089D01*
X71805000Y-137505213D01*
X73494392Y-137505213D01*
X73563857Y-137747397D01*
X74087302Y-137934144D01*
X74642368Y-137906362D01*
X75026143Y-137747397D01*
X75095608Y-137505213D01*
X74295000Y-136704605D01*
X73494392Y-137505213D01*
X71805000Y-137505213D01*
X71805000Y-136317302D01*
X72885856Y-136317302D01*
X72913638Y-136872368D01*
X73072603Y-137256143D01*
X73314787Y-137325608D01*
X74115395Y-136525000D01*
X74474605Y-136525000D01*
X75275213Y-137325608D01*
X75517397Y-137256143D01*
X75679540Y-136801661D01*
X80517758Y-136801661D01*
X80729990Y-137315303D01*
X81122630Y-137708629D01*
X81635900Y-137921757D01*
X82191661Y-137922242D01*
X82705303Y-137710010D01*
X83098629Y-137317370D01*
X83311757Y-136804100D01*
X83312242Y-136248339D01*
X83100010Y-135734697D01*
X82707370Y-135341371D01*
X82194100Y-135128243D01*
X81638339Y-135127758D01*
X81124697Y-135339990D01*
X80731371Y-135732630D01*
X80518243Y-136245900D01*
X80517758Y-136801661D01*
X75679540Y-136801661D01*
X75704144Y-136732698D01*
X75676362Y-136177632D01*
X75517397Y-135793857D01*
X75275213Y-135724392D01*
X74474605Y-136525000D01*
X74115395Y-136525000D01*
X73314787Y-135724392D01*
X73072603Y-135793857D01*
X72885856Y-136317302D01*
X71805000Y-136317302D01*
X71805000Y-135544787D01*
X73494392Y-135544787D01*
X74295000Y-136345395D01*
X75095608Y-135544787D01*
X75026143Y-135302603D01*
X74502698Y-135115856D01*
X73947632Y-135143638D01*
X73563857Y-135302603D01*
X73494392Y-135544787D01*
X71805000Y-135544787D01*
X71805000Y-129190750D01*
X72898000Y-129190750D01*
X72898000Y-129793309D01*
X72994673Y-130026698D01*
X73173301Y-130205327D01*
X73406690Y-130302000D01*
X74009250Y-130302000D01*
X74168000Y-130143250D01*
X74168000Y-129032000D01*
X74422000Y-129032000D01*
X74422000Y-130143250D01*
X74580750Y-130302000D01*
X75183310Y-130302000D01*
X75416699Y-130205327D01*
X75595327Y-130026698D01*
X75692000Y-129793309D01*
X75692000Y-129190750D01*
X75682911Y-129181661D01*
X80517758Y-129181661D01*
X80729990Y-129695303D01*
X81122630Y-130088629D01*
X81635900Y-130301757D01*
X82191661Y-130302242D01*
X82705303Y-130090010D01*
X83098629Y-129697370D01*
X83311757Y-129184100D01*
X83312242Y-128628339D01*
X83100010Y-128114697D01*
X82707370Y-127721371D01*
X82194100Y-127508243D01*
X81638339Y-127507758D01*
X81124697Y-127719990D01*
X80731371Y-128112630D01*
X80518243Y-128625900D01*
X80517758Y-129181661D01*
X75682911Y-129181661D01*
X75533250Y-129032000D01*
X74422000Y-129032000D01*
X74168000Y-129032000D01*
X73056750Y-129032000D01*
X72898000Y-129190750D01*
X71805000Y-129190750D01*
X71805000Y-128016691D01*
X72898000Y-128016691D01*
X72898000Y-128619250D01*
X73056750Y-128778000D01*
X74168000Y-128778000D01*
X74168000Y-127666750D01*
X74422000Y-127666750D01*
X74422000Y-128778000D01*
X75533250Y-128778000D01*
X75692000Y-128619250D01*
X75692000Y-128016691D01*
X75595327Y-127783302D01*
X75416699Y-127604673D01*
X75183310Y-127508000D01*
X74580750Y-127508000D01*
X74422000Y-127666750D01*
X74168000Y-127666750D01*
X74009250Y-127508000D01*
X73406690Y-127508000D01*
X73173301Y-127604673D01*
X72994673Y-127783302D01*
X72898000Y-128016691D01*
X71805000Y-128016691D01*
X71805000Y-125994016D01*
X78695590Y-125994016D01*
X78751271Y-126224611D01*
X79234078Y-126392622D01*
X79744428Y-126363083D01*
X80078729Y-126224611D01*
X80134410Y-125994016D01*
X79415000Y-125274605D01*
X78695590Y-125994016D01*
X71805000Y-125994016D01*
X71805000Y-124914078D01*
X78117378Y-124914078D01*
X78146917Y-125424428D01*
X78285389Y-125758729D01*
X78515984Y-125814410D01*
X79235395Y-125095000D01*
X79594605Y-125095000D01*
X80314016Y-125814410D01*
X80544611Y-125758729D01*
X80617560Y-125549098D01*
X80617560Y-125745000D01*
X80661838Y-125980317D01*
X80800910Y-126196441D01*
X81013110Y-126341431D01*
X81265000Y-126392440D01*
X82565000Y-126392440D01*
X82800317Y-126348162D01*
X83016441Y-126209090D01*
X83161431Y-125996890D01*
X83212440Y-125745000D01*
X83212440Y-124445000D01*
X83168162Y-124209683D01*
X83029090Y-123993559D01*
X82816890Y-123848569D01*
X82565000Y-123797560D01*
X81265000Y-123797560D01*
X81029683Y-123841838D01*
X80813559Y-123980910D01*
X80668569Y-124193110D01*
X80617560Y-124445000D01*
X80617560Y-124607385D01*
X80544611Y-124431271D01*
X80314016Y-124375590D01*
X79594605Y-125095000D01*
X79235395Y-125095000D01*
X78515984Y-124375590D01*
X78285389Y-124431271D01*
X78117378Y-124914078D01*
X71805000Y-124914078D01*
X71805000Y-124195984D01*
X78695590Y-124195984D01*
X79415000Y-124915395D01*
X80134410Y-124195984D01*
X80078729Y-123965389D01*
X79595922Y-123797378D01*
X79085572Y-123826917D01*
X78751271Y-123965389D01*
X78695590Y-124195984D01*
X71805000Y-124195984D01*
X71805000Y-98425000D01*
X84832041Y-98425000D01*
X84946115Y-98998489D01*
X85270971Y-99484670D01*
X85585752Y-99695000D01*
X85270971Y-99905330D01*
X84946115Y-100391511D01*
X84832041Y-100965000D01*
X84946115Y-101538489D01*
X85270971Y-102024670D01*
X85585752Y-102235000D01*
X85270971Y-102445330D01*
X84946115Y-102931511D01*
X84832041Y-103505000D01*
X84946115Y-104078489D01*
X85270971Y-104564670D01*
X85585752Y-104775000D01*
X85270971Y-104985330D01*
X84946115Y-105471511D01*
X84832041Y-106045000D01*
X84946115Y-106618489D01*
X85270971Y-107104670D01*
X85585752Y-107315000D01*
X85270971Y-107525330D01*
X84946115Y-108011511D01*
X84832041Y-108585000D01*
X84946115Y-109158489D01*
X85270971Y-109644670D01*
X85585752Y-109855000D01*
X85270971Y-110065330D01*
X84946115Y-110551511D01*
X84832041Y-111125000D01*
X84946115Y-111698489D01*
X85270971Y-112184670D01*
X85585752Y-112395000D01*
X85270971Y-112605330D01*
X84946115Y-113091511D01*
X84832041Y-113665000D01*
X84946115Y-114238489D01*
X85270971Y-114724670D01*
X85585752Y-114935000D01*
X85270971Y-115145330D01*
X84946115Y-115631511D01*
X84832041Y-116205000D01*
X84946115Y-116778489D01*
X85270971Y-117264670D01*
X85585752Y-117475000D01*
X85270971Y-117685330D01*
X84946115Y-118171511D01*
X84832041Y-118745000D01*
X84946115Y-119318489D01*
X85270971Y-119804670D01*
X85585752Y-120015000D01*
X85270971Y-120225330D01*
X84946115Y-120711511D01*
X84832041Y-121285000D01*
X84946115Y-121858489D01*
X85270971Y-122344670D01*
X85585752Y-122555000D01*
X85270971Y-122765330D01*
X84946115Y-123251511D01*
X84832041Y-123825000D01*
X84946115Y-124398489D01*
X85270971Y-124884670D01*
X85585752Y-125095000D01*
X85270971Y-125305330D01*
X84946115Y-125791511D01*
X84832041Y-126365000D01*
X84946115Y-126938489D01*
X85270971Y-127424670D01*
X85585752Y-127635000D01*
X85270971Y-127845330D01*
X84946115Y-128331511D01*
X84832041Y-128905000D01*
X84946115Y-129478489D01*
X85270971Y-129964670D01*
X85585752Y-130175000D01*
X85270971Y-130385330D01*
X84946115Y-130871511D01*
X84832041Y-131445000D01*
X84946115Y-132018489D01*
X85270971Y-132504670D01*
X85585752Y-132715000D01*
X85270971Y-132925330D01*
X84946115Y-133411511D01*
X84832041Y-133985000D01*
X84946115Y-134558489D01*
X85270971Y-135044670D01*
X85585752Y-135255000D01*
X85270971Y-135465330D01*
X84946115Y-135951511D01*
X84832041Y-136525000D01*
X84946115Y-137098489D01*
X85270971Y-137584670D01*
X85585752Y-137795000D01*
X85270971Y-138005330D01*
X84946115Y-138491511D01*
X84832041Y-139065000D01*
X84946115Y-139638489D01*
X85270971Y-140124670D01*
X85585752Y-140335000D01*
X85270971Y-140545330D01*
X84946115Y-141031511D01*
X84832041Y-141605000D01*
X84946115Y-142178489D01*
X85270971Y-142664670D01*
X85585752Y-142875000D01*
X85270971Y-143085330D01*
X84946115Y-143571511D01*
X84832041Y-144145000D01*
X84946115Y-144718489D01*
X85270971Y-145204670D01*
X85757152Y-145529526D01*
X86330641Y-145643600D01*
X86389359Y-145643600D01*
X86962848Y-145529526D01*
X87449029Y-145204670D01*
X87614212Y-144957456D01*
X87628808Y-144992780D01*
X88050003Y-145414710D01*
X88600602Y-145643339D01*
X89196782Y-145643859D01*
X89747780Y-145416192D01*
X90169710Y-144994997D01*
X90398339Y-144444398D01*
X90398859Y-143848218D01*
X90171192Y-143297220D01*
X89749997Y-142875290D01*
X89703012Y-142855780D01*
X89989029Y-142664670D01*
X90313885Y-142178489D01*
X90427959Y-141605000D01*
X90313885Y-141031511D01*
X89989029Y-140545330D01*
X89674248Y-140335000D01*
X89989029Y-140124670D01*
X90313885Y-139638489D01*
X90427959Y-139065000D01*
X90313885Y-138491511D01*
X89989029Y-138005330D01*
X89674248Y-137795000D01*
X89989029Y-137584670D01*
X90313885Y-137098489D01*
X90427959Y-136525000D01*
X90313885Y-135951511D01*
X89989029Y-135465330D01*
X89674248Y-135255000D01*
X89989029Y-135044670D01*
X90313885Y-134558489D01*
X90427959Y-133985000D01*
X90313885Y-133411511D01*
X89989029Y-132925330D01*
X89674248Y-132715000D01*
X89989029Y-132504670D01*
X90313885Y-132018489D01*
X90427959Y-131445000D01*
X90313885Y-130871511D01*
X89989029Y-130385330D01*
X89674248Y-130175000D01*
X89989029Y-129964670D01*
X90313885Y-129478489D01*
X90427959Y-128905000D01*
X90313885Y-128331511D01*
X89989029Y-127845330D01*
X89674248Y-127635000D01*
X89989029Y-127424670D01*
X90313885Y-126938489D01*
X90427959Y-126365000D01*
X90313885Y-125791511D01*
X89989029Y-125305330D01*
X89674248Y-125095000D01*
X89989029Y-124884670D01*
X90313885Y-124398489D01*
X90427959Y-123825000D01*
X90313885Y-123251511D01*
X89989029Y-122765330D01*
X89674248Y-122555000D01*
X89989029Y-122344670D01*
X90313885Y-121858489D01*
X90427959Y-121285000D01*
X90313885Y-120711511D01*
X89989029Y-120225330D01*
X89674248Y-120015000D01*
X89989029Y-119804670D01*
X90313885Y-119318489D01*
X90427959Y-118745000D01*
X90313885Y-118171511D01*
X89989029Y-117685330D01*
X89674248Y-117475000D01*
X89989029Y-117264670D01*
X90313885Y-116778489D01*
X90427959Y-116205000D01*
X90313885Y-115631511D01*
X89989029Y-115145330D01*
X89674248Y-114935000D01*
X89989029Y-114724670D01*
X90313885Y-114238489D01*
X90427959Y-113665000D01*
X90313885Y-113091511D01*
X89989029Y-112605330D01*
X89674248Y-112395000D01*
X89989029Y-112184670D01*
X90313885Y-111698489D01*
X90427959Y-111125000D01*
X90313885Y-110551511D01*
X89989029Y-110065330D01*
X89674248Y-109855000D01*
X89989029Y-109644670D01*
X90313885Y-109158489D01*
X90427959Y-108585000D01*
X90313885Y-108011511D01*
X89989029Y-107525330D01*
X89674248Y-107315000D01*
X89989029Y-107104670D01*
X90313885Y-106618489D01*
X90427959Y-106045000D01*
X90313885Y-105471511D01*
X89989029Y-104985330D01*
X89674248Y-104775000D01*
X89989029Y-104564670D01*
X90313885Y-104078489D01*
X90427959Y-103505000D01*
X90313885Y-102931511D01*
X89989029Y-102445330D01*
X89674248Y-102235000D01*
X89989029Y-102024670D01*
X90313885Y-101538489D01*
X90427959Y-100965000D01*
X90313885Y-100391511D01*
X89989029Y-99905330D01*
X89674248Y-99695000D01*
X89989029Y-99484670D01*
X90313885Y-98998489D01*
X90365463Y-98739187D01*
X90659752Y-98739187D01*
X90877757Y-99266800D01*
X91281077Y-99670824D01*
X91411215Y-99724862D01*
X91283200Y-99777757D01*
X90879176Y-100181077D01*
X90660250Y-100708309D01*
X90659752Y-101279187D01*
X90877757Y-101806800D01*
X91281077Y-102210824D01*
X91411215Y-102264862D01*
X91283200Y-102317757D01*
X90879176Y-102721077D01*
X90660250Y-103248309D01*
X90659752Y-103819187D01*
X90877757Y-104346800D01*
X91281077Y-104750824D01*
X91411215Y-104804862D01*
X91283200Y-104857757D01*
X90879176Y-105261077D01*
X90660250Y-105788309D01*
X90659752Y-106359187D01*
X90877757Y-106886800D01*
X91281077Y-107290824D01*
X91411215Y-107344862D01*
X91283200Y-107397757D01*
X90879176Y-107801077D01*
X90660250Y-108328309D01*
X90659752Y-108899187D01*
X90877757Y-109426800D01*
X91281077Y-109830824D01*
X91411215Y-109884862D01*
X91283200Y-109937757D01*
X90879176Y-110341077D01*
X90660250Y-110868309D01*
X90659752Y-111439187D01*
X90877757Y-111966800D01*
X91281077Y-112370824D01*
X91411215Y-112424862D01*
X91283200Y-112477757D01*
X90879176Y-112881077D01*
X90660250Y-113408309D01*
X90659752Y-113979187D01*
X90877757Y-114506800D01*
X91281077Y-114910824D01*
X91411215Y-114964862D01*
X91283200Y-115017757D01*
X90879176Y-115421077D01*
X90660250Y-115948309D01*
X90659752Y-116519187D01*
X90877757Y-117046800D01*
X91281077Y-117450824D01*
X91411215Y-117504862D01*
X91283200Y-117557757D01*
X90879176Y-117961077D01*
X90660250Y-118488309D01*
X90659752Y-119059187D01*
X90877757Y-119586800D01*
X91281077Y-119990824D01*
X91411215Y-120044862D01*
X91283200Y-120097757D01*
X90879176Y-120501077D01*
X90660250Y-121028309D01*
X90659752Y-121599187D01*
X90877757Y-122126800D01*
X91281077Y-122530824D01*
X91411215Y-122584862D01*
X91283200Y-122637757D01*
X90879176Y-123041077D01*
X90660250Y-123568309D01*
X90659752Y-124139187D01*
X90877757Y-124666800D01*
X91281077Y-125070824D01*
X91411215Y-125124862D01*
X91283200Y-125177757D01*
X90879176Y-125581077D01*
X90660250Y-126108309D01*
X90659752Y-126679187D01*
X90877757Y-127206800D01*
X91281077Y-127610824D01*
X91411215Y-127664862D01*
X91283200Y-127717757D01*
X90879176Y-128121077D01*
X90660250Y-128648309D01*
X90659752Y-129219187D01*
X90877757Y-129746800D01*
X91281077Y-130150824D01*
X91411215Y-130204862D01*
X91283200Y-130257757D01*
X90879176Y-130661077D01*
X90660250Y-131188309D01*
X90659752Y-131759187D01*
X90877757Y-132286800D01*
X91281077Y-132690824D01*
X91411215Y-132744862D01*
X91283200Y-132797757D01*
X90879176Y-133201077D01*
X90660250Y-133728309D01*
X90659752Y-134299187D01*
X90877757Y-134826800D01*
X91281077Y-135230824D01*
X91411215Y-135284862D01*
X91283200Y-135337757D01*
X90879176Y-135741077D01*
X90660250Y-136268309D01*
X90659752Y-136839187D01*
X90877757Y-137366800D01*
X91281077Y-137770824D01*
X91411215Y-137824862D01*
X91283200Y-137877757D01*
X90879176Y-138281077D01*
X90660250Y-138808309D01*
X90659752Y-139379187D01*
X90877757Y-139906800D01*
X91281077Y-140310824D01*
X91411215Y-140364862D01*
X91283200Y-140417757D01*
X90879176Y-140821077D01*
X90660250Y-141348309D01*
X90659752Y-141919187D01*
X90877757Y-142446800D01*
X91281077Y-142850824D01*
X91411215Y-142904862D01*
X91283200Y-142957757D01*
X90879176Y-143361077D01*
X90660250Y-143888309D01*
X90659752Y-144459187D01*
X90877757Y-144986800D01*
X91281077Y-145390824D01*
X91808309Y-145609750D01*
X92379187Y-145610248D01*
X92906800Y-145392243D01*
X93310824Y-144988923D01*
X93529750Y-144461691D01*
X93530248Y-143890813D01*
X93312243Y-143363200D01*
X92908923Y-142959176D01*
X92778785Y-142905138D01*
X92906800Y-142852243D01*
X93310824Y-142448923D01*
X93529750Y-141921691D01*
X93530248Y-141350813D01*
X93312243Y-140823200D01*
X92908923Y-140419176D01*
X92778785Y-140365138D01*
X92906800Y-140312243D01*
X93310824Y-139908923D01*
X93529750Y-139381691D01*
X93530248Y-138810813D01*
X93312243Y-138283200D01*
X92908923Y-137879176D01*
X92778785Y-137825138D01*
X92906800Y-137772243D01*
X93310824Y-137368923D01*
X93529750Y-136841691D01*
X93530248Y-136270813D01*
X93312243Y-135743200D01*
X92908923Y-135339176D01*
X92778785Y-135285138D01*
X92906800Y-135232243D01*
X93310824Y-134828923D01*
X93529750Y-134301691D01*
X93530248Y-133730813D01*
X93312243Y-133203200D01*
X92908923Y-132799176D01*
X92778785Y-132745138D01*
X92906800Y-132692243D01*
X93310824Y-132288923D01*
X93529750Y-131761691D01*
X93530248Y-131190813D01*
X93312243Y-130663200D01*
X92908923Y-130259176D01*
X92778785Y-130205138D01*
X92906800Y-130152243D01*
X93310824Y-129748923D01*
X93529750Y-129221691D01*
X93530248Y-128650813D01*
X93312243Y-128123200D01*
X92908923Y-127719176D01*
X92778785Y-127665138D01*
X92906800Y-127612243D01*
X93310824Y-127208923D01*
X93529750Y-126681691D01*
X93530248Y-126110813D01*
X93312243Y-125583200D01*
X92908923Y-125179176D01*
X92778785Y-125125138D01*
X92906800Y-125072243D01*
X93310824Y-124668923D01*
X93529750Y-124141691D01*
X93530248Y-123570813D01*
X93312243Y-123043200D01*
X92908923Y-122639176D01*
X92778785Y-122585138D01*
X92906800Y-122532243D01*
X93310824Y-122128923D01*
X93529750Y-121601691D01*
X93530248Y-121030813D01*
X93312243Y-120503200D01*
X92908923Y-120099176D01*
X92778785Y-120045138D01*
X92906800Y-119992243D01*
X93310824Y-119588923D01*
X93529750Y-119061691D01*
X93530248Y-118490813D01*
X93312243Y-117963200D01*
X92908923Y-117559176D01*
X92778785Y-117505138D01*
X92906800Y-117452243D01*
X93310824Y-117048923D01*
X93529750Y-116521691D01*
X93530248Y-115950813D01*
X93312243Y-115423200D01*
X92908923Y-115019176D01*
X92778785Y-114965138D01*
X92906800Y-114912243D01*
X93310824Y-114508923D01*
X93529750Y-113981691D01*
X93530248Y-113410813D01*
X93312243Y-112883200D01*
X92908923Y-112479176D01*
X92778785Y-112425138D01*
X92906800Y-112372243D01*
X93310824Y-111968923D01*
X93529750Y-111441691D01*
X93530248Y-110870813D01*
X93312243Y-110343200D01*
X92908923Y-109939176D01*
X92778785Y-109885138D01*
X92906800Y-109832243D01*
X93310824Y-109428923D01*
X93529750Y-108901691D01*
X93530248Y-108330813D01*
X93312243Y-107803200D01*
X92908923Y-107399176D01*
X92778785Y-107345138D01*
X92906800Y-107292243D01*
X93310824Y-106888923D01*
X93529750Y-106361691D01*
X93530248Y-105790813D01*
X93312243Y-105263200D01*
X92908923Y-104859176D01*
X92778785Y-104805138D01*
X92906800Y-104752243D01*
X93310824Y-104348923D01*
X93529750Y-103821691D01*
X93530010Y-103523620D01*
X93564694Y-103546795D01*
X93652283Y-103564218D01*
X93742401Y-103601638D01*
X93840838Y-103601724D01*
X93929200Y-103619300D01*
X94016791Y-103601877D01*
X94114367Y-103601962D01*
X94205343Y-103564372D01*
X94293706Y-103546795D01*
X94367961Y-103497179D01*
X94458143Y-103459917D01*
X94527810Y-103390372D01*
X94602719Y-103340319D01*
X95974319Y-101968719D01*
X96180795Y-101659706D01*
X96185176Y-101637681D01*
X96253300Y-101295200D01*
X96253300Y-95758000D01*
X96235877Y-95670409D01*
X96235962Y-95572833D01*
X96198372Y-95481857D01*
X96180795Y-95393494D01*
X96131179Y-95319239D01*
X96093917Y-95229057D01*
X96024372Y-95159390D01*
X95974319Y-95084481D01*
X95900064Y-95034865D01*
X95831127Y-94965808D01*
X95740216Y-94928058D01*
X95665306Y-94878005D01*
X95577717Y-94860582D01*
X95487599Y-94823162D01*
X95389162Y-94823076D01*
X95300800Y-94805500D01*
X95213209Y-94822923D01*
X95115633Y-94822838D01*
X95024657Y-94860428D01*
X94936294Y-94878005D01*
X94862039Y-94927621D01*
X94771857Y-94964883D01*
X94702190Y-95034428D01*
X94627281Y-95084481D01*
X94577665Y-95158736D01*
X94508608Y-95227673D01*
X94470858Y-95318584D01*
X94420805Y-95393494D01*
X94403382Y-95481083D01*
X94365962Y-95571201D01*
X94365876Y-95669638D01*
X94348300Y-95758000D01*
X94348300Y-100900662D01*
X93255681Y-101993281D01*
X93206065Y-102067536D01*
X93137008Y-102136473D01*
X93099258Y-102227384D01*
X93049205Y-102302294D01*
X93031782Y-102389883D01*
X93016426Y-102426866D01*
X92908923Y-102319176D01*
X92778785Y-102265138D01*
X92906800Y-102212243D01*
X93310824Y-101808923D01*
X93529750Y-101281691D01*
X93530248Y-100710813D01*
X93312243Y-100183200D01*
X92908923Y-99779176D01*
X92778785Y-99725138D01*
X92906800Y-99672243D01*
X93310824Y-99268923D01*
X93529750Y-98741691D01*
X93530248Y-98170813D01*
X93312243Y-97643200D01*
X92908923Y-97239176D01*
X92794232Y-97191552D01*
X92849005Y-97168864D01*
X92923139Y-96922745D01*
X92095000Y-96094605D01*
X91266861Y-96922745D01*
X91340995Y-97168864D01*
X91399254Y-97189805D01*
X91283200Y-97237757D01*
X90879176Y-97641077D01*
X90660250Y-98168309D01*
X90659752Y-98739187D01*
X90365463Y-98739187D01*
X90427959Y-98425000D01*
X90313885Y-97851511D01*
X89989029Y-97365330D01*
X89665772Y-97149336D01*
X89788490Y-97091821D01*
X90182688Y-96659947D01*
X90354958Y-96244026D01*
X90233817Y-96012000D01*
X89027000Y-96012000D01*
X89027000Y-96032000D01*
X88773000Y-96032000D01*
X88773000Y-96012000D01*
X86487000Y-96012000D01*
X86487000Y-96032000D01*
X86233000Y-96032000D01*
X86233000Y-96012000D01*
X85026183Y-96012000D01*
X84905042Y-96244026D01*
X85077312Y-96659947D01*
X85471510Y-97091821D01*
X85594228Y-97149336D01*
X85270971Y-97365330D01*
X84946115Y-97851511D01*
X84832041Y-98425000D01*
X71805000Y-98425000D01*
X71805000Y-95525974D01*
X84905042Y-95525974D01*
X85026183Y-95758000D01*
X86233000Y-95758000D01*
X86233000Y-94550531D01*
X86487000Y-94550531D01*
X86487000Y-95758000D01*
X88773000Y-95758000D01*
X88773000Y-94550531D01*
X89027000Y-94550531D01*
X89027000Y-95758000D01*
X90233817Y-95758000D01*
X90265026Y-95698223D01*
X90648035Y-95698223D01*
X90675222Y-96268454D01*
X90841136Y-96669005D01*
X91087255Y-96743139D01*
X91915395Y-95915000D01*
X92274605Y-95915000D01*
X93102745Y-96743139D01*
X93348864Y-96669005D01*
X93541965Y-96131777D01*
X93514778Y-95561546D01*
X93348864Y-95160995D01*
X93102745Y-95086861D01*
X92274605Y-95915000D01*
X91915395Y-95915000D01*
X91087255Y-95086861D01*
X90841136Y-95160995D01*
X90648035Y-95698223D01*
X90265026Y-95698223D01*
X90354958Y-95525974D01*
X90182688Y-95110053D01*
X89997582Y-94907255D01*
X91266861Y-94907255D01*
X92095000Y-95735395D01*
X92923139Y-94907255D01*
X92849005Y-94661136D01*
X92311777Y-94468035D01*
X91741546Y-94495222D01*
X91340995Y-94661136D01*
X91266861Y-94907255D01*
X89997582Y-94907255D01*
X89788490Y-94678179D01*
X89259027Y-94430032D01*
X89027000Y-94550531D01*
X88773000Y-94550531D01*
X88540973Y-94430032D01*
X88011510Y-94678179D01*
X87630000Y-95096152D01*
X87248490Y-94678179D01*
X86719027Y-94430032D01*
X86487000Y-94550531D01*
X86233000Y-94550531D01*
X86000973Y-94430032D01*
X85471510Y-94678179D01*
X85077312Y-95110053D01*
X84905042Y-95525974D01*
X71805000Y-95525974D01*
X71805000Y-88885854D01*
X72429457Y-88885854D01*
X72905727Y-90038515D01*
X73786847Y-90921174D01*
X74938674Y-91399454D01*
X76185854Y-91400543D01*
X77338515Y-90924273D01*
X78221174Y-90043153D01*
X78358348Y-89712800D01*
X93942160Y-89712800D01*
X93942160Y-91744800D01*
X93986438Y-91980117D01*
X94125510Y-92196241D01*
X94337710Y-92341231D01*
X94589600Y-92392240D01*
X96316800Y-92392240D01*
X96552117Y-92347962D01*
X96768241Y-92208890D01*
X96913231Y-91996690D01*
X96921600Y-91955361D01*
X96933530Y-91973215D01*
X97419711Y-92298071D01*
X97993200Y-92412145D01*
X98566689Y-92298071D01*
X99052870Y-91973215D01*
X99263200Y-91658434D01*
X99473530Y-91973215D01*
X99959711Y-92298071D01*
X100533200Y-92412145D01*
X101106689Y-92298071D01*
X101592870Y-91973215D01*
X101803200Y-91658434D01*
X102013530Y-91973215D01*
X102499711Y-92298071D01*
X103073200Y-92412145D01*
X103646689Y-92298071D01*
X104132870Y-91973215D01*
X104343200Y-91658434D01*
X104553530Y-91973215D01*
X105039711Y-92298071D01*
X105613200Y-92412145D01*
X106186689Y-92298071D01*
X106672870Y-91973215D01*
X106883200Y-91658434D01*
X107093530Y-91973215D01*
X107579711Y-92298071D01*
X108153200Y-92412145D01*
X108726689Y-92298071D01*
X109212870Y-91973215D01*
X109537726Y-91487034D01*
X109651800Y-90913545D01*
X109651800Y-90544055D01*
X109537726Y-89970566D01*
X109212870Y-89484385D01*
X108726689Y-89159529D01*
X108153200Y-89045455D01*
X107579711Y-89159529D01*
X107093530Y-89484385D01*
X106883200Y-89799166D01*
X106672870Y-89484385D01*
X106186689Y-89159529D01*
X105613200Y-89045455D01*
X105039711Y-89159529D01*
X104553530Y-89484385D01*
X104343200Y-89799166D01*
X104132870Y-89484385D01*
X103646689Y-89159529D01*
X103073200Y-89045455D01*
X102499711Y-89159529D01*
X102013530Y-89484385D01*
X101803200Y-89799166D01*
X101592870Y-89484385D01*
X101485700Y-89412776D01*
X101485700Y-88989738D01*
X101638938Y-88836500D01*
X138645062Y-88836500D01*
X138696700Y-88888139D01*
X138696700Y-122389062D01*
X138392856Y-122692906D01*
X138594750Y-122206691D01*
X138595248Y-121635813D01*
X138377243Y-121108200D01*
X137973923Y-120704176D01*
X137843785Y-120650138D01*
X137971800Y-120597243D01*
X138375824Y-120193923D01*
X138594750Y-119666691D01*
X138595248Y-119095813D01*
X138377243Y-118568200D01*
X137973923Y-118164176D01*
X137843785Y-118110138D01*
X137971800Y-118057243D01*
X138375824Y-117653923D01*
X138594750Y-117126691D01*
X138595248Y-116555813D01*
X138377243Y-116028200D01*
X137973923Y-115624176D01*
X137843785Y-115570138D01*
X137971800Y-115517243D01*
X138375824Y-115113923D01*
X138594750Y-114586691D01*
X138595248Y-114015813D01*
X138377243Y-113488200D01*
X137973923Y-113084176D01*
X137843785Y-113030138D01*
X137971800Y-112977243D01*
X138375824Y-112573923D01*
X138594750Y-112046691D01*
X138595248Y-111475813D01*
X138377243Y-110948200D01*
X137973923Y-110544176D01*
X137843785Y-110490138D01*
X137971800Y-110437243D01*
X138375824Y-110033923D01*
X138594750Y-109506691D01*
X138595248Y-108935813D01*
X138377243Y-108408200D01*
X137973923Y-108004176D01*
X137843785Y-107950138D01*
X137971800Y-107897243D01*
X138375824Y-107493923D01*
X138594750Y-106966691D01*
X138595248Y-106395813D01*
X138377243Y-105868200D01*
X137973923Y-105464176D01*
X137843785Y-105410138D01*
X137971800Y-105357243D01*
X138375824Y-104953923D01*
X138594750Y-104426691D01*
X138595248Y-103855813D01*
X138377243Y-103328200D01*
X137973923Y-102924176D01*
X137599588Y-102768738D01*
X137886943Y-102650005D01*
X138248735Y-102288845D01*
X138444777Y-101816724D01*
X138445223Y-101305519D01*
X138250005Y-100833057D01*
X137888845Y-100471265D01*
X137584765Y-100345000D01*
X137936310Y-100345000D01*
X138169699Y-100248327D01*
X138348327Y-100069698D01*
X138445000Y-99836309D01*
X138445000Y-99345750D01*
X138286250Y-99187000D01*
X137287000Y-99187000D01*
X137287000Y-99207000D01*
X137033000Y-99207000D01*
X137033000Y-99187000D01*
X136033750Y-99187000D01*
X135875000Y-99345750D01*
X135875000Y-99836309D01*
X135971673Y-100069698D01*
X136150301Y-100248327D01*
X136383690Y-100345000D01*
X136735567Y-100345000D01*
X136433057Y-100469995D01*
X136071265Y-100831155D01*
X135875223Y-101303276D01*
X135874777Y-101814481D01*
X136069995Y-102286943D01*
X136431155Y-102648735D01*
X136720553Y-102768904D01*
X136348200Y-102922757D01*
X135944176Y-103326077D01*
X135725250Y-103853309D01*
X135724752Y-104424187D01*
X135942757Y-104951800D01*
X136346077Y-105355824D01*
X136476215Y-105409862D01*
X136348200Y-105462757D01*
X135944176Y-105866077D01*
X135725250Y-106393309D01*
X135724900Y-106794528D01*
X135724900Y-104546400D01*
X135652395Y-104181894D01*
X135522572Y-103987600D01*
X135445920Y-103872881D01*
X134887119Y-103314081D01*
X134812864Y-103264465D01*
X134743927Y-103195408D01*
X134653016Y-103157658D01*
X134578106Y-103107605D01*
X134490517Y-103090182D01*
X134400399Y-103052762D01*
X134301962Y-103052676D01*
X134213600Y-103035100D01*
X134126009Y-103052523D01*
X134028433Y-103052438D01*
X133937457Y-103090028D01*
X133849094Y-103107605D01*
X133774839Y-103157221D01*
X133751839Y-103166724D01*
X133746064Y-103162865D01*
X133677127Y-103093808D01*
X133586216Y-103056058D01*
X133511306Y-103006005D01*
X133423717Y-102988582D01*
X133333599Y-102951162D01*
X133235162Y-102951076D01*
X133146800Y-102933500D01*
X133059209Y-102950923D01*
X132961633Y-102950838D01*
X132870657Y-102988428D01*
X132782294Y-103006005D01*
X132708039Y-103055621D01*
X132617857Y-103092883D01*
X132548190Y-103162428D01*
X132473281Y-103212481D01*
X132423665Y-103286736D01*
X132354608Y-103355673D01*
X132334126Y-103404999D01*
X132314317Y-103357057D01*
X132244772Y-103287390D01*
X132194719Y-103212481D01*
X132120464Y-103162865D01*
X132051527Y-103093808D01*
X131960616Y-103056058D01*
X131885706Y-103006005D01*
X131798117Y-102988582D01*
X131707999Y-102951162D01*
X131609562Y-102951076D01*
X131521200Y-102933500D01*
X131433609Y-102950923D01*
X131336033Y-102950838D01*
X131245057Y-102988428D01*
X131156694Y-103006005D01*
X131082439Y-103055621D01*
X130992257Y-103092883D01*
X130922590Y-103162428D01*
X130911600Y-103169772D01*
X130901264Y-103162865D01*
X130832327Y-103093808D01*
X130741416Y-103056058D01*
X130666506Y-103006005D01*
X130578917Y-102988582D01*
X130488799Y-102951162D01*
X130390362Y-102951076D01*
X130302000Y-102933500D01*
X130214409Y-102950923D01*
X130116833Y-102950838D01*
X130025857Y-102988428D01*
X129937494Y-103006005D01*
X129863239Y-103055621D01*
X129773057Y-103092883D01*
X129703390Y-103162428D01*
X129628481Y-103212481D01*
X129577681Y-103263281D01*
X129528243Y-103337270D01*
X129509808Y-103355673D01*
X129499731Y-103379942D01*
X129371205Y-103572294D01*
X129298700Y-103936800D01*
X129298700Y-111709200D01*
X129316123Y-111796791D01*
X129316038Y-111894367D01*
X129353628Y-111985343D01*
X129371205Y-112073706D01*
X129420821Y-112147961D01*
X129458083Y-112238143D01*
X129527628Y-112307810D01*
X129577681Y-112382719D01*
X129651936Y-112432335D01*
X129720873Y-112501392D01*
X129811784Y-112539142D01*
X129886694Y-112589195D01*
X129974283Y-112606618D01*
X130064401Y-112644038D01*
X130162838Y-112644124D01*
X130251200Y-112661700D01*
X130338791Y-112644277D01*
X130436367Y-112644362D01*
X130527343Y-112606772D01*
X130568700Y-112598545D01*
X130568700Y-114096800D01*
X130586123Y-114184391D01*
X130586038Y-114281967D01*
X130623628Y-114372943D01*
X130641205Y-114461306D01*
X130690821Y-114535561D01*
X130728083Y-114625743D01*
X130797628Y-114695410D01*
X130847681Y-114770319D01*
X130921936Y-114819935D01*
X130990873Y-114888992D01*
X131081784Y-114926742D01*
X131156694Y-114976795D01*
X131244283Y-114994218D01*
X131334401Y-115031638D01*
X131432838Y-115031724D01*
X131521200Y-115049300D01*
X131608791Y-115031877D01*
X131706367Y-115031962D01*
X131797343Y-114994372D01*
X131885706Y-114976795D01*
X131959961Y-114927179D01*
X132050143Y-114889917D01*
X132119810Y-114820372D01*
X132194300Y-114770599D01*
X132194300Y-119786400D01*
X132266805Y-120150906D01*
X132473281Y-120459919D01*
X134606881Y-122593519D01*
X134915894Y-122799995D01*
X135280400Y-122872500D01*
X136083212Y-122872500D01*
X136346077Y-123135824D01*
X136476215Y-123189862D01*
X136348200Y-123242757D01*
X135944176Y-123646077D01*
X135725250Y-124173309D01*
X135725054Y-124397620D01*
X128774218Y-117446784D01*
X128506407Y-117267838D01*
X128190501Y-117205001D01*
X123322233Y-117205001D01*
X123354750Y-117126691D01*
X123355248Y-116555813D01*
X123137243Y-116028200D01*
X122733923Y-115624176D01*
X122603785Y-115570138D01*
X122731800Y-115517243D01*
X123135824Y-115113923D01*
X123354750Y-114586691D01*
X123355248Y-114015813D01*
X123137243Y-113488200D01*
X122733923Y-113084176D01*
X122603785Y-113030138D01*
X122731800Y-112977243D01*
X123135824Y-112573923D01*
X123354750Y-112046691D01*
X123355248Y-111475813D01*
X123137243Y-110948200D01*
X122733923Y-110544176D01*
X122603785Y-110490138D01*
X122731800Y-110437243D01*
X123135824Y-110033923D01*
X123354750Y-109506691D01*
X123355248Y-108935813D01*
X123137243Y-108408200D01*
X122733923Y-108004176D01*
X122603785Y-107950138D01*
X122731800Y-107897243D01*
X123135824Y-107493923D01*
X123354750Y-106966691D01*
X123355248Y-106395813D01*
X123137243Y-105868200D01*
X122835312Y-105565742D01*
X122955317Y-105543162D01*
X123171441Y-105404090D01*
X123316431Y-105191890D01*
X123367440Y-104940000D01*
X123367440Y-103340000D01*
X123347985Y-103236603D01*
X123415343Y-103208772D01*
X123503706Y-103191195D01*
X123577961Y-103141579D01*
X123668143Y-103104317D01*
X123737810Y-103034772D01*
X123812719Y-102984719D01*
X123862335Y-102910464D01*
X123931392Y-102841527D01*
X123969142Y-102750616D01*
X124019195Y-102675706D01*
X124036618Y-102588117D01*
X124074038Y-102497999D01*
X124074124Y-102399562D01*
X124091700Y-102311200D01*
X124074277Y-102223609D01*
X124074362Y-102126033D01*
X124036772Y-102035057D01*
X124019195Y-101946694D01*
X123969579Y-101872439D01*
X123932317Y-101782257D01*
X123862772Y-101712590D01*
X123856199Y-101702754D01*
X123914319Y-101663919D01*
X123963935Y-101589664D01*
X124032992Y-101520727D01*
X124070742Y-101429816D01*
X124120795Y-101354906D01*
X124138218Y-101267317D01*
X124175638Y-101177199D01*
X124175724Y-101078762D01*
X124193300Y-100990400D01*
X124175877Y-100902809D01*
X124175962Y-100805233D01*
X124138372Y-100714257D01*
X124120795Y-100625894D01*
X124071179Y-100551639D01*
X124033917Y-100461457D01*
X123964372Y-100391790D01*
X123914319Y-100316881D01*
X123888919Y-100291481D01*
X123814797Y-100241954D01*
X123771127Y-100198208D01*
X123713537Y-100174294D01*
X123579906Y-100085005D01*
X123215400Y-100012500D01*
X118635638Y-100012500D01*
X118564029Y-99905330D01*
X118249248Y-99695000D01*
X118564029Y-99484670D01*
X118635638Y-99377500D01*
X122363662Y-99377500D01*
X122465681Y-99479519D01*
X122539936Y-99529135D01*
X122608873Y-99598192D01*
X122699784Y-99635942D01*
X122774694Y-99685995D01*
X122862282Y-99703417D01*
X122952401Y-99740838D01*
X123050842Y-99740924D01*
X123139200Y-99758499D01*
X123226787Y-99741077D01*
X123324367Y-99741162D01*
X123415344Y-99703571D01*
X123503706Y-99685995D01*
X123577961Y-99636379D01*
X123668143Y-99599117D01*
X123737810Y-99529572D01*
X123812719Y-99479519D01*
X123862335Y-99405264D01*
X123931392Y-99336327D01*
X123969142Y-99245416D01*
X124019195Y-99170506D01*
X124036617Y-99082918D01*
X124074038Y-98992799D01*
X124074124Y-98894358D01*
X124091699Y-98806000D01*
X124074277Y-98718413D01*
X124074362Y-98620833D01*
X124036771Y-98529856D01*
X124019195Y-98441494D01*
X123969579Y-98367239D01*
X123935059Y-98283691D01*
X135875000Y-98283691D01*
X135875000Y-98774250D01*
X136033750Y-98933000D01*
X137033000Y-98933000D01*
X137033000Y-97933750D01*
X137287000Y-97933750D01*
X137287000Y-98933000D01*
X138286250Y-98933000D01*
X138445000Y-98774250D01*
X138445000Y-98283691D01*
X138348327Y-98050302D01*
X138169699Y-97871673D01*
X137936310Y-97775000D01*
X137445750Y-97775000D01*
X137287000Y-97933750D01*
X137033000Y-97933750D01*
X136874250Y-97775000D01*
X136383690Y-97775000D01*
X136150301Y-97871673D01*
X135971673Y-98050302D01*
X135875000Y-98283691D01*
X123935059Y-98283691D01*
X123932317Y-98277057D01*
X123862772Y-98207390D01*
X123812719Y-98132481D01*
X123431719Y-97751481D01*
X123122706Y-97545005D01*
X122758200Y-97472500D01*
X118635638Y-97472500D01*
X118564029Y-97365330D01*
X118249248Y-97155000D01*
X118564029Y-96944670D01*
X118635638Y-96837500D01*
X122972364Y-96837500D01*
X122977894Y-96841195D01*
X123065483Y-96858618D01*
X123155601Y-96896038D01*
X123254038Y-96896124D01*
X123342400Y-96913700D01*
X123429991Y-96896277D01*
X123527567Y-96896362D01*
X123618543Y-96858772D01*
X123706906Y-96841195D01*
X123781161Y-96791579D01*
X123871343Y-96754317D01*
X123941010Y-96684772D01*
X124015919Y-96634719D01*
X124065535Y-96560464D01*
X124134592Y-96491527D01*
X124172342Y-96400616D01*
X124222395Y-96325706D01*
X124239818Y-96238117D01*
X124277238Y-96147999D01*
X124277324Y-96049562D01*
X124294900Y-95961200D01*
X124277477Y-95873609D01*
X124277562Y-95776033D01*
X124239972Y-95685057D01*
X124222395Y-95596694D01*
X124172779Y-95522439D01*
X124135517Y-95432257D01*
X124065972Y-95362590D01*
X124015919Y-95287681D01*
X123939719Y-95211481D01*
X123630706Y-95005005D01*
X123266200Y-94932500D01*
X118635638Y-94932500D01*
X118564029Y-94825330D01*
X118077848Y-94500474D01*
X117504359Y-94386400D01*
X117445641Y-94386400D01*
X116872152Y-94500474D01*
X116385971Y-94825330D01*
X116205000Y-95096172D01*
X116024029Y-94825330D01*
X115537848Y-94500474D01*
X114964359Y-94386400D01*
X114905641Y-94386400D01*
X114332152Y-94500474D01*
X113845971Y-94825330D01*
X113521115Y-95311511D01*
X113407041Y-95885000D01*
X113521115Y-96458489D01*
X113845971Y-96944670D01*
X114160752Y-97155000D01*
X113845971Y-97365330D01*
X113521115Y-97851511D01*
X113407041Y-98425000D01*
X113521115Y-98998489D01*
X113845971Y-99484670D01*
X114160752Y-99695000D01*
X113845971Y-99905330D01*
X113521115Y-100391511D01*
X113407041Y-100965000D01*
X113521115Y-101538489D01*
X113845971Y-102024670D01*
X114160752Y-102235000D01*
X113845971Y-102445330D01*
X113521115Y-102931511D01*
X113407041Y-103505000D01*
X113521115Y-104078489D01*
X113845971Y-104564670D01*
X114160752Y-104775000D01*
X113845971Y-104985330D01*
X113521115Y-105471511D01*
X113407041Y-106045000D01*
X113521115Y-106618489D01*
X113845971Y-107104670D01*
X114160752Y-107315000D01*
X113845971Y-107525330D01*
X113521115Y-108011511D01*
X113407041Y-108585000D01*
X113521115Y-109158489D01*
X113845971Y-109644670D01*
X114160752Y-109855000D01*
X113845971Y-110065330D01*
X113521115Y-110551511D01*
X113407041Y-111125000D01*
X113521115Y-111698489D01*
X113845971Y-112184670D01*
X114160752Y-112395000D01*
X113845971Y-112605330D01*
X113521115Y-113091511D01*
X113407041Y-113665000D01*
X113492295Y-114093601D01*
X108723281Y-114093601D01*
X108769750Y-113981691D01*
X108770248Y-113410813D01*
X108552243Y-112883200D01*
X108148923Y-112479176D01*
X108018785Y-112425138D01*
X108146800Y-112372243D01*
X108550824Y-111968923D01*
X108769750Y-111441691D01*
X108770248Y-110870813D01*
X108552243Y-110343200D01*
X108148923Y-109939176D01*
X108018785Y-109885138D01*
X108146800Y-109832243D01*
X108550824Y-109428923D01*
X108769750Y-108901691D01*
X108770248Y-108330813D01*
X108552243Y-107803200D01*
X108148923Y-107399176D01*
X108018785Y-107345138D01*
X108146800Y-107292243D01*
X108550824Y-106888923D01*
X108769750Y-106361691D01*
X108770248Y-105790813D01*
X108552243Y-105263200D01*
X108148923Y-104859176D01*
X108018785Y-104805138D01*
X108146800Y-104752243D01*
X108550824Y-104348923D01*
X108769750Y-103821691D01*
X108770248Y-103250813D01*
X108552243Y-102723200D01*
X108148923Y-102319176D01*
X108018785Y-102265138D01*
X108146800Y-102212243D01*
X108550824Y-101808923D01*
X108769750Y-101281691D01*
X108770248Y-100710813D01*
X108552243Y-100183200D01*
X108148923Y-99779176D01*
X108018785Y-99725138D01*
X108146800Y-99672243D01*
X108550824Y-99268923D01*
X108769750Y-98741691D01*
X108770248Y-98170813D01*
X108552243Y-97643200D01*
X108148923Y-97239176D01*
X108018785Y-97185138D01*
X108146800Y-97132243D01*
X108550824Y-96728923D01*
X108769750Y-96201691D01*
X108770248Y-95630813D01*
X108552243Y-95103200D01*
X108148923Y-94699176D01*
X107621691Y-94480250D01*
X107050813Y-94479752D01*
X106523200Y-94697757D01*
X106119176Y-95101077D01*
X105900250Y-95628309D01*
X105899752Y-96199187D01*
X106117757Y-96726800D01*
X106521077Y-97130824D01*
X106651215Y-97184862D01*
X106523200Y-97237757D01*
X106119176Y-97641077D01*
X105900250Y-98168309D01*
X105899752Y-98739187D01*
X106117757Y-99266800D01*
X106521077Y-99670824D01*
X106651215Y-99724862D01*
X106523200Y-99777757D01*
X106119176Y-100181077D01*
X105900250Y-100708309D01*
X105899752Y-101279187D01*
X106117757Y-101806800D01*
X106521077Y-102210824D01*
X106651215Y-102264862D01*
X106523200Y-102317757D01*
X106119176Y-102721077D01*
X105900250Y-103248309D01*
X105899752Y-103819187D01*
X106117757Y-104346800D01*
X106521077Y-104750824D01*
X106651215Y-104804862D01*
X106523200Y-104857757D01*
X106119176Y-105261077D01*
X105900250Y-105788309D01*
X105899752Y-106359187D01*
X106117757Y-106886800D01*
X106521077Y-107290824D01*
X106651215Y-107344862D01*
X106523200Y-107397757D01*
X106119176Y-107801077D01*
X105900250Y-108328309D01*
X105899752Y-108899187D01*
X106117757Y-109426800D01*
X106521077Y-109830824D01*
X106651215Y-109884862D01*
X106523200Y-109937757D01*
X106119176Y-110341077D01*
X105900250Y-110868309D01*
X105899752Y-111439187D01*
X106117757Y-111966800D01*
X106521077Y-112370824D01*
X106651215Y-112424862D01*
X106523200Y-112477757D01*
X106119176Y-112881077D01*
X105900250Y-113408309D01*
X105899777Y-113950738D01*
X104559519Y-112610481D01*
X104485264Y-112560865D01*
X104416327Y-112491808D01*
X104325416Y-112454058D01*
X104250506Y-112404005D01*
X104162917Y-112386582D01*
X104072799Y-112349162D01*
X103974362Y-112349076D01*
X103886000Y-112331500D01*
X103798409Y-112348923D01*
X103700833Y-112348838D01*
X103609857Y-112386428D01*
X103521494Y-112404005D01*
X103447239Y-112453621D01*
X103357057Y-112490883D01*
X103287390Y-112560428D01*
X103212481Y-112610481D01*
X103162865Y-112684736D01*
X103093808Y-112753673D01*
X103056058Y-112844584D01*
X103006005Y-112919494D01*
X102988582Y-113007083D01*
X102951162Y-113097201D01*
X102951076Y-113195638D01*
X102933500Y-113284000D01*
X102950923Y-113371591D01*
X102950838Y-113469167D01*
X102988428Y-113560143D01*
X103006005Y-113648506D01*
X103055621Y-113722761D01*
X103092883Y-113812943D01*
X103162428Y-113882610D01*
X103212481Y-113957519D01*
X104186169Y-114931208D01*
X104162917Y-114926582D01*
X104072799Y-114889162D01*
X103974362Y-114889076D01*
X103886000Y-114871500D01*
X103798409Y-114888923D01*
X103700833Y-114888838D01*
X103609857Y-114926428D01*
X103521494Y-114944005D01*
X103447239Y-114993621D01*
X103357057Y-115030883D01*
X103287390Y-115100428D01*
X103212481Y-115150481D01*
X103162865Y-115224736D01*
X103093808Y-115293673D01*
X103056058Y-115384584D01*
X103006005Y-115459494D01*
X102988582Y-115547083D01*
X102951162Y-115637201D01*
X102951076Y-115735638D01*
X102933500Y-115824000D01*
X102950923Y-115911591D01*
X102950838Y-116009167D01*
X102988428Y-116100143D01*
X103006005Y-116188506D01*
X103055621Y-116262761D01*
X103092883Y-116352943D01*
X103162428Y-116422610D01*
X103212481Y-116497519D01*
X104186170Y-117471208D01*
X104162917Y-117466582D01*
X104072799Y-117429162D01*
X103974362Y-117429076D01*
X103886000Y-117411500D01*
X103798409Y-117428923D01*
X103700833Y-117428838D01*
X103609857Y-117466428D01*
X103521494Y-117484005D01*
X103447239Y-117533621D01*
X103357057Y-117570883D01*
X103287390Y-117640428D01*
X103212481Y-117690481D01*
X103162865Y-117764736D01*
X103093808Y-117833673D01*
X103056058Y-117924584D01*
X103006005Y-117999494D01*
X102988582Y-118087083D01*
X102951162Y-118177201D01*
X102951076Y-118275638D01*
X102933500Y-118364000D01*
X102950923Y-118451591D01*
X102950838Y-118549167D01*
X102988428Y-118640143D01*
X103006005Y-118728506D01*
X103055621Y-118802761D01*
X103092883Y-118892943D01*
X103162428Y-118962610D01*
X103212481Y-119037519D01*
X104888881Y-120713919D01*
X105197894Y-120920395D01*
X105562400Y-120992900D01*
X105914953Y-120992900D01*
X105900250Y-121028309D01*
X105899752Y-121599187D01*
X106117757Y-122126800D01*
X106521077Y-122530824D01*
X106651215Y-122584862D01*
X106523200Y-122637757D01*
X106119176Y-123041077D01*
X106060887Y-123181453D01*
X105963999Y-123084565D01*
X105963999Y-122664499D01*
X105954113Y-122614799D01*
X105901162Y-122348593D01*
X105806396Y-122206767D01*
X105722216Y-122080782D01*
X105722213Y-122080780D01*
X105549994Y-121908561D01*
X105441117Y-121645057D01*
X105178327Y-121381808D01*
X104834799Y-121239162D01*
X104462833Y-121238838D01*
X104119057Y-121380883D01*
X103855808Y-121643673D01*
X103713162Y-121987201D01*
X103712838Y-122359167D01*
X103774707Y-122508902D01*
X103700833Y-122508838D01*
X103609857Y-122546428D01*
X103521494Y-122564005D01*
X103447239Y-122613621D01*
X103357057Y-122650883D01*
X103287390Y-122720428D01*
X103212481Y-122770481D01*
X103162865Y-122844736D01*
X103093808Y-122913673D01*
X103056058Y-123004584D01*
X103006005Y-123079494D01*
X102988582Y-123167083D01*
X102951162Y-123257201D01*
X102951076Y-123355638D01*
X102933500Y-123444000D01*
X102950923Y-123531591D01*
X102950838Y-123629167D01*
X102988428Y-123720143D01*
X103006005Y-123808506D01*
X103055621Y-123882761D01*
X103092883Y-123972943D01*
X103162428Y-124042610D01*
X103212481Y-124117519D01*
X103470824Y-124375862D01*
X103447239Y-124391621D01*
X103357057Y-124428883D01*
X103287390Y-124498428D01*
X103212481Y-124548481D01*
X103162865Y-124622736D01*
X103093808Y-124691673D01*
X103056058Y-124782584D01*
X103006005Y-124857494D01*
X102988582Y-124945083D01*
X102951162Y-125035201D01*
X102951076Y-125133638D01*
X102933500Y-125222000D01*
X102933500Y-130606800D01*
X103006005Y-130971306D01*
X103212481Y-131280319D01*
X105142881Y-133210719D01*
X105451894Y-133417195D01*
X105656648Y-133457923D01*
X105662396Y-133461764D01*
X105978301Y-133524602D01*
X105978306Y-133524601D01*
X105984837Y-133524601D01*
X105900250Y-133728309D01*
X105899752Y-134299187D01*
X105947027Y-134413601D01*
X103147039Y-134413601D01*
X101434900Y-132701462D01*
X101434900Y-122428000D01*
X101417477Y-122340409D01*
X101417562Y-122242833D01*
X101379972Y-122151857D01*
X101362395Y-122063494D01*
X101312779Y-121989239D01*
X101275517Y-121899057D01*
X101205972Y-121829390D01*
X101155919Y-121754481D01*
X101081664Y-121704865D01*
X101012727Y-121635808D01*
X100921816Y-121598058D01*
X100846906Y-121548005D01*
X100759317Y-121530582D01*
X100669199Y-121493162D01*
X100570762Y-121493076D01*
X100482400Y-121475500D01*
X100394809Y-121492923D01*
X100297233Y-121492838D01*
X100206257Y-121530428D01*
X100117894Y-121548005D01*
X100043639Y-121597621D01*
X99953457Y-121634883D01*
X99883790Y-121704428D01*
X99808881Y-121754481D01*
X99759265Y-121828736D01*
X99690208Y-121897673D01*
X99652458Y-121988584D01*
X99602405Y-122063494D01*
X99584982Y-122151083D01*
X99547562Y-122241201D01*
X99547476Y-122339638D01*
X99529900Y-122428000D01*
X99529900Y-133096000D01*
X99602405Y-133460506D01*
X99808881Y-133769519D01*
X101840881Y-135801519D01*
X102149894Y-136007995D01*
X102514400Y-136080500D01*
X102609913Y-136061501D01*
X102625501Y-136064602D01*
X102625506Y-136064601D01*
X105984837Y-136064601D01*
X105900250Y-136268309D01*
X105899752Y-136839187D01*
X106117757Y-137366800D01*
X106521077Y-137770824D01*
X106651215Y-137824862D01*
X106523200Y-137877757D01*
X106119176Y-138281077D01*
X105900250Y-138808309D01*
X105899752Y-139379187D01*
X106117757Y-139906800D01*
X106521077Y-140310824D01*
X106651215Y-140364862D01*
X106523200Y-140417757D01*
X106119176Y-140821077D01*
X105900250Y-141348309D01*
X105899752Y-141919187D01*
X106117757Y-142446800D01*
X106369761Y-142699244D01*
X106249683Y-142721838D01*
X106033559Y-142860910D01*
X105888569Y-143073110D01*
X105837560Y-143325000D01*
X105837560Y-145025000D01*
X105881838Y-145260317D01*
X106020910Y-145476441D01*
X106233110Y-145621431D01*
X106485000Y-145672440D01*
X108185000Y-145672440D01*
X108420317Y-145628162D01*
X108636441Y-145489090D01*
X108781431Y-145276890D01*
X108832440Y-145025000D01*
X108832440Y-143325000D01*
X108788162Y-143089683D01*
X108649090Y-142873559D01*
X108436890Y-142728569D01*
X108298719Y-142700589D01*
X108550824Y-142448923D01*
X108769750Y-141921691D01*
X108770248Y-141350813D01*
X108552243Y-140823200D01*
X108148923Y-140419176D01*
X108018785Y-140365138D01*
X108146800Y-140312243D01*
X108550824Y-139908923D01*
X108769750Y-139381691D01*
X108770248Y-138810813D01*
X108552243Y-138283200D01*
X108148923Y-137879176D01*
X108018785Y-137825138D01*
X108146800Y-137772243D01*
X108550824Y-137368923D01*
X108769750Y-136841691D01*
X108770248Y-136270813D01*
X108685043Y-136064601D01*
X113498620Y-136064601D01*
X113407041Y-136525000D01*
X113521115Y-137098489D01*
X113845971Y-137584670D01*
X114160752Y-137795000D01*
X113845971Y-138005330D01*
X113521115Y-138491511D01*
X113407041Y-139065000D01*
X113521115Y-139638489D01*
X113845971Y-140124670D01*
X114160752Y-140335000D01*
X113845971Y-140545330D01*
X113521115Y-141031511D01*
X113407041Y-141605000D01*
X113521115Y-142178489D01*
X113845971Y-142664670D01*
X114160752Y-142875000D01*
X113845971Y-143085330D01*
X113521115Y-143571511D01*
X113407041Y-144145000D01*
X113521115Y-144718489D01*
X113845971Y-145204670D01*
X114332152Y-145529526D01*
X114905641Y-145643600D01*
X114964359Y-145643600D01*
X115537848Y-145529526D01*
X116024029Y-145204670D01*
X116027947Y-145198805D01*
X116600800Y-145198805D01*
X116682741Y-145451516D01*
X117243030Y-145655248D01*
X117838635Y-145629058D01*
X118267259Y-145451516D01*
X118349200Y-145198805D01*
X117475000Y-144324605D01*
X116600800Y-145198805D01*
X116027947Y-145198805D01*
X116196613Y-144946380D01*
X116421195Y-145019200D01*
X117295395Y-144145000D01*
X117654605Y-144145000D01*
X118528805Y-145019200D01*
X118781516Y-144937259D01*
X118985248Y-144376970D01*
X118968835Y-144003691D01*
X128255000Y-144003691D01*
X128255000Y-144494250D01*
X128413750Y-144653000D01*
X129413000Y-144653000D01*
X129413000Y-143653750D01*
X129667000Y-143653750D01*
X129667000Y-144653000D01*
X130666250Y-144653000D01*
X130825000Y-144494250D01*
X130825000Y-144003691D01*
X130728327Y-143770302D01*
X130549699Y-143591673D01*
X130316310Y-143495000D01*
X129825750Y-143495000D01*
X129667000Y-143653750D01*
X129413000Y-143653750D01*
X129254250Y-143495000D01*
X128763690Y-143495000D01*
X128530301Y-143591673D01*
X128351673Y-143770302D01*
X128255000Y-144003691D01*
X118968835Y-144003691D01*
X118959058Y-143781365D01*
X118781516Y-143352741D01*
X118528805Y-143270800D01*
X117654605Y-144145000D01*
X117295395Y-144145000D01*
X116421195Y-143270800D01*
X116196613Y-143343620D01*
X116024029Y-143085330D01*
X115709248Y-142875000D01*
X116024029Y-142664670D01*
X116204992Y-142393839D01*
X116586510Y-142811821D01*
X116677551Y-142854490D01*
X116600800Y-143091195D01*
X117475000Y-143965395D01*
X118349200Y-143091195D01*
X118272449Y-142854490D01*
X118363490Y-142811821D01*
X118757688Y-142379947D01*
X118929958Y-141964026D01*
X118808817Y-141732000D01*
X117602000Y-141732000D01*
X117602000Y-141752000D01*
X117348000Y-141752000D01*
X117348000Y-141732000D01*
X117328000Y-141732000D01*
X117328000Y-141478000D01*
X117348000Y-141478000D01*
X117348000Y-139192000D01*
X117602000Y-139192000D01*
X117602000Y-141478000D01*
X118808817Y-141478000D01*
X118929958Y-141245974D01*
X118757688Y-140830053D01*
X118363490Y-140398179D01*
X118228687Y-140335000D01*
X118363490Y-140271821D01*
X118757688Y-139839947D01*
X118929958Y-139424026D01*
X118808817Y-139192000D01*
X117602000Y-139192000D01*
X117348000Y-139192000D01*
X117328000Y-139192000D01*
X117328000Y-138938000D01*
X117348000Y-138938000D01*
X117348000Y-138918000D01*
X117602000Y-138918000D01*
X117602000Y-138938000D01*
X118808817Y-138938000D01*
X118929958Y-138705974D01*
X118757688Y-138290053D01*
X118646050Y-138167745D01*
X121091861Y-138167745D01*
X121165995Y-138413864D01*
X121703223Y-138606965D01*
X122273454Y-138579778D01*
X122674005Y-138413864D01*
X122748139Y-138167745D01*
X121920000Y-137339605D01*
X121091861Y-138167745D01*
X118646050Y-138167745D01*
X118363490Y-137858179D01*
X118240772Y-137800664D01*
X118564029Y-137584670D01*
X118888885Y-137098489D01*
X118919769Y-136943223D01*
X120473035Y-136943223D01*
X120500222Y-137513454D01*
X120666136Y-137914005D01*
X120912255Y-137988139D01*
X121740395Y-137160000D01*
X122099605Y-137160000D01*
X122927745Y-137988139D01*
X123173864Y-137914005D01*
X123366965Y-137376777D01*
X123339778Y-136806546D01*
X123173864Y-136405995D01*
X122927745Y-136331861D01*
X122099605Y-137160000D01*
X121740395Y-137160000D01*
X120912255Y-136331861D01*
X120666136Y-136405995D01*
X120473035Y-136943223D01*
X118919769Y-136943223D01*
X119002959Y-136525000D01*
X118911380Y-136064601D01*
X120169529Y-136064601D01*
X120485435Y-136001764D01*
X120753246Y-135822818D01*
X120923318Y-135652746D01*
X121106077Y-135835824D01*
X121220768Y-135883448D01*
X121165995Y-135906136D01*
X121091861Y-136152255D01*
X121920000Y-136980395D01*
X122748139Y-136152255D01*
X122674005Y-135906136D01*
X122615746Y-135885195D01*
X122731800Y-135837243D01*
X123135824Y-135433923D01*
X123354750Y-134906691D01*
X123355248Y-134335813D01*
X123137243Y-133808200D01*
X122733923Y-133404176D01*
X122603785Y-133350138D01*
X122731800Y-133297243D01*
X123135824Y-132893923D01*
X123354750Y-132366691D01*
X123355248Y-131795813D01*
X123277560Y-131607794D01*
X129413481Y-137743714D01*
X129413483Y-137743717D01*
X129616212Y-137879176D01*
X129681295Y-137922663D01*
X129997200Y-137985501D01*
X129997205Y-137985500D01*
X135956433Y-137985500D01*
X136346077Y-138375824D01*
X136873309Y-138594750D01*
X137444187Y-138595248D01*
X137971800Y-138377243D01*
X138181663Y-138167745D01*
X142681861Y-138167745D01*
X142755995Y-138413864D01*
X143293223Y-138606965D01*
X143863454Y-138579778D01*
X144264005Y-138413864D01*
X144338139Y-138167745D01*
X143510000Y-137339605D01*
X142681861Y-138167745D01*
X138181663Y-138167745D01*
X138375824Y-137973923D01*
X138594750Y-137446691D01*
X138595189Y-136943223D01*
X142063035Y-136943223D01*
X142090222Y-137513454D01*
X142256136Y-137914005D01*
X142502255Y-137988139D01*
X143330395Y-137160000D01*
X143689605Y-137160000D01*
X144517745Y-137988139D01*
X144763864Y-137914005D01*
X144956965Y-137376777D01*
X144929778Y-136806546D01*
X144763864Y-136405995D01*
X144517745Y-136331861D01*
X143689605Y-137160000D01*
X143330395Y-137160000D01*
X142502255Y-136331861D01*
X142256136Y-136405995D01*
X142063035Y-136943223D01*
X138595189Y-136943223D01*
X138595248Y-136875813D01*
X138377243Y-136348200D01*
X137973923Y-135944176D01*
X137843785Y-135890138D01*
X137971800Y-135837243D01*
X138375824Y-135433923D01*
X138594750Y-134906691D01*
X138595248Y-134335813D01*
X138377243Y-133808200D01*
X137973923Y-133404176D01*
X137843785Y-133350138D01*
X137971800Y-133297243D01*
X138375824Y-132893923D01*
X138594750Y-132366691D01*
X138595248Y-131795813D01*
X138377243Y-131268200D01*
X137973923Y-130864176D01*
X137843785Y-130810138D01*
X137971800Y-130757243D01*
X138375824Y-130353923D01*
X138594750Y-129826691D01*
X138595248Y-129255813D01*
X138377243Y-128728200D01*
X137973923Y-128324176D01*
X137843785Y-128270138D01*
X137971800Y-128217243D01*
X138375824Y-127813923D01*
X138594750Y-127286691D01*
X138595248Y-126715813D01*
X138377243Y-126188200D01*
X137973923Y-125784176D01*
X137843785Y-125730138D01*
X137971800Y-125677243D01*
X138302751Y-125346868D01*
X138337306Y-125339995D01*
X138646319Y-125133519D01*
X140322719Y-123457119D01*
X140343179Y-123426499D01*
X140529195Y-123148106D01*
X140601700Y-122783600D01*
X140601700Y-119588459D01*
X140766800Y-119621300D01*
X141131306Y-119548795D01*
X141440319Y-119342319D01*
X141646795Y-119033306D01*
X141719300Y-118668800D01*
X141668500Y-118413412D01*
X141668500Y-106400669D01*
X141732000Y-106413300D01*
X141819591Y-106395877D01*
X141917167Y-106395962D01*
X142008143Y-106358372D01*
X142096506Y-106340795D01*
X142097267Y-106340287D01*
X142075250Y-106393309D01*
X142074752Y-106964187D01*
X142292757Y-107491800D01*
X142696077Y-107895824D01*
X142826215Y-107949862D01*
X142698200Y-108002757D01*
X142294176Y-108406077D01*
X142075250Y-108933309D01*
X142074752Y-109504187D01*
X142292757Y-110031800D01*
X142696077Y-110435824D01*
X142826215Y-110489862D01*
X142698200Y-110542757D01*
X142294176Y-110946077D01*
X142075250Y-111473309D01*
X142074752Y-112044187D01*
X142292757Y-112571800D01*
X142696077Y-112975824D01*
X142826215Y-113029862D01*
X142698200Y-113082757D01*
X142294176Y-113486077D01*
X142075250Y-114013309D01*
X142074752Y-114584187D01*
X142292757Y-115111800D01*
X142696077Y-115515824D01*
X142826215Y-115569862D01*
X142698200Y-115622757D01*
X142294176Y-116026077D01*
X142075250Y-116553309D01*
X142074752Y-117124187D01*
X142292757Y-117651800D01*
X142696077Y-118055824D01*
X142826215Y-118109862D01*
X142698200Y-118162757D01*
X142294176Y-118566077D01*
X142075250Y-119093309D01*
X142074752Y-119664187D01*
X142292757Y-120191800D01*
X142696077Y-120595824D01*
X142826215Y-120649862D01*
X142698200Y-120702757D01*
X142294176Y-121106077D01*
X142075250Y-121633309D01*
X142074752Y-122204187D01*
X142292757Y-122731800D01*
X142696077Y-123135824D01*
X142826215Y-123189862D01*
X142698200Y-123242757D01*
X142294176Y-123646077D01*
X142075250Y-124173309D01*
X142074752Y-124744187D01*
X142292757Y-125271800D01*
X142696077Y-125675824D01*
X142826215Y-125729862D01*
X142698200Y-125782757D01*
X142294176Y-126186077D01*
X142075250Y-126713309D01*
X142074752Y-127284187D01*
X142292757Y-127811800D01*
X142696077Y-128215824D01*
X142826215Y-128269862D01*
X142698200Y-128322757D01*
X142294176Y-128726077D01*
X142075250Y-129253309D01*
X142074752Y-129824187D01*
X142292757Y-130351800D01*
X142696077Y-130755824D01*
X142826215Y-130809862D01*
X142698200Y-130862757D01*
X142294176Y-131266077D01*
X142075250Y-131793309D01*
X142074752Y-132364187D01*
X142292757Y-132891800D01*
X142696077Y-133295824D01*
X142826215Y-133349862D01*
X142698200Y-133402757D01*
X142294176Y-133806077D01*
X142075250Y-134333309D01*
X142074752Y-134904187D01*
X142292757Y-135431800D01*
X142696077Y-135835824D01*
X142810768Y-135883448D01*
X142755995Y-135906136D01*
X142681861Y-136152255D01*
X143510000Y-136980395D01*
X144338139Y-136152255D01*
X144264005Y-135906136D01*
X144205746Y-135885195D01*
X144321800Y-135837243D01*
X144725824Y-135433923D01*
X144944750Y-134906691D01*
X144945248Y-134335813D01*
X144727243Y-133808200D01*
X144323923Y-133404176D01*
X144193785Y-133350138D01*
X144321800Y-133297243D01*
X144725824Y-132893923D01*
X144944750Y-132366691D01*
X144945248Y-131795813D01*
X144727243Y-131268200D01*
X144323923Y-130864176D01*
X144193785Y-130810138D01*
X144321800Y-130757243D01*
X144725824Y-130353923D01*
X144944750Y-129826691D01*
X144945248Y-129255813D01*
X144727243Y-128728200D01*
X144323923Y-128324176D01*
X144193785Y-128270138D01*
X144321800Y-128217243D01*
X144725824Y-127813923D01*
X144944750Y-127286691D01*
X144945248Y-126715813D01*
X144727243Y-126188200D01*
X144323923Y-125784176D01*
X144193785Y-125730138D01*
X144321800Y-125677243D01*
X144725824Y-125273923D01*
X144944750Y-124746691D01*
X144945248Y-124175813D01*
X144727243Y-123648200D01*
X144323923Y-123244176D01*
X144193785Y-123190138D01*
X144321800Y-123137243D01*
X144725824Y-122733923D01*
X144944750Y-122206691D01*
X144945248Y-121635813D01*
X144727243Y-121108200D01*
X144323923Y-120704176D01*
X144193785Y-120650138D01*
X144321800Y-120597243D01*
X144725824Y-120193923D01*
X144944750Y-119666691D01*
X144945248Y-119095813D01*
X144727243Y-118568200D01*
X144323923Y-118164176D01*
X144193785Y-118110138D01*
X144321800Y-118057243D01*
X144725824Y-117653923D01*
X144944750Y-117126691D01*
X144945248Y-116555813D01*
X144727243Y-116028200D01*
X144323923Y-115624176D01*
X144193785Y-115570138D01*
X144321800Y-115517243D01*
X144725824Y-115113923D01*
X144944750Y-114586691D01*
X144945248Y-114015813D01*
X144727243Y-113488200D01*
X144323923Y-113084176D01*
X144193785Y-113030138D01*
X144321800Y-112977243D01*
X144725824Y-112573923D01*
X144944750Y-112046691D01*
X144945248Y-111475813D01*
X144727243Y-110948200D01*
X144323923Y-110544176D01*
X144193785Y-110490138D01*
X144321800Y-110437243D01*
X144725824Y-110033923D01*
X144944750Y-109506691D01*
X144945248Y-108935813D01*
X144727243Y-108408200D01*
X144323923Y-108004176D01*
X144193785Y-107950138D01*
X144321800Y-107897243D01*
X144725824Y-107493923D01*
X144944750Y-106966691D01*
X144945248Y-106395813D01*
X144727243Y-105868200D01*
X144425312Y-105565742D01*
X144545317Y-105543162D01*
X144761441Y-105404090D01*
X144906431Y-105191890D01*
X144957440Y-104940000D01*
X144957440Y-103340000D01*
X144913162Y-103104683D01*
X144774090Y-102888559D01*
X144561890Y-102743569D01*
X144310000Y-102692560D01*
X142710000Y-102692560D01*
X142684500Y-102697358D01*
X142684500Y-94538800D01*
X147688300Y-94538800D01*
X147688300Y-117144800D01*
X147760805Y-117509306D01*
X147967281Y-117818319D01*
X152844081Y-122695119D01*
X152918336Y-122744735D01*
X152987273Y-122813792D01*
X153078184Y-122851542D01*
X153153094Y-122901595D01*
X153240683Y-122919018D01*
X153330801Y-122956438D01*
X153429238Y-122956524D01*
X153517600Y-122974100D01*
X153605191Y-122956677D01*
X153702767Y-122956762D01*
X153793743Y-122919172D01*
X153882106Y-122901595D01*
X153956361Y-122851979D01*
X154046543Y-122814717D01*
X154116210Y-122745172D01*
X154191119Y-122695119D01*
X154240735Y-122620864D01*
X154309792Y-122551927D01*
X154347542Y-122461016D01*
X154397595Y-122386106D01*
X154415018Y-122298517D01*
X154452438Y-122208399D01*
X154452524Y-122109962D01*
X154470100Y-122021600D01*
X154452677Y-121934009D01*
X154452762Y-121836433D01*
X154415172Y-121745457D01*
X154397595Y-121657094D01*
X154347979Y-121582839D01*
X154310717Y-121492657D01*
X154241172Y-121422990D01*
X154191119Y-121348081D01*
X149593300Y-116750262D01*
X149593300Y-113195938D01*
X154266481Y-117869119D01*
X154340736Y-117918734D01*
X154409673Y-117987792D01*
X154500586Y-118025543D01*
X154575495Y-118075595D01*
X154663083Y-118093017D01*
X154753201Y-118130438D01*
X154851639Y-118130524D01*
X154940000Y-118148100D01*
X155027591Y-118130677D01*
X155125167Y-118130762D01*
X155216143Y-118093172D01*
X155304506Y-118075595D01*
X155378761Y-118025979D01*
X155468943Y-117988717D01*
X155538610Y-117919172D01*
X155613519Y-117869119D01*
X155663135Y-117794864D01*
X155732192Y-117725927D01*
X155769942Y-117635016D01*
X155819995Y-117560106D01*
X155837418Y-117472517D01*
X155874838Y-117382399D01*
X155874924Y-117283962D01*
X155892500Y-117195600D01*
X155875077Y-117108009D01*
X155875162Y-117010433D01*
X155837571Y-116919456D01*
X155819995Y-116831095D01*
X155770380Y-116756841D01*
X155733117Y-116666657D01*
X155663571Y-116596990D01*
X155613519Y-116522081D01*
X151117300Y-112025862D01*
X151117300Y-105474338D01*
X152996481Y-107353519D01*
X153305494Y-107559995D01*
X153670000Y-107632500D01*
X157673212Y-107632500D01*
X157936077Y-107895824D01*
X158066215Y-107949862D01*
X157938200Y-108002757D01*
X157534176Y-108406077D01*
X157315250Y-108933309D01*
X157314752Y-109504187D01*
X157532757Y-110031800D01*
X157936077Y-110435824D01*
X158066215Y-110489862D01*
X157938200Y-110542757D01*
X157534176Y-110946077D01*
X157315250Y-111473309D01*
X157314752Y-112044187D01*
X157532757Y-112571800D01*
X157936077Y-112975824D01*
X158066215Y-113029862D01*
X157938200Y-113082757D01*
X157534176Y-113486077D01*
X157315250Y-114013309D01*
X157314752Y-114584187D01*
X157532757Y-115111800D01*
X157936077Y-115515824D01*
X158066215Y-115569862D01*
X157938200Y-115622757D01*
X157534176Y-116026077D01*
X157315250Y-116553309D01*
X157314752Y-117124187D01*
X157532757Y-117651800D01*
X157936077Y-118055824D01*
X158066215Y-118109862D01*
X157938200Y-118162757D01*
X157534176Y-118566077D01*
X157315250Y-119093309D01*
X157314752Y-119664187D01*
X157532757Y-120191800D01*
X157936077Y-120595824D01*
X158066215Y-120649862D01*
X157938200Y-120702757D01*
X157534176Y-121106077D01*
X157315250Y-121633309D01*
X157314752Y-122204187D01*
X157532757Y-122731800D01*
X157936077Y-123135824D01*
X158066215Y-123189862D01*
X157938200Y-123242757D01*
X157534176Y-123646077D01*
X157315250Y-124173309D01*
X157314752Y-124744187D01*
X157532757Y-125271800D01*
X157936077Y-125675824D01*
X158066215Y-125729862D01*
X157938200Y-125782757D01*
X157534176Y-126186077D01*
X157315250Y-126713309D01*
X157314752Y-127284187D01*
X157532757Y-127811800D01*
X157936077Y-128215824D01*
X158066215Y-128269862D01*
X157938200Y-128322757D01*
X157534176Y-128726077D01*
X157315250Y-129253309D01*
X157314752Y-129824187D01*
X157532757Y-130351800D01*
X157936077Y-130755824D01*
X158066215Y-130809862D01*
X157938200Y-130862757D01*
X157534176Y-131266077D01*
X157315250Y-131793309D01*
X157314752Y-132364187D01*
X157532757Y-132891800D01*
X157936077Y-133295824D01*
X158066215Y-133349862D01*
X157938200Y-133402757D01*
X157534176Y-133806077D01*
X157315250Y-134333309D01*
X157314752Y-134904187D01*
X157532757Y-135431800D01*
X157936077Y-135835824D01*
X158066215Y-135889862D01*
X157938200Y-135942757D01*
X157534176Y-136346077D01*
X157315250Y-136873309D01*
X157314752Y-137444187D01*
X157532757Y-137971800D01*
X157936077Y-138375824D01*
X158463309Y-138594750D01*
X159034187Y-138595248D01*
X159561800Y-138377243D01*
X159965824Y-137973923D01*
X160184750Y-137446691D01*
X160185248Y-136875813D01*
X159967243Y-136348200D01*
X159563923Y-135944176D01*
X159433785Y-135890138D01*
X159561800Y-135837243D01*
X159965824Y-135433923D01*
X160184750Y-134906691D01*
X160185248Y-134335813D01*
X159967243Y-133808200D01*
X159563923Y-133404176D01*
X159433785Y-133350138D01*
X159561800Y-133297243D01*
X159965824Y-132893923D01*
X160184750Y-132366691D01*
X160185248Y-131795813D01*
X159967243Y-131268200D01*
X159563923Y-130864176D01*
X159433785Y-130810138D01*
X159561800Y-130757243D01*
X159965824Y-130353923D01*
X160184750Y-129826691D01*
X160185248Y-129255813D01*
X159967243Y-128728200D01*
X159563923Y-128324176D01*
X159433785Y-128270138D01*
X159561800Y-128217243D01*
X159965824Y-127813923D01*
X160184750Y-127286691D01*
X160185248Y-126715813D01*
X159967243Y-126188200D01*
X159563923Y-125784176D01*
X159433785Y-125730138D01*
X159561800Y-125677243D01*
X159965824Y-125273923D01*
X160184750Y-124746691D01*
X160185248Y-124175813D01*
X159967243Y-123648200D01*
X159563923Y-123244176D01*
X159433785Y-123190138D01*
X159561800Y-123137243D01*
X159965824Y-122733923D01*
X160184750Y-122206691D01*
X160185248Y-121635813D01*
X159967243Y-121108200D01*
X159563923Y-120704176D01*
X159433785Y-120650138D01*
X159561800Y-120597243D01*
X159965824Y-120193923D01*
X160184750Y-119666691D01*
X160185248Y-119095813D01*
X159967243Y-118568200D01*
X159563923Y-118164176D01*
X159433785Y-118110138D01*
X159561800Y-118057243D01*
X159965824Y-117653923D01*
X160184750Y-117126691D01*
X160185248Y-116555813D01*
X159967243Y-116028200D01*
X159563923Y-115624176D01*
X159433785Y-115570138D01*
X159561800Y-115517243D01*
X159965824Y-115113923D01*
X160184750Y-114586691D01*
X160185248Y-114015813D01*
X159967243Y-113488200D01*
X159563923Y-113084176D01*
X159433785Y-113030138D01*
X159561800Y-112977243D01*
X159965824Y-112573923D01*
X160184750Y-112046691D01*
X160185248Y-111475813D01*
X159967243Y-110948200D01*
X159563923Y-110544176D01*
X159433785Y-110490138D01*
X159561800Y-110437243D01*
X159965824Y-110033923D01*
X160184750Y-109506691D01*
X160185248Y-108935813D01*
X159967243Y-108408200D01*
X159563923Y-108004176D01*
X159433785Y-107950138D01*
X159561800Y-107897243D01*
X159965824Y-107493923D01*
X160184750Y-106966691D01*
X160185248Y-106395813D01*
X159967243Y-105868200D01*
X159563923Y-105464176D01*
X159433785Y-105410138D01*
X159561800Y-105357243D01*
X159965824Y-104953923D01*
X160184750Y-104426691D01*
X160184812Y-104354481D01*
X163179777Y-104354481D01*
X163374995Y-104826943D01*
X163736155Y-105188735D01*
X164208276Y-105384777D01*
X164719481Y-105385223D01*
X165191943Y-105190005D01*
X165553735Y-104828845D01*
X165749777Y-104356724D01*
X165750223Y-103845519D01*
X165555005Y-103373057D01*
X165193845Y-103011265D01*
X164889765Y-102885000D01*
X165241310Y-102885000D01*
X165474699Y-102788327D01*
X165653327Y-102609698D01*
X165750000Y-102376309D01*
X165750000Y-101885750D01*
X165591250Y-101727000D01*
X164592000Y-101727000D01*
X164592000Y-101747000D01*
X164338000Y-101747000D01*
X164338000Y-101727000D01*
X163338750Y-101727000D01*
X163180000Y-101885750D01*
X163180000Y-102376309D01*
X163276673Y-102609698D01*
X163455301Y-102788327D01*
X163688690Y-102885000D01*
X164040567Y-102885000D01*
X163738057Y-103009995D01*
X163376265Y-103371155D01*
X163180223Y-103843276D01*
X163179777Y-104354481D01*
X160184812Y-104354481D01*
X160185248Y-103855813D01*
X159967243Y-103328200D01*
X159563923Y-102924176D01*
X159036691Y-102705250D01*
X158465813Y-102704752D01*
X157938200Y-102922757D01*
X157534176Y-103326077D01*
X157315250Y-103853309D01*
X157314752Y-104424187D01*
X157532757Y-104951800D01*
X157936077Y-105355824D01*
X158066215Y-105409862D01*
X157938200Y-105462757D01*
X157672995Y-105727500D01*
X154064538Y-105727500D01*
X152717500Y-104380462D01*
X152717500Y-100823691D01*
X163180000Y-100823691D01*
X163180000Y-101314250D01*
X163338750Y-101473000D01*
X164338000Y-101473000D01*
X164338000Y-100473750D01*
X164592000Y-100473750D01*
X164592000Y-101473000D01*
X165591250Y-101473000D01*
X165750000Y-101314250D01*
X165750000Y-100823691D01*
X165653327Y-100590302D01*
X165474699Y-100411673D01*
X165241310Y-100315000D01*
X164750750Y-100315000D01*
X164592000Y-100473750D01*
X164338000Y-100473750D01*
X164179250Y-100315000D01*
X163688690Y-100315000D01*
X163455301Y-100411673D01*
X163276673Y-100590302D01*
X163180000Y-100823691D01*
X152717500Y-100823691D01*
X152717500Y-94615000D01*
X152700077Y-94527409D01*
X152700162Y-94429833D01*
X152662572Y-94338857D01*
X152644995Y-94250494D01*
X152595379Y-94176239D01*
X152558117Y-94086057D01*
X152488572Y-94016390D01*
X152438519Y-93941481D01*
X152364264Y-93891865D01*
X152295327Y-93822808D01*
X152204416Y-93785058D01*
X152129506Y-93735005D01*
X152041917Y-93717582D01*
X151951799Y-93680162D01*
X151853362Y-93680076D01*
X151765000Y-93662500D01*
X151677409Y-93679923D01*
X151579833Y-93679838D01*
X151488857Y-93717428D01*
X151400494Y-93735005D01*
X151326239Y-93784621D01*
X151236057Y-93821883D01*
X151166390Y-93891428D01*
X151091481Y-93941481D01*
X151041865Y-94015736D01*
X151041155Y-94016446D01*
X150995179Y-93947639D01*
X150957917Y-93857457D01*
X150888372Y-93787790D01*
X150838319Y-93712881D01*
X150764064Y-93663265D01*
X150695127Y-93594208D01*
X150604216Y-93556458D01*
X150529306Y-93506405D01*
X150441717Y-93488982D01*
X150351599Y-93451562D01*
X150253162Y-93451476D01*
X150164800Y-93433900D01*
X150077209Y-93451323D01*
X149979633Y-93451238D01*
X149888657Y-93488828D01*
X149800294Y-93506405D01*
X149726039Y-93556021D01*
X149635857Y-93593283D01*
X149566190Y-93662828D01*
X149491281Y-93712881D01*
X149441665Y-93787136D01*
X149372608Y-93856073D01*
X149347910Y-93915553D01*
X149314319Y-93865281D01*
X149240064Y-93815665D01*
X149171127Y-93746608D01*
X149080216Y-93708858D01*
X149005306Y-93658805D01*
X148917717Y-93641382D01*
X148827599Y-93603962D01*
X148729162Y-93603876D01*
X148640800Y-93586300D01*
X148553209Y-93603723D01*
X148455633Y-93603638D01*
X148364657Y-93641228D01*
X148276294Y-93658805D01*
X148202039Y-93708421D01*
X148111857Y-93745683D01*
X148042190Y-93815228D01*
X147967281Y-93865281D01*
X147917665Y-93939536D01*
X147848608Y-94008473D01*
X147810858Y-94099384D01*
X147760805Y-94174294D01*
X147743382Y-94261883D01*
X147705962Y-94352001D01*
X147705876Y-94450438D01*
X147688300Y-94538800D01*
X142684500Y-94538800D01*
X142684500Y-88885854D01*
X160059457Y-88885854D01*
X160535727Y-90038515D01*
X161416847Y-90921174D01*
X162568674Y-91399454D01*
X163815854Y-91400543D01*
X164968515Y-90924273D01*
X165851174Y-90043153D01*
X166329454Y-88891326D01*
X166330543Y-87644146D01*
X165854273Y-86491485D01*
X164973153Y-85608826D01*
X163821326Y-85130546D01*
X162574146Y-85129457D01*
X161421485Y-85605727D01*
X160538826Y-86486847D01*
X160060546Y-87638674D01*
X160059457Y-88885854D01*
X142684500Y-88885854D01*
X142684500Y-87172800D01*
X142611995Y-86808294D01*
X142425240Y-86528795D01*
X142405519Y-86499280D01*
X140881519Y-84975281D01*
X140572506Y-84768805D01*
X140208000Y-84696300D01*
X97078800Y-84696300D01*
X96714294Y-84768805D01*
X96590521Y-84851507D01*
X96405281Y-84975280D01*
X94779681Y-86600881D01*
X94573205Y-86909894D01*
X94500700Y-87274400D01*
X94500700Y-89082088D01*
X94354283Y-89109638D01*
X94138159Y-89248710D01*
X93993169Y-89460910D01*
X93942160Y-89712800D01*
X78358348Y-89712800D01*
X78699454Y-88891326D01*
X78700543Y-87644146D01*
X78224273Y-86491485D01*
X77343153Y-85608826D01*
X76191326Y-85130546D01*
X74944146Y-85129457D01*
X73791485Y-85605727D01*
X72908826Y-86486847D01*
X72430546Y-87638674D01*
X72429457Y-88885854D01*
X71805000Y-88885854D01*
X71805000Y-84505000D01*
X166955000Y-84505000D01*
X166955000Y-156795000D01*
X166955000Y-156795000D01*
G37*
X166955000Y-156795000D02*
X71805000Y-156795000D01*
X71805000Y-153655854D01*
X72429457Y-153655854D01*
X72905727Y-154808515D01*
X73786847Y-155691174D01*
X74938674Y-156169454D01*
X76185854Y-156170543D01*
X77338515Y-155694273D01*
X77557211Y-155475958D01*
X80923647Y-155475958D01*
X81003920Y-155727259D01*
X81559279Y-155928718D01*
X82149458Y-155902315D01*
X82572080Y-155727259D01*
X82652353Y-155475958D01*
X81788000Y-154611605D01*
X80923647Y-155475958D01*
X77557211Y-155475958D01*
X78221174Y-154813153D01*
X78474415Y-154203279D01*
X80291282Y-154203279D01*
X80317685Y-154793458D01*
X80492741Y-155216080D01*
X80744042Y-155296353D01*
X81608395Y-154432000D01*
X81967605Y-154432000D01*
X82831958Y-155296353D01*
X83083259Y-155216080D01*
X83261005Y-154726089D01*
X84802743Y-154726089D01*
X85028344Y-155272086D01*
X85445717Y-155690188D01*
X85991319Y-155916742D01*
X86582089Y-155917257D01*
X87128086Y-155691656D01*
X87546188Y-155274283D01*
X87772742Y-154728681D01*
X87773257Y-154137911D01*
X87697990Y-153955750D01*
X125349000Y-153955750D01*
X125349000Y-154812309D01*
X125445673Y-155045698D01*
X125624301Y-155224327D01*
X125857690Y-155321000D01*
X126714250Y-155321000D01*
X126873000Y-155162250D01*
X126873000Y-153797000D01*
X125507750Y-153797000D01*
X125349000Y-153955750D01*
X87697990Y-153955750D01*
X87547656Y-153591914D01*
X87130283Y-153173812D01*
X86584681Y-152947258D01*
X85993911Y-152946743D01*
X85447914Y-153172344D01*
X85029812Y-153589717D01*
X84803258Y-154135319D01*
X84802743Y-154726089D01*
X83261005Y-154726089D01*
X83284718Y-154660721D01*
X83258315Y-154070542D01*
X83083259Y-153647920D01*
X82831958Y-153567647D01*
X81967605Y-154432000D01*
X81608395Y-154432000D01*
X80744042Y-153567647D01*
X80492741Y-153647920D01*
X80291282Y-154203279D01*
X78474415Y-154203279D01*
X78699454Y-153661326D01*
X78699692Y-153388042D01*
X80923647Y-153388042D01*
X81788000Y-154252395D01*
X82652353Y-153388042D01*
X82572080Y-153136741D01*
X82016721Y-152935282D01*
X81426542Y-152961685D01*
X81003920Y-153136741D01*
X80923647Y-153388042D01*
X78699692Y-153388042D01*
X78700443Y-152527691D01*
X125349000Y-152527691D01*
X125349000Y-153384250D01*
X125507750Y-153543000D01*
X126873000Y-153543000D01*
X126873000Y-152177750D01*
X127127000Y-152177750D01*
X127127000Y-153543000D01*
X127147000Y-153543000D01*
X127147000Y-153797000D01*
X127127000Y-153797000D01*
X127127000Y-155162250D01*
X127285750Y-155321000D01*
X128142310Y-155321000D01*
X128375699Y-155224327D01*
X128554327Y-155045698D01*
X128571999Y-155003034D01*
X128908190Y-155227670D01*
X129540000Y-155353345D01*
X130171810Y-155227670D01*
X130707433Y-154869778D01*
X131065325Y-154334155D01*
X131191000Y-153702345D01*
X131191000Y-153655854D01*
X160059457Y-153655854D01*
X160535727Y-154808515D01*
X161416847Y-155691174D01*
X162568674Y-156169454D01*
X163815854Y-156170543D01*
X164968515Y-155694273D01*
X165851174Y-154813153D01*
X166329454Y-153661326D01*
X166330543Y-152414146D01*
X165854273Y-151261485D01*
X164973153Y-150378826D01*
X163821326Y-149900546D01*
X162574146Y-149899457D01*
X161421485Y-150375727D01*
X160538826Y-151256847D01*
X160060546Y-152408674D01*
X160059457Y-153655854D01*
X131191000Y-153655854D01*
X131191000Y-153637655D01*
X131065325Y-153005845D01*
X130707433Y-152470222D01*
X130171810Y-152112330D01*
X129540000Y-151986655D01*
X128908190Y-152112330D01*
X128571999Y-152336966D01*
X128554327Y-152294302D01*
X128375699Y-152115673D01*
X128142310Y-152019000D01*
X127285750Y-152019000D01*
X127127000Y-152177750D01*
X126873000Y-152177750D01*
X126714250Y-152019000D01*
X125857690Y-152019000D01*
X125624301Y-152115673D01*
X125445673Y-152294302D01*
X125349000Y-152527691D01*
X78700443Y-152527691D01*
X78700543Y-152414146D01*
X78224273Y-151261485D01*
X77343153Y-150378826D01*
X76191326Y-149900546D01*
X74944146Y-149899457D01*
X73791485Y-150375727D01*
X72908826Y-151256847D01*
X72430546Y-152408674D01*
X72429457Y-153655854D01*
X71805000Y-153655854D01*
X71805000Y-148226089D01*
X80302743Y-148226089D01*
X80528344Y-148772086D01*
X80945717Y-149190188D01*
X81491319Y-149416742D01*
X82082089Y-149417257D01*
X82628086Y-149191656D01*
X83046188Y-148774283D01*
X83272742Y-148228681D01*
X83272744Y-148226089D01*
X84802743Y-148226089D01*
X85028344Y-148772086D01*
X85445717Y-149190188D01*
X85991319Y-149416742D01*
X86582089Y-149417257D01*
X87128086Y-149191656D01*
X87546188Y-148774283D01*
X87772742Y-148228681D01*
X87773257Y-147637911D01*
X87751140Y-147584383D01*
X90739769Y-147584383D01*
X90942582Y-148075229D01*
X91317796Y-148451098D01*
X91808287Y-148654768D01*
X92339383Y-148655231D01*
X92830229Y-148452418D01*
X93206098Y-148077204D01*
X93409768Y-147586713D01*
X93409770Y-147584383D01*
X100899769Y-147584383D01*
X101102582Y-148075229D01*
X101477796Y-148451098D01*
X101968287Y-148654768D01*
X102499383Y-148655231D01*
X102990229Y-148452418D01*
X103366098Y-148077204D01*
X103569768Y-147586713D01*
X103569813Y-147534481D01*
X128254777Y-147534481D01*
X128449995Y-148006943D01*
X128811155Y-148368735D01*
X129283276Y-148564777D01*
X129794481Y-148565223D01*
X130266943Y-148370005D01*
X130628735Y-148008845D01*
X130824777Y-147536724D01*
X130825223Y-147025519D01*
X130630005Y-146553057D01*
X130268845Y-146191265D01*
X129964765Y-146065000D01*
X130316310Y-146065000D01*
X130549699Y-145968327D01*
X130728327Y-145789698D01*
X130825000Y-145556309D01*
X130825000Y-145065750D01*
X130666250Y-144907000D01*
X129667000Y-144907000D01*
X129667000Y-144927000D01*
X129413000Y-144927000D01*
X129413000Y-144907000D01*
X128413750Y-144907000D01*
X128255000Y-145065750D01*
X128255000Y-145556309D01*
X128351673Y-145789698D01*
X128530301Y-145968327D01*
X128763690Y-146065000D01*
X129115567Y-146065000D01*
X128813057Y-146189995D01*
X128451265Y-146551155D01*
X128255223Y-147023276D01*
X128254777Y-147534481D01*
X103569813Y-147534481D01*
X103570231Y-147055617D01*
X103367418Y-146564771D01*
X102992204Y-146188902D01*
X102501713Y-145985232D01*
X101970617Y-145984769D01*
X101479771Y-146187582D01*
X101103902Y-146562796D01*
X100900232Y-147053287D01*
X100899769Y-147584383D01*
X93409770Y-147584383D01*
X93410231Y-147055617D01*
X93207418Y-146564771D01*
X92832204Y-146188902D01*
X92341713Y-145985232D01*
X91810617Y-145984769D01*
X91319771Y-146187582D01*
X90943902Y-146562796D01*
X90740232Y-147053287D01*
X90739769Y-147584383D01*
X87751140Y-147584383D01*
X87547656Y-147091914D01*
X87130283Y-146673812D01*
X86584681Y-146447258D01*
X85993911Y-146446743D01*
X85447914Y-146672344D01*
X85029812Y-147089717D01*
X84803258Y-147635319D01*
X84802743Y-148226089D01*
X83272744Y-148226089D01*
X83273257Y-147637911D01*
X83047656Y-147091914D01*
X82630283Y-146673812D01*
X82084681Y-146447258D01*
X81493911Y-146446743D01*
X80947914Y-146672344D01*
X80529812Y-147089717D01*
X80303258Y-147635319D01*
X80302743Y-148226089D01*
X71805000Y-148226089D01*
X71805000Y-137505213D01*
X73494392Y-137505213D01*
X73563857Y-137747397D01*
X74087302Y-137934144D01*
X74642368Y-137906362D01*
X75026143Y-137747397D01*
X75095608Y-137505213D01*
X74295000Y-136704605D01*
X73494392Y-137505213D01*
X71805000Y-137505213D01*
X71805000Y-136317302D01*
X72885856Y-136317302D01*
X72913638Y-136872368D01*
X73072603Y-137256143D01*
X73314787Y-137325608D01*
X74115395Y-136525000D01*
X74474605Y-136525000D01*
X75275213Y-137325608D01*
X75517397Y-137256143D01*
X75679540Y-136801661D01*
X80517758Y-136801661D01*
X80729990Y-137315303D01*
X81122630Y-137708629D01*
X81635900Y-137921757D01*
X82191661Y-137922242D01*
X82705303Y-137710010D01*
X83098629Y-137317370D01*
X83311757Y-136804100D01*
X83312242Y-136248339D01*
X83100010Y-135734697D01*
X82707370Y-135341371D01*
X82194100Y-135128243D01*
X81638339Y-135127758D01*
X81124697Y-135339990D01*
X80731371Y-135732630D01*
X80518243Y-136245900D01*
X80517758Y-136801661D01*
X75679540Y-136801661D01*
X75704144Y-136732698D01*
X75676362Y-136177632D01*
X75517397Y-135793857D01*
X75275213Y-135724392D01*
X74474605Y-136525000D01*
X74115395Y-136525000D01*
X73314787Y-135724392D01*
X73072603Y-135793857D01*
X72885856Y-136317302D01*
X71805000Y-136317302D01*
X71805000Y-135544787D01*
X73494392Y-135544787D01*
X74295000Y-136345395D01*
X75095608Y-135544787D01*
X75026143Y-135302603D01*
X74502698Y-135115856D01*
X73947632Y-135143638D01*
X73563857Y-135302603D01*
X73494392Y-135544787D01*
X71805000Y-135544787D01*
X71805000Y-129190750D01*
X72898000Y-129190750D01*
X72898000Y-129793309D01*
X72994673Y-130026698D01*
X73173301Y-130205327D01*
X73406690Y-130302000D01*
X74009250Y-130302000D01*
X74168000Y-130143250D01*
X74168000Y-129032000D01*
X74422000Y-129032000D01*
X74422000Y-130143250D01*
X74580750Y-130302000D01*
X75183310Y-130302000D01*
X75416699Y-130205327D01*
X75595327Y-130026698D01*
X75692000Y-129793309D01*
X75692000Y-129190750D01*
X75682911Y-129181661D01*
X80517758Y-129181661D01*
X80729990Y-129695303D01*
X81122630Y-130088629D01*
X81635900Y-130301757D01*
X82191661Y-130302242D01*
X82705303Y-130090010D01*
X83098629Y-129697370D01*
X83311757Y-129184100D01*
X83312242Y-128628339D01*
X83100010Y-128114697D01*
X82707370Y-127721371D01*
X82194100Y-127508243D01*
X81638339Y-127507758D01*
X81124697Y-127719990D01*
X80731371Y-128112630D01*
X80518243Y-128625900D01*
X80517758Y-129181661D01*
X75682911Y-129181661D01*
X75533250Y-129032000D01*
X74422000Y-129032000D01*
X74168000Y-129032000D01*
X73056750Y-129032000D01*
X72898000Y-129190750D01*
X71805000Y-129190750D01*
X71805000Y-128016691D01*
X72898000Y-128016691D01*
X72898000Y-128619250D01*
X73056750Y-128778000D01*
X74168000Y-128778000D01*
X74168000Y-127666750D01*
X74422000Y-127666750D01*
X74422000Y-128778000D01*
X75533250Y-128778000D01*
X75692000Y-128619250D01*
X75692000Y-128016691D01*
X75595327Y-127783302D01*
X75416699Y-127604673D01*
X75183310Y-127508000D01*
X74580750Y-127508000D01*
X74422000Y-127666750D01*
X74168000Y-127666750D01*
X74009250Y-127508000D01*
X73406690Y-127508000D01*
X73173301Y-127604673D01*
X72994673Y-127783302D01*
X72898000Y-128016691D01*
X71805000Y-128016691D01*
X71805000Y-125994016D01*
X78695590Y-125994016D01*
X78751271Y-126224611D01*
X79234078Y-126392622D01*
X79744428Y-126363083D01*
X80078729Y-126224611D01*
X80134410Y-125994016D01*
X79415000Y-125274605D01*
X78695590Y-125994016D01*
X71805000Y-125994016D01*
X71805000Y-124914078D01*
X78117378Y-124914078D01*
X78146917Y-125424428D01*
X78285389Y-125758729D01*
X78515984Y-125814410D01*
X79235395Y-125095000D01*
X79594605Y-125095000D01*
X80314016Y-125814410D01*
X80544611Y-125758729D01*
X80617560Y-125549098D01*
X80617560Y-125745000D01*
X80661838Y-125980317D01*
X80800910Y-126196441D01*
X81013110Y-126341431D01*
X81265000Y-126392440D01*
X82565000Y-126392440D01*
X82800317Y-126348162D01*
X83016441Y-126209090D01*
X83161431Y-125996890D01*
X83212440Y-125745000D01*
X83212440Y-124445000D01*
X83168162Y-124209683D01*
X83029090Y-123993559D01*
X82816890Y-123848569D01*
X82565000Y-123797560D01*
X81265000Y-123797560D01*
X81029683Y-123841838D01*
X80813559Y-123980910D01*
X80668569Y-124193110D01*
X80617560Y-124445000D01*
X80617560Y-124607385D01*
X80544611Y-124431271D01*
X80314016Y-124375590D01*
X79594605Y-125095000D01*
X79235395Y-125095000D01*
X78515984Y-124375590D01*
X78285389Y-124431271D01*
X78117378Y-124914078D01*
X71805000Y-124914078D01*
X71805000Y-124195984D01*
X78695590Y-124195984D01*
X79415000Y-124915395D01*
X80134410Y-124195984D01*
X80078729Y-123965389D01*
X79595922Y-123797378D01*
X79085572Y-123826917D01*
X78751271Y-123965389D01*
X78695590Y-124195984D01*
X71805000Y-124195984D01*
X71805000Y-98425000D01*
X84832041Y-98425000D01*
X84946115Y-98998489D01*
X85270971Y-99484670D01*
X85585752Y-99695000D01*
X85270971Y-99905330D01*
X84946115Y-100391511D01*
X84832041Y-100965000D01*
X84946115Y-101538489D01*
X85270971Y-102024670D01*
X85585752Y-102235000D01*
X85270971Y-102445330D01*
X84946115Y-102931511D01*
X84832041Y-103505000D01*
X84946115Y-104078489D01*
X85270971Y-104564670D01*
X85585752Y-104775000D01*
X85270971Y-104985330D01*
X84946115Y-105471511D01*
X84832041Y-106045000D01*
X84946115Y-106618489D01*
X85270971Y-107104670D01*
X85585752Y-107315000D01*
X85270971Y-107525330D01*
X84946115Y-108011511D01*
X84832041Y-108585000D01*
X84946115Y-109158489D01*
X85270971Y-109644670D01*
X85585752Y-109855000D01*
X85270971Y-110065330D01*
X84946115Y-110551511D01*
X84832041Y-111125000D01*
X84946115Y-111698489D01*
X85270971Y-112184670D01*
X85585752Y-112395000D01*
X85270971Y-112605330D01*
X84946115Y-113091511D01*
X84832041Y-113665000D01*
X84946115Y-114238489D01*
X85270971Y-114724670D01*
X85585752Y-114935000D01*
X85270971Y-115145330D01*
X84946115Y-115631511D01*
X84832041Y-116205000D01*
X84946115Y-116778489D01*
X85270971Y-117264670D01*
X85585752Y-117475000D01*
X85270971Y-117685330D01*
X84946115Y-118171511D01*
X84832041Y-118745000D01*
X84946115Y-119318489D01*
X85270971Y-119804670D01*
X85585752Y-120015000D01*
X85270971Y-120225330D01*
X84946115Y-120711511D01*
X84832041Y-121285000D01*
X84946115Y-121858489D01*
X85270971Y-122344670D01*
X85585752Y-122555000D01*
X85270971Y-122765330D01*
X84946115Y-123251511D01*
X84832041Y-123825000D01*
X84946115Y-124398489D01*
X85270971Y-124884670D01*
X85585752Y-125095000D01*
X85270971Y-125305330D01*
X84946115Y-125791511D01*
X84832041Y-126365000D01*
X84946115Y-126938489D01*
X85270971Y-127424670D01*
X85585752Y-127635000D01*
X85270971Y-127845330D01*
X84946115Y-128331511D01*
X84832041Y-128905000D01*
X84946115Y-129478489D01*
X85270971Y-129964670D01*
X85585752Y-130175000D01*
X85270971Y-130385330D01*
X84946115Y-130871511D01*
X84832041Y-131445000D01*
X84946115Y-132018489D01*
X85270971Y-132504670D01*
X85585752Y-132715000D01*
X85270971Y-132925330D01*
X84946115Y-133411511D01*
X84832041Y-133985000D01*
X84946115Y-134558489D01*
X85270971Y-135044670D01*
X85585752Y-135255000D01*
X85270971Y-135465330D01*
X84946115Y-135951511D01*
X84832041Y-136525000D01*
X84946115Y-137098489D01*
X85270971Y-137584670D01*
X85585752Y-137795000D01*
X85270971Y-138005330D01*
X84946115Y-138491511D01*
X84832041Y-139065000D01*
X84946115Y-139638489D01*
X85270971Y-140124670D01*
X85585752Y-140335000D01*
X85270971Y-140545330D01*
X84946115Y-141031511D01*
X84832041Y-141605000D01*
X84946115Y-142178489D01*
X85270971Y-142664670D01*
X85585752Y-142875000D01*
X85270971Y-143085330D01*
X84946115Y-143571511D01*
X84832041Y-144145000D01*
X84946115Y-144718489D01*
X85270971Y-145204670D01*
X85757152Y-145529526D01*
X86330641Y-145643600D01*
X86389359Y-145643600D01*
X86962848Y-145529526D01*
X87449029Y-145204670D01*
X87614212Y-144957456D01*
X87628808Y-144992780D01*
X88050003Y-145414710D01*
X88600602Y-145643339D01*
X89196782Y-145643859D01*
X89747780Y-145416192D01*
X90169710Y-144994997D01*
X90398339Y-144444398D01*
X90398859Y-143848218D01*
X90171192Y-143297220D01*
X89749997Y-142875290D01*
X89703012Y-142855780D01*
X89989029Y-142664670D01*
X90313885Y-142178489D01*
X90427959Y-141605000D01*
X90313885Y-141031511D01*
X89989029Y-140545330D01*
X89674248Y-140335000D01*
X89989029Y-140124670D01*
X90313885Y-139638489D01*
X90427959Y-139065000D01*
X90313885Y-138491511D01*
X89989029Y-138005330D01*
X89674248Y-137795000D01*
X89989029Y-137584670D01*
X90313885Y-137098489D01*
X90427959Y-136525000D01*
X90313885Y-135951511D01*
X89989029Y-135465330D01*
X89674248Y-135255000D01*
X89989029Y-135044670D01*
X90313885Y-134558489D01*
X90427959Y-133985000D01*
X90313885Y-133411511D01*
X89989029Y-132925330D01*
X89674248Y-132715000D01*
X89989029Y-132504670D01*
X90313885Y-132018489D01*
X90427959Y-131445000D01*
X90313885Y-130871511D01*
X89989029Y-130385330D01*
X89674248Y-130175000D01*
X89989029Y-129964670D01*
X90313885Y-129478489D01*
X90427959Y-128905000D01*
X90313885Y-128331511D01*
X89989029Y-127845330D01*
X89674248Y-127635000D01*
X89989029Y-127424670D01*
X90313885Y-126938489D01*
X90427959Y-126365000D01*
X90313885Y-125791511D01*
X89989029Y-125305330D01*
X89674248Y-125095000D01*
X89989029Y-124884670D01*
X90313885Y-124398489D01*
X90427959Y-123825000D01*
X90313885Y-123251511D01*
X89989029Y-122765330D01*
X89674248Y-122555000D01*
X89989029Y-122344670D01*
X90313885Y-121858489D01*
X90427959Y-121285000D01*
X90313885Y-120711511D01*
X89989029Y-120225330D01*
X89674248Y-120015000D01*
X89989029Y-119804670D01*
X90313885Y-119318489D01*
X90427959Y-118745000D01*
X90313885Y-118171511D01*
X89989029Y-117685330D01*
X89674248Y-117475000D01*
X89989029Y-117264670D01*
X90313885Y-116778489D01*
X90427959Y-116205000D01*
X90313885Y-115631511D01*
X89989029Y-115145330D01*
X89674248Y-114935000D01*
X89989029Y-114724670D01*
X90313885Y-114238489D01*
X90427959Y-113665000D01*
X90313885Y-113091511D01*
X89989029Y-112605330D01*
X89674248Y-112395000D01*
X89989029Y-112184670D01*
X90313885Y-111698489D01*
X90427959Y-111125000D01*
X90313885Y-110551511D01*
X89989029Y-110065330D01*
X89674248Y-109855000D01*
X89989029Y-109644670D01*
X90313885Y-109158489D01*
X90427959Y-108585000D01*
X90313885Y-108011511D01*
X89989029Y-107525330D01*
X89674248Y-107315000D01*
X89989029Y-107104670D01*
X90313885Y-106618489D01*
X90427959Y-106045000D01*
X90313885Y-105471511D01*
X89989029Y-104985330D01*
X89674248Y-104775000D01*
X89989029Y-104564670D01*
X90313885Y-104078489D01*
X90427959Y-103505000D01*
X90313885Y-102931511D01*
X89989029Y-102445330D01*
X89674248Y-102235000D01*
X89989029Y-102024670D01*
X90313885Y-101538489D01*
X90427959Y-100965000D01*
X90313885Y-100391511D01*
X89989029Y-99905330D01*
X89674248Y-99695000D01*
X89989029Y-99484670D01*
X90313885Y-98998489D01*
X90365463Y-98739187D01*
X90659752Y-98739187D01*
X90877757Y-99266800D01*
X91281077Y-99670824D01*
X91411215Y-99724862D01*
X91283200Y-99777757D01*
X90879176Y-100181077D01*
X90660250Y-100708309D01*
X90659752Y-101279187D01*
X90877757Y-101806800D01*
X91281077Y-102210824D01*
X91411215Y-102264862D01*
X91283200Y-102317757D01*
X90879176Y-102721077D01*
X90660250Y-103248309D01*
X90659752Y-103819187D01*
X90877757Y-104346800D01*
X91281077Y-104750824D01*
X91411215Y-104804862D01*
X91283200Y-104857757D01*
X90879176Y-105261077D01*
X90660250Y-105788309D01*
X90659752Y-106359187D01*
X90877757Y-106886800D01*
X91281077Y-107290824D01*
X91411215Y-107344862D01*
X91283200Y-107397757D01*
X90879176Y-107801077D01*
X90660250Y-108328309D01*
X90659752Y-108899187D01*
X90877757Y-109426800D01*
X91281077Y-109830824D01*
X91411215Y-109884862D01*
X91283200Y-109937757D01*
X90879176Y-110341077D01*
X90660250Y-110868309D01*
X90659752Y-111439187D01*
X90877757Y-111966800D01*
X91281077Y-112370824D01*
X91411215Y-112424862D01*
X91283200Y-112477757D01*
X90879176Y-112881077D01*
X90660250Y-113408309D01*
X90659752Y-113979187D01*
X90877757Y-114506800D01*
X91281077Y-114910824D01*
X91411215Y-114964862D01*
X91283200Y-115017757D01*
X90879176Y-115421077D01*
X90660250Y-115948309D01*
X90659752Y-116519187D01*
X90877757Y-117046800D01*
X91281077Y-117450824D01*
X91411215Y-117504862D01*
X91283200Y-117557757D01*
X90879176Y-117961077D01*
X90660250Y-118488309D01*
X90659752Y-119059187D01*
X90877757Y-119586800D01*
X91281077Y-119990824D01*
X91411215Y-120044862D01*
X91283200Y-120097757D01*
X90879176Y-120501077D01*
X90660250Y-121028309D01*
X90659752Y-121599187D01*
X90877757Y-122126800D01*
X91281077Y-122530824D01*
X91411215Y-122584862D01*
X91283200Y-122637757D01*
X90879176Y-123041077D01*
X90660250Y-123568309D01*
X90659752Y-124139187D01*
X90877757Y-124666800D01*
X91281077Y-125070824D01*
X91411215Y-125124862D01*
X91283200Y-125177757D01*
X90879176Y-125581077D01*
X90660250Y-126108309D01*
X90659752Y-126679187D01*
X90877757Y-127206800D01*
X91281077Y-127610824D01*
X91411215Y-127664862D01*
X91283200Y-127717757D01*
X90879176Y-128121077D01*
X90660250Y-128648309D01*
X90659752Y-129219187D01*
X90877757Y-129746800D01*
X91281077Y-130150824D01*
X91411215Y-130204862D01*
X91283200Y-130257757D01*
X90879176Y-130661077D01*
X90660250Y-131188309D01*
X90659752Y-131759187D01*
X90877757Y-132286800D01*
X91281077Y-132690824D01*
X91411215Y-132744862D01*
X91283200Y-132797757D01*
X90879176Y-133201077D01*
X90660250Y-133728309D01*
X90659752Y-134299187D01*
X90877757Y-134826800D01*
X91281077Y-135230824D01*
X91411215Y-135284862D01*
X91283200Y-135337757D01*
X90879176Y-135741077D01*
X90660250Y-136268309D01*
X90659752Y-136839187D01*
X90877757Y-137366800D01*
X91281077Y-137770824D01*
X91411215Y-137824862D01*
X91283200Y-137877757D01*
X90879176Y-138281077D01*
X90660250Y-138808309D01*
X90659752Y-139379187D01*
X90877757Y-139906800D01*
X91281077Y-140310824D01*
X91411215Y-140364862D01*
X91283200Y-140417757D01*
X90879176Y-140821077D01*
X90660250Y-141348309D01*
X90659752Y-141919187D01*
X90877757Y-142446800D01*
X91281077Y-142850824D01*
X91411215Y-142904862D01*
X91283200Y-142957757D01*
X90879176Y-143361077D01*
X90660250Y-143888309D01*
X90659752Y-144459187D01*
X90877757Y-144986800D01*
X91281077Y-145390824D01*
X91808309Y-145609750D01*
X92379187Y-145610248D01*
X92906800Y-145392243D01*
X93310824Y-144988923D01*
X93529750Y-144461691D01*
X93530248Y-143890813D01*
X93312243Y-143363200D01*
X92908923Y-142959176D01*
X92778785Y-142905138D01*
X92906800Y-142852243D01*
X93310824Y-142448923D01*
X93529750Y-141921691D01*
X93530248Y-141350813D01*
X93312243Y-140823200D01*
X92908923Y-140419176D01*
X92778785Y-140365138D01*
X92906800Y-140312243D01*
X93310824Y-139908923D01*
X93529750Y-139381691D01*
X93530248Y-138810813D01*
X93312243Y-138283200D01*
X92908923Y-137879176D01*
X92778785Y-137825138D01*
X92906800Y-137772243D01*
X93310824Y-137368923D01*
X93529750Y-136841691D01*
X93530248Y-136270813D01*
X93312243Y-135743200D01*
X92908923Y-135339176D01*
X92778785Y-135285138D01*
X92906800Y-135232243D01*
X93310824Y-134828923D01*
X93529750Y-134301691D01*
X93530248Y-133730813D01*
X93312243Y-133203200D01*
X92908923Y-132799176D01*
X92778785Y-132745138D01*
X92906800Y-132692243D01*
X93310824Y-132288923D01*
X93529750Y-131761691D01*
X93530248Y-131190813D01*
X93312243Y-130663200D01*
X92908923Y-130259176D01*
X92778785Y-130205138D01*
X92906800Y-130152243D01*
X93310824Y-129748923D01*
X93529750Y-129221691D01*
X93530248Y-128650813D01*
X93312243Y-128123200D01*
X92908923Y-127719176D01*
X92778785Y-127665138D01*
X92906800Y-127612243D01*
X93310824Y-127208923D01*
X93529750Y-126681691D01*
X93530248Y-126110813D01*
X93312243Y-125583200D01*
X92908923Y-125179176D01*
X92778785Y-125125138D01*
X92906800Y-125072243D01*
X93310824Y-124668923D01*
X93529750Y-124141691D01*
X93530248Y-123570813D01*
X93312243Y-123043200D01*
X92908923Y-122639176D01*
X92778785Y-122585138D01*
X92906800Y-122532243D01*
X93310824Y-122128923D01*
X93529750Y-121601691D01*
X93530248Y-121030813D01*
X93312243Y-120503200D01*
X92908923Y-120099176D01*
X92778785Y-120045138D01*
X92906800Y-119992243D01*
X93310824Y-119588923D01*
X93529750Y-119061691D01*
X93530248Y-118490813D01*
X93312243Y-117963200D01*
X92908923Y-117559176D01*
X92778785Y-117505138D01*
X92906800Y-117452243D01*
X93310824Y-117048923D01*
X93529750Y-116521691D01*
X93530248Y-115950813D01*
X93312243Y-115423200D01*
X92908923Y-115019176D01*
X92778785Y-114965138D01*
X92906800Y-114912243D01*
X93310824Y-114508923D01*
X93529750Y-113981691D01*
X93530248Y-113410813D01*
X93312243Y-112883200D01*
X92908923Y-112479176D01*
X92778785Y-112425138D01*
X92906800Y-112372243D01*
X93310824Y-111968923D01*
X93529750Y-111441691D01*
X93530248Y-110870813D01*
X93312243Y-110343200D01*
X92908923Y-109939176D01*
X92778785Y-109885138D01*
X92906800Y-109832243D01*
X93310824Y-109428923D01*
X93529750Y-108901691D01*
X93530248Y-108330813D01*
X93312243Y-107803200D01*
X92908923Y-107399176D01*
X92778785Y-107345138D01*
X92906800Y-107292243D01*
X93310824Y-106888923D01*
X93529750Y-106361691D01*
X93530248Y-105790813D01*
X93312243Y-105263200D01*
X92908923Y-104859176D01*
X92778785Y-104805138D01*
X92906800Y-104752243D01*
X93310824Y-104348923D01*
X93529750Y-103821691D01*
X93530010Y-103523620D01*
X93564694Y-103546795D01*
X93652283Y-103564218D01*
X93742401Y-103601638D01*
X93840838Y-103601724D01*
X93929200Y-103619300D01*
X94016791Y-103601877D01*
X94114367Y-103601962D01*
X94205343Y-103564372D01*
X94293706Y-103546795D01*
X94367961Y-103497179D01*
X94458143Y-103459917D01*
X94527810Y-103390372D01*
X94602719Y-103340319D01*
X95974319Y-101968719D01*
X96180795Y-101659706D01*
X96185176Y-101637681D01*
X96253300Y-101295200D01*
X96253300Y-95758000D01*
X96235877Y-95670409D01*
X96235962Y-95572833D01*
X96198372Y-95481857D01*
X96180795Y-95393494D01*
X96131179Y-95319239D01*
X96093917Y-95229057D01*
X96024372Y-95159390D01*
X95974319Y-95084481D01*
X95900064Y-95034865D01*
X95831127Y-94965808D01*
X95740216Y-94928058D01*
X95665306Y-94878005D01*
X95577717Y-94860582D01*
X95487599Y-94823162D01*
X95389162Y-94823076D01*
X95300800Y-94805500D01*
X95213209Y-94822923D01*
X95115633Y-94822838D01*
X95024657Y-94860428D01*
X94936294Y-94878005D01*
X94862039Y-94927621D01*
X94771857Y-94964883D01*
X94702190Y-95034428D01*
X94627281Y-95084481D01*
X94577665Y-95158736D01*
X94508608Y-95227673D01*
X94470858Y-95318584D01*
X94420805Y-95393494D01*
X94403382Y-95481083D01*
X94365962Y-95571201D01*
X94365876Y-95669638D01*
X94348300Y-95758000D01*
X94348300Y-100900662D01*
X93255681Y-101993281D01*
X93206065Y-102067536D01*
X93137008Y-102136473D01*
X93099258Y-102227384D01*
X93049205Y-102302294D01*
X93031782Y-102389883D01*
X93016426Y-102426866D01*
X92908923Y-102319176D01*
X92778785Y-102265138D01*
X92906800Y-102212243D01*
X93310824Y-101808923D01*
X93529750Y-101281691D01*
X93530248Y-100710813D01*
X93312243Y-100183200D01*
X92908923Y-99779176D01*
X92778785Y-99725138D01*
X92906800Y-99672243D01*
X93310824Y-99268923D01*
X93529750Y-98741691D01*
X93530248Y-98170813D01*
X93312243Y-97643200D01*
X92908923Y-97239176D01*
X92794232Y-97191552D01*
X92849005Y-97168864D01*
X92923139Y-96922745D01*
X92095000Y-96094605D01*
X91266861Y-96922745D01*
X91340995Y-97168864D01*
X91399254Y-97189805D01*
X91283200Y-97237757D01*
X90879176Y-97641077D01*
X90660250Y-98168309D01*
X90659752Y-98739187D01*
X90365463Y-98739187D01*
X90427959Y-98425000D01*
X90313885Y-97851511D01*
X89989029Y-97365330D01*
X89665772Y-97149336D01*
X89788490Y-97091821D01*
X90182688Y-96659947D01*
X90354958Y-96244026D01*
X90233817Y-96012000D01*
X89027000Y-96012000D01*
X89027000Y-96032000D01*
X88773000Y-96032000D01*
X88773000Y-96012000D01*
X86487000Y-96012000D01*
X86487000Y-96032000D01*
X86233000Y-96032000D01*
X86233000Y-96012000D01*
X85026183Y-96012000D01*
X84905042Y-96244026D01*
X85077312Y-96659947D01*
X85471510Y-97091821D01*
X85594228Y-97149336D01*
X85270971Y-97365330D01*
X84946115Y-97851511D01*
X84832041Y-98425000D01*
X71805000Y-98425000D01*
X71805000Y-95525974D01*
X84905042Y-95525974D01*
X85026183Y-95758000D01*
X86233000Y-95758000D01*
X86233000Y-94550531D01*
X86487000Y-94550531D01*
X86487000Y-95758000D01*
X88773000Y-95758000D01*
X88773000Y-94550531D01*
X89027000Y-94550531D01*
X89027000Y-95758000D01*
X90233817Y-95758000D01*
X90265026Y-95698223D01*
X90648035Y-95698223D01*
X90675222Y-96268454D01*
X90841136Y-96669005D01*
X91087255Y-96743139D01*
X91915395Y-95915000D01*
X92274605Y-95915000D01*
X93102745Y-96743139D01*
X93348864Y-96669005D01*
X93541965Y-96131777D01*
X93514778Y-95561546D01*
X93348864Y-95160995D01*
X93102745Y-95086861D01*
X92274605Y-95915000D01*
X91915395Y-95915000D01*
X91087255Y-95086861D01*
X90841136Y-95160995D01*
X90648035Y-95698223D01*
X90265026Y-95698223D01*
X90354958Y-95525974D01*
X90182688Y-95110053D01*
X89997582Y-94907255D01*
X91266861Y-94907255D01*
X92095000Y-95735395D01*
X92923139Y-94907255D01*
X92849005Y-94661136D01*
X92311777Y-94468035D01*
X91741546Y-94495222D01*
X91340995Y-94661136D01*
X91266861Y-94907255D01*
X89997582Y-94907255D01*
X89788490Y-94678179D01*
X89259027Y-94430032D01*
X89027000Y-94550531D01*
X88773000Y-94550531D01*
X88540973Y-94430032D01*
X88011510Y-94678179D01*
X87630000Y-95096152D01*
X87248490Y-94678179D01*
X86719027Y-94430032D01*
X86487000Y-94550531D01*
X86233000Y-94550531D01*
X86000973Y-94430032D01*
X85471510Y-94678179D01*
X85077312Y-95110053D01*
X84905042Y-95525974D01*
X71805000Y-95525974D01*
X71805000Y-88885854D01*
X72429457Y-88885854D01*
X72905727Y-90038515D01*
X73786847Y-90921174D01*
X74938674Y-91399454D01*
X76185854Y-91400543D01*
X77338515Y-90924273D01*
X78221174Y-90043153D01*
X78358348Y-89712800D01*
X93942160Y-89712800D01*
X93942160Y-91744800D01*
X93986438Y-91980117D01*
X94125510Y-92196241D01*
X94337710Y-92341231D01*
X94589600Y-92392240D01*
X96316800Y-92392240D01*
X96552117Y-92347962D01*
X96768241Y-92208890D01*
X96913231Y-91996690D01*
X96921600Y-91955361D01*
X96933530Y-91973215D01*
X97419711Y-92298071D01*
X97993200Y-92412145D01*
X98566689Y-92298071D01*
X99052870Y-91973215D01*
X99263200Y-91658434D01*
X99473530Y-91973215D01*
X99959711Y-92298071D01*
X100533200Y-92412145D01*
X101106689Y-92298071D01*
X101592870Y-91973215D01*
X101803200Y-91658434D01*
X102013530Y-91973215D01*
X102499711Y-92298071D01*
X103073200Y-92412145D01*
X103646689Y-92298071D01*
X104132870Y-91973215D01*
X104343200Y-91658434D01*
X104553530Y-91973215D01*
X105039711Y-92298071D01*
X105613200Y-92412145D01*
X106186689Y-92298071D01*
X106672870Y-91973215D01*
X106883200Y-91658434D01*
X107093530Y-91973215D01*
X107579711Y-92298071D01*
X108153200Y-92412145D01*
X108726689Y-92298071D01*
X109212870Y-91973215D01*
X109537726Y-91487034D01*
X109651800Y-90913545D01*
X109651800Y-90544055D01*
X109537726Y-89970566D01*
X109212870Y-89484385D01*
X108726689Y-89159529D01*
X108153200Y-89045455D01*
X107579711Y-89159529D01*
X107093530Y-89484385D01*
X106883200Y-89799166D01*
X106672870Y-89484385D01*
X106186689Y-89159529D01*
X105613200Y-89045455D01*
X105039711Y-89159529D01*
X104553530Y-89484385D01*
X104343200Y-89799166D01*
X104132870Y-89484385D01*
X103646689Y-89159529D01*
X103073200Y-89045455D01*
X102499711Y-89159529D01*
X102013530Y-89484385D01*
X101803200Y-89799166D01*
X101592870Y-89484385D01*
X101485700Y-89412776D01*
X101485700Y-88989738D01*
X101638938Y-88836500D01*
X138645062Y-88836500D01*
X138696700Y-88888139D01*
X138696700Y-122389062D01*
X138392856Y-122692906D01*
X138594750Y-122206691D01*
X138595248Y-121635813D01*
X138377243Y-121108200D01*
X137973923Y-120704176D01*
X137843785Y-120650138D01*
X137971800Y-120597243D01*
X138375824Y-120193923D01*
X138594750Y-119666691D01*
X138595248Y-119095813D01*
X138377243Y-118568200D01*
X137973923Y-118164176D01*
X137843785Y-118110138D01*
X137971800Y-118057243D01*
X138375824Y-117653923D01*
X138594750Y-117126691D01*
X138595248Y-116555813D01*
X138377243Y-116028200D01*
X137973923Y-115624176D01*
X137843785Y-115570138D01*
X137971800Y-115517243D01*
X138375824Y-115113923D01*
X138594750Y-114586691D01*
X138595248Y-114015813D01*
X138377243Y-113488200D01*
X137973923Y-113084176D01*
X137843785Y-113030138D01*
X137971800Y-112977243D01*
X138375824Y-112573923D01*
X138594750Y-112046691D01*
X138595248Y-111475813D01*
X138377243Y-110948200D01*
X137973923Y-110544176D01*
X137843785Y-110490138D01*
X137971800Y-110437243D01*
X138375824Y-110033923D01*
X138594750Y-109506691D01*
X138595248Y-108935813D01*
X138377243Y-108408200D01*
X137973923Y-108004176D01*
X137843785Y-107950138D01*
X137971800Y-107897243D01*
X138375824Y-107493923D01*
X138594750Y-106966691D01*
X138595248Y-106395813D01*
X138377243Y-105868200D01*
X137973923Y-105464176D01*
X137843785Y-105410138D01*
X137971800Y-105357243D01*
X138375824Y-104953923D01*
X138594750Y-104426691D01*
X138595248Y-103855813D01*
X138377243Y-103328200D01*
X137973923Y-102924176D01*
X137599588Y-102768738D01*
X137886943Y-102650005D01*
X138248735Y-102288845D01*
X138444777Y-101816724D01*
X138445223Y-101305519D01*
X138250005Y-100833057D01*
X137888845Y-100471265D01*
X137584765Y-100345000D01*
X137936310Y-100345000D01*
X138169699Y-100248327D01*
X138348327Y-100069698D01*
X138445000Y-99836309D01*
X138445000Y-99345750D01*
X138286250Y-99187000D01*
X137287000Y-99187000D01*
X137287000Y-99207000D01*
X137033000Y-99207000D01*
X137033000Y-99187000D01*
X136033750Y-99187000D01*
X135875000Y-99345750D01*
X135875000Y-99836309D01*
X135971673Y-100069698D01*
X136150301Y-100248327D01*
X136383690Y-100345000D01*
X136735567Y-100345000D01*
X136433057Y-100469995D01*
X136071265Y-100831155D01*
X135875223Y-101303276D01*
X135874777Y-101814481D01*
X136069995Y-102286943D01*
X136431155Y-102648735D01*
X136720553Y-102768904D01*
X136348200Y-102922757D01*
X135944176Y-103326077D01*
X135725250Y-103853309D01*
X135724752Y-104424187D01*
X135942757Y-104951800D01*
X136346077Y-105355824D01*
X136476215Y-105409862D01*
X136348200Y-105462757D01*
X135944176Y-105866077D01*
X135725250Y-106393309D01*
X135724900Y-106794528D01*
X135724900Y-104546400D01*
X135652395Y-104181894D01*
X135522572Y-103987600D01*
X135445920Y-103872881D01*
X134887119Y-103314081D01*
X134812864Y-103264465D01*
X134743927Y-103195408D01*
X134653016Y-103157658D01*
X134578106Y-103107605D01*
X134490517Y-103090182D01*
X134400399Y-103052762D01*
X134301962Y-103052676D01*
X134213600Y-103035100D01*
X134126009Y-103052523D01*
X134028433Y-103052438D01*
X133937457Y-103090028D01*
X133849094Y-103107605D01*
X133774839Y-103157221D01*
X133751839Y-103166724D01*
X133746064Y-103162865D01*
X133677127Y-103093808D01*
X133586216Y-103056058D01*
X133511306Y-103006005D01*
X133423717Y-102988582D01*
X133333599Y-102951162D01*
X133235162Y-102951076D01*
X133146800Y-102933500D01*
X133059209Y-102950923D01*
X132961633Y-102950838D01*
X132870657Y-102988428D01*
X132782294Y-103006005D01*
X132708039Y-103055621D01*
X132617857Y-103092883D01*
X132548190Y-103162428D01*
X132473281Y-103212481D01*
X132423665Y-103286736D01*
X132354608Y-103355673D01*
X132334126Y-103404999D01*
X132314317Y-103357057D01*
X132244772Y-103287390D01*
X132194719Y-103212481D01*
X132120464Y-103162865D01*
X132051527Y-103093808D01*
X131960616Y-103056058D01*
X131885706Y-103006005D01*
X131798117Y-102988582D01*
X131707999Y-102951162D01*
X131609562Y-102951076D01*
X131521200Y-102933500D01*
X131433609Y-102950923D01*
X131336033Y-102950838D01*
X131245057Y-102988428D01*
X131156694Y-103006005D01*
X131082439Y-103055621D01*
X130992257Y-103092883D01*
X130922590Y-103162428D01*
X130911600Y-103169772D01*
X130901264Y-103162865D01*
X130832327Y-103093808D01*
X130741416Y-103056058D01*
X130666506Y-103006005D01*
X130578917Y-102988582D01*
X130488799Y-102951162D01*
X130390362Y-102951076D01*
X130302000Y-102933500D01*
X130214409Y-102950923D01*
X130116833Y-102950838D01*
X130025857Y-102988428D01*
X129937494Y-103006005D01*
X129863239Y-103055621D01*
X129773057Y-103092883D01*
X129703390Y-103162428D01*
X129628481Y-103212481D01*
X129577681Y-103263281D01*
X129528243Y-103337270D01*
X129509808Y-103355673D01*
X129499731Y-103379942D01*
X129371205Y-103572294D01*
X129298700Y-103936800D01*
X129298700Y-111709200D01*
X129316123Y-111796791D01*
X129316038Y-111894367D01*
X129353628Y-111985343D01*
X129371205Y-112073706D01*
X129420821Y-112147961D01*
X129458083Y-112238143D01*
X129527628Y-112307810D01*
X129577681Y-112382719D01*
X129651936Y-112432335D01*
X129720873Y-112501392D01*
X129811784Y-112539142D01*
X129886694Y-112589195D01*
X129974283Y-112606618D01*
X130064401Y-112644038D01*
X130162838Y-112644124D01*
X130251200Y-112661700D01*
X130338791Y-112644277D01*
X130436367Y-112644362D01*
X130527343Y-112606772D01*
X130568700Y-112598545D01*
X130568700Y-114096800D01*
X130586123Y-114184391D01*
X130586038Y-114281967D01*
X130623628Y-114372943D01*
X130641205Y-114461306D01*
X130690821Y-114535561D01*
X130728083Y-114625743D01*
X130797628Y-114695410D01*
X130847681Y-114770319D01*
X130921936Y-114819935D01*
X130990873Y-114888992D01*
X131081784Y-114926742D01*
X131156694Y-114976795D01*
X131244283Y-114994218D01*
X131334401Y-115031638D01*
X131432838Y-115031724D01*
X131521200Y-115049300D01*
X131608791Y-115031877D01*
X131706367Y-115031962D01*
X131797343Y-114994372D01*
X131885706Y-114976795D01*
X131959961Y-114927179D01*
X132050143Y-114889917D01*
X132119810Y-114820372D01*
X132194300Y-114770599D01*
X132194300Y-119786400D01*
X132266805Y-120150906D01*
X132473281Y-120459919D01*
X134606881Y-122593519D01*
X134915894Y-122799995D01*
X135280400Y-122872500D01*
X136083212Y-122872500D01*
X136346077Y-123135824D01*
X136476215Y-123189862D01*
X136348200Y-123242757D01*
X135944176Y-123646077D01*
X135725250Y-124173309D01*
X135725054Y-124397620D01*
X128774218Y-117446784D01*
X128506407Y-117267838D01*
X128190501Y-117205001D01*
X123322233Y-117205001D01*
X123354750Y-117126691D01*
X123355248Y-116555813D01*
X123137243Y-116028200D01*
X122733923Y-115624176D01*
X122603785Y-115570138D01*
X122731800Y-115517243D01*
X123135824Y-115113923D01*
X123354750Y-114586691D01*
X123355248Y-114015813D01*
X123137243Y-113488200D01*
X122733923Y-113084176D01*
X122603785Y-113030138D01*
X122731800Y-112977243D01*
X123135824Y-112573923D01*
X123354750Y-112046691D01*
X123355248Y-111475813D01*
X123137243Y-110948200D01*
X122733923Y-110544176D01*
X122603785Y-110490138D01*
X122731800Y-110437243D01*
X123135824Y-110033923D01*
X123354750Y-109506691D01*
X123355248Y-108935813D01*
X123137243Y-108408200D01*
X122733923Y-108004176D01*
X122603785Y-107950138D01*
X122731800Y-107897243D01*
X123135824Y-107493923D01*
X123354750Y-106966691D01*
X123355248Y-106395813D01*
X123137243Y-105868200D01*
X122835312Y-105565742D01*
X122955317Y-105543162D01*
X123171441Y-105404090D01*
X123316431Y-105191890D01*
X123367440Y-104940000D01*
X123367440Y-103340000D01*
X123347985Y-103236603D01*
X123415343Y-103208772D01*
X123503706Y-103191195D01*
X123577961Y-103141579D01*
X123668143Y-103104317D01*
X123737810Y-103034772D01*
X123812719Y-102984719D01*
X123862335Y-102910464D01*
X123931392Y-102841527D01*
X123969142Y-102750616D01*
X124019195Y-102675706D01*
X124036618Y-102588117D01*
X124074038Y-102497999D01*
X124074124Y-102399562D01*
X124091700Y-102311200D01*
X124074277Y-102223609D01*
X124074362Y-102126033D01*
X124036772Y-102035057D01*
X124019195Y-101946694D01*
X123969579Y-101872439D01*
X123932317Y-101782257D01*
X123862772Y-101712590D01*
X123856199Y-101702754D01*
X123914319Y-101663919D01*
X123963935Y-101589664D01*
X124032992Y-101520727D01*
X124070742Y-101429816D01*
X124120795Y-101354906D01*
X124138218Y-101267317D01*
X124175638Y-101177199D01*
X124175724Y-101078762D01*
X124193300Y-100990400D01*
X124175877Y-100902809D01*
X124175962Y-100805233D01*
X124138372Y-100714257D01*
X124120795Y-100625894D01*
X124071179Y-100551639D01*
X124033917Y-100461457D01*
X123964372Y-100391790D01*
X123914319Y-100316881D01*
X123888919Y-100291481D01*
X123814797Y-100241954D01*
X123771127Y-100198208D01*
X123713537Y-100174294D01*
X123579906Y-100085005D01*
X123215400Y-100012500D01*
X118635638Y-100012500D01*
X118564029Y-99905330D01*
X118249248Y-99695000D01*
X118564029Y-99484670D01*
X118635638Y-99377500D01*
X122363662Y-99377500D01*
X122465681Y-99479519D01*
X122539936Y-99529135D01*
X122608873Y-99598192D01*
X122699784Y-99635942D01*
X122774694Y-99685995D01*
X122862282Y-99703417D01*
X122952401Y-99740838D01*
X123050842Y-99740924D01*
X123139200Y-99758499D01*
X123226787Y-99741077D01*
X123324367Y-99741162D01*
X123415344Y-99703571D01*
X123503706Y-99685995D01*
X123577961Y-99636379D01*
X123668143Y-99599117D01*
X123737810Y-99529572D01*
X123812719Y-99479519D01*
X123862335Y-99405264D01*
X123931392Y-99336327D01*
X123969142Y-99245416D01*
X124019195Y-99170506D01*
X124036617Y-99082918D01*
X124074038Y-98992799D01*
X124074124Y-98894358D01*
X124091699Y-98806000D01*
X124074277Y-98718413D01*
X124074362Y-98620833D01*
X124036771Y-98529856D01*
X124019195Y-98441494D01*
X123969579Y-98367239D01*
X123935059Y-98283691D01*
X135875000Y-98283691D01*
X135875000Y-98774250D01*
X136033750Y-98933000D01*
X137033000Y-98933000D01*
X137033000Y-97933750D01*
X137287000Y-97933750D01*
X137287000Y-98933000D01*
X138286250Y-98933000D01*
X138445000Y-98774250D01*
X138445000Y-98283691D01*
X138348327Y-98050302D01*
X138169699Y-97871673D01*
X137936310Y-97775000D01*
X137445750Y-97775000D01*
X137287000Y-97933750D01*
X137033000Y-97933750D01*
X136874250Y-97775000D01*
X136383690Y-97775000D01*
X136150301Y-97871673D01*
X135971673Y-98050302D01*
X135875000Y-98283691D01*
X123935059Y-98283691D01*
X123932317Y-98277057D01*
X123862772Y-98207390D01*
X123812719Y-98132481D01*
X123431719Y-97751481D01*
X123122706Y-97545005D01*
X122758200Y-97472500D01*
X118635638Y-97472500D01*
X118564029Y-97365330D01*
X118249248Y-97155000D01*
X118564029Y-96944670D01*
X118635638Y-96837500D01*
X122972364Y-96837500D01*
X122977894Y-96841195D01*
X123065483Y-96858618D01*
X123155601Y-96896038D01*
X123254038Y-96896124D01*
X123342400Y-96913700D01*
X123429991Y-96896277D01*
X123527567Y-96896362D01*
X123618543Y-96858772D01*
X123706906Y-96841195D01*
X123781161Y-96791579D01*
X123871343Y-96754317D01*
X123941010Y-96684772D01*
X124015919Y-96634719D01*
X124065535Y-96560464D01*
X124134592Y-96491527D01*
X124172342Y-96400616D01*
X124222395Y-96325706D01*
X124239818Y-96238117D01*
X124277238Y-96147999D01*
X124277324Y-96049562D01*
X124294900Y-95961200D01*
X124277477Y-95873609D01*
X124277562Y-95776033D01*
X124239972Y-95685057D01*
X124222395Y-95596694D01*
X124172779Y-95522439D01*
X124135517Y-95432257D01*
X124065972Y-95362590D01*
X124015919Y-95287681D01*
X123939719Y-95211481D01*
X123630706Y-95005005D01*
X123266200Y-94932500D01*
X118635638Y-94932500D01*
X118564029Y-94825330D01*
X118077848Y-94500474D01*
X117504359Y-94386400D01*
X117445641Y-94386400D01*
X116872152Y-94500474D01*
X116385971Y-94825330D01*
X116205000Y-95096172D01*
X116024029Y-94825330D01*
X115537848Y-94500474D01*
X114964359Y-94386400D01*
X114905641Y-94386400D01*
X114332152Y-94500474D01*
X113845971Y-94825330D01*
X113521115Y-95311511D01*
X113407041Y-95885000D01*
X113521115Y-96458489D01*
X113845971Y-96944670D01*
X114160752Y-97155000D01*
X113845971Y-97365330D01*
X113521115Y-97851511D01*
X113407041Y-98425000D01*
X113521115Y-98998489D01*
X113845971Y-99484670D01*
X114160752Y-99695000D01*
X113845971Y-99905330D01*
X113521115Y-100391511D01*
X113407041Y-100965000D01*
X113521115Y-101538489D01*
X113845971Y-102024670D01*
X114160752Y-102235000D01*
X113845971Y-102445330D01*
X113521115Y-102931511D01*
X113407041Y-103505000D01*
X113521115Y-104078489D01*
X113845971Y-104564670D01*
X114160752Y-104775000D01*
X113845971Y-104985330D01*
X113521115Y-105471511D01*
X113407041Y-106045000D01*
X113521115Y-106618489D01*
X113845971Y-107104670D01*
X114160752Y-107315000D01*
X113845971Y-107525330D01*
X113521115Y-108011511D01*
X113407041Y-108585000D01*
X113521115Y-109158489D01*
X113845971Y-109644670D01*
X114160752Y-109855000D01*
X113845971Y-110065330D01*
X113521115Y-110551511D01*
X113407041Y-111125000D01*
X113521115Y-111698489D01*
X113845971Y-112184670D01*
X114160752Y-112395000D01*
X113845971Y-112605330D01*
X113521115Y-113091511D01*
X113407041Y-113665000D01*
X113492295Y-114093601D01*
X108723281Y-114093601D01*
X108769750Y-113981691D01*
X108770248Y-113410813D01*
X108552243Y-112883200D01*
X108148923Y-112479176D01*
X108018785Y-112425138D01*
X108146800Y-112372243D01*
X108550824Y-111968923D01*
X108769750Y-111441691D01*
X108770248Y-110870813D01*
X108552243Y-110343200D01*
X108148923Y-109939176D01*
X108018785Y-109885138D01*
X108146800Y-109832243D01*
X108550824Y-109428923D01*
X108769750Y-108901691D01*
X108770248Y-108330813D01*
X108552243Y-107803200D01*
X108148923Y-107399176D01*
X108018785Y-107345138D01*
X108146800Y-107292243D01*
X108550824Y-106888923D01*
X108769750Y-106361691D01*
X108770248Y-105790813D01*
X108552243Y-105263200D01*
X108148923Y-104859176D01*
X108018785Y-104805138D01*
X108146800Y-104752243D01*
X108550824Y-104348923D01*
X108769750Y-103821691D01*
X108770248Y-103250813D01*
X108552243Y-102723200D01*
X108148923Y-102319176D01*
X108018785Y-102265138D01*
X108146800Y-102212243D01*
X108550824Y-101808923D01*
X108769750Y-101281691D01*
X108770248Y-100710813D01*
X108552243Y-100183200D01*
X108148923Y-99779176D01*
X108018785Y-99725138D01*
X108146800Y-99672243D01*
X108550824Y-99268923D01*
X108769750Y-98741691D01*
X108770248Y-98170813D01*
X108552243Y-97643200D01*
X108148923Y-97239176D01*
X108018785Y-97185138D01*
X108146800Y-97132243D01*
X108550824Y-96728923D01*
X108769750Y-96201691D01*
X108770248Y-95630813D01*
X108552243Y-95103200D01*
X108148923Y-94699176D01*
X107621691Y-94480250D01*
X107050813Y-94479752D01*
X106523200Y-94697757D01*
X106119176Y-95101077D01*
X105900250Y-95628309D01*
X105899752Y-96199187D01*
X106117757Y-96726800D01*
X106521077Y-97130824D01*
X106651215Y-97184862D01*
X106523200Y-97237757D01*
X106119176Y-97641077D01*
X105900250Y-98168309D01*
X105899752Y-98739187D01*
X106117757Y-99266800D01*
X106521077Y-99670824D01*
X106651215Y-99724862D01*
X106523200Y-99777757D01*
X106119176Y-100181077D01*
X105900250Y-100708309D01*
X105899752Y-101279187D01*
X106117757Y-101806800D01*
X106521077Y-102210824D01*
X106651215Y-102264862D01*
X106523200Y-102317757D01*
X106119176Y-102721077D01*
X105900250Y-103248309D01*
X105899752Y-103819187D01*
X106117757Y-104346800D01*
X106521077Y-104750824D01*
X106651215Y-104804862D01*
X106523200Y-104857757D01*
X106119176Y-105261077D01*
X105900250Y-105788309D01*
X105899752Y-106359187D01*
X106117757Y-106886800D01*
X106521077Y-107290824D01*
X106651215Y-107344862D01*
X106523200Y-107397757D01*
X106119176Y-107801077D01*
X105900250Y-108328309D01*
X105899752Y-108899187D01*
X106117757Y-109426800D01*
X106521077Y-109830824D01*
X106651215Y-109884862D01*
X106523200Y-109937757D01*
X106119176Y-110341077D01*
X105900250Y-110868309D01*
X105899752Y-111439187D01*
X106117757Y-111966800D01*
X106521077Y-112370824D01*
X106651215Y-112424862D01*
X106523200Y-112477757D01*
X106119176Y-112881077D01*
X105900250Y-113408309D01*
X105899777Y-113950738D01*
X104559519Y-112610481D01*
X104485264Y-112560865D01*
X104416327Y-112491808D01*
X104325416Y-112454058D01*
X104250506Y-112404005D01*
X104162917Y-112386582D01*
X104072799Y-112349162D01*
X103974362Y-112349076D01*
X103886000Y-112331500D01*
X103798409Y-112348923D01*
X103700833Y-112348838D01*
X103609857Y-112386428D01*
X103521494Y-112404005D01*
X103447239Y-112453621D01*
X103357057Y-112490883D01*
X103287390Y-112560428D01*
X103212481Y-112610481D01*
X103162865Y-112684736D01*
X103093808Y-112753673D01*
X103056058Y-112844584D01*
X103006005Y-112919494D01*
X102988582Y-113007083D01*
X102951162Y-113097201D01*
X102951076Y-113195638D01*
X102933500Y-113284000D01*
X102950923Y-113371591D01*
X102950838Y-113469167D01*
X102988428Y-113560143D01*
X103006005Y-113648506D01*
X103055621Y-113722761D01*
X103092883Y-113812943D01*
X103162428Y-113882610D01*
X103212481Y-113957519D01*
X104186169Y-114931208D01*
X104162917Y-114926582D01*
X104072799Y-114889162D01*
X103974362Y-114889076D01*
X103886000Y-114871500D01*
X103798409Y-114888923D01*
X103700833Y-114888838D01*
X103609857Y-114926428D01*
X103521494Y-114944005D01*
X103447239Y-114993621D01*
X103357057Y-115030883D01*
X103287390Y-115100428D01*
X103212481Y-115150481D01*
X103162865Y-115224736D01*
X103093808Y-115293673D01*
X103056058Y-115384584D01*
X103006005Y-115459494D01*
X102988582Y-115547083D01*
X102951162Y-115637201D01*
X102951076Y-115735638D01*
X102933500Y-115824000D01*
X102950923Y-115911591D01*
X102950838Y-116009167D01*
X102988428Y-116100143D01*
X103006005Y-116188506D01*
X103055621Y-116262761D01*
X103092883Y-116352943D01*
X103162428Y-116422610D01*
X103212481Y-116497519D01*
X104186170Y-117471208D01*
X104162917Y-117466582D01*
X104072799Y-117429162D01*
X103974362Y-117429076D01*
X103886000Y-117411500D01*
X103798409Y-117428923D01*
X103700833Y-117428838D01*
X103609857Y-117466428D01*
X103521494Y-117484005D01*
X103447239Y-117533621D01*
X103357057Y-117570883D01*
X103287390Y-117640428D01*
X103212481Y-117690481D01*
X103162865Y-117764736D01*
X103093808Y-117833673D01*
X103056058Y-117924584D01*
X103006005Y-117999494D01*
X102988582Y-118087083D01*
X102951162Y-118177201D01*
X102951076Y-118275638D01*
X102933500Y-118364000D01*
X102950923Y-118451591D01*
X102950838Y-118549167D01*
X102988428Y-118640143D01*
X103006005Y-118728506D01*
X103055621Y-118802761D01*
X103092883Y-118892943D01*
X103162428Y-118962610D01*
X103212481Y-119037519D01*
X104888881Y-120713919D01*
X105197894Y-120920395D01*
X105562400Y-120992900D01*
X105914953Y-120992900D01*
X105900250Y-121028309D01*
X105899752Y-121599187D01*
X106117757Y-122126800D01*
X106521077Y-122530824D01*
X106651215Y-122584862D01*
X106523200Y-122637757D01*
X106119176Y-123041077D01*
X106060887Y-123181453D01*
X105963999Y-123084565D01*
X105963999Y-122664499D01*
X105954113Y-122614799D01*
X105901162Y-122348593D01*
X105806396Y-122206767D01*
X105722216Y-122080782D01*
X105722213Y-122080780D01*
X105549994Y-121908561D01*
X105441117Y-121645057D01*
X105178327Y-121381808D01*
X104834799Y-121239162D01*
X104462833Y-121238838D01*
X104119057Y-121380883D01*
X103855808Y-121643673D01*
X103713162Y-121987201D01*
X103712838Y-122359167D01*
X103774707Y-122508902D01*
X103700833Y-122508838D01*
X103609857Y-122546428D01*
X103521494Y-122564005D01*
X103447239Y-122613621D01*
X103357057Y-122650883D01*
X103287390Y-122720428D01*
X103212481Y-122770481D01*
X103162865Y-122844736D01*
X103093808Y-122913673D01*
X103056058Y-123004584D01*
X103006005Y-123079494D01*
X102988582Y-123167083D01*
X102951162Y-123257201D01*
X102951076Y-123355638D01*
X102933500Y-123444000D01*
X102950923Y-123531591D01*
X102950838Y-123629167D01*
X102988428Y-123720143D01*
X103006005Y-123808506D01*
X103055621Y-123882761D01*
X103092883Y-123972943D01*
X103162428Y-124042610D01*
X103212481Y-124117519D01*
X103470824Y-124375862D01*
X103447239Y-124391621D01*
X103357057Y-124428883D01*
X103287390Y-124498428D01*
X103212481Y-124548481D01*
X103162865Y-124622736D01*
X103093808Y-124691673D01*
X103056058Y-124782584D01*
X103006005Y-124857494D01*
X102988582Y-124945083D01*
X102951162Y-125035201D01*
X102951076Y-125133638D01*
X102933500Y-125222000D01*
X102933500Y-130606800D01*
X103006005Y-130971306D01*
X103212481Y-131280319D01*
X105142881Y-133210719D01*
X105451894Y-133417195D01*
X105656648Y-133457923D01*
X105662396Y-133461764D01*
X105978301Y-133524602D01*
X105978306Y-133524601D01*
X105984837Y-133524601D01*
X105900250Y-133728309D01*
X105899752Y-134299187D01*
X105947027Y-134413601D01*
X103147039Y-134413601D01*
X101434900Y-132701462D01*
X101434900Y-122428000D01*
X101417477Y-122340409D01*
X101417562Y-122242833D01*
X101379972Y-122151857D01*
X101362395Y-122063494D01*
X101312779Y-121989239D01*
X101275517Y-121899057D01*
X101205972Y-121829390D01*
X101155919Y-121754481D01*
X101081664Y-121704865D01*
X101012727Y-121635808D01*
X100921816Y-121598058D01*
X100846906Y-121548005D01*
X100759317Y-121530582D01*
X100669199Y-121493162D01*
X100570762Y-121493076D01*
X100482400Y-121475500D01*
X100394809Y-121492923D01*
X100297233Y-121492838D01*
X100206257Y-121530428D01*
X100117894Y-121548005D01*
X100043639Y-121597621D01*
X99953457Y-121634883D01*
X99883790Y-121704428D01*
X99808881Y-121754481D01*
X99759265Y-121828736D01*
X99690208Y-121897673D01*
X99652458Y-121988584D01*
X99602405Y-122063494D01*
X99584982Y-122151083D01*
X99547562Y-122241201D01*
X99547476Y-122339638D01*
X99529900Y-122428000D01*
X99529900Y-133096000D01*
X99602405Y-133460506D01*
X99808881Y-133769519D01*
X101840881Y-135801519D01*
X102149894Y-136007995D01*
X102514400Y-136080500D01*
X102609913Y-136061501D01*
X102625501Y-136064602D01*
X102625506Y-136064601D01*
X105984837Y-136064601D01*
X105900250Y-136268309D01*
X105899752Y-136839187D01*
X106117757Y-137366800D01*
X106521077Y-137770824D01*
X106651215Y-137824862D01*
X106523200Y-137877757D01*
X106119176Y-138281077D01*
X105900250Y-138808309D01*
X105899752Y-139379187D01*
X106117757Y-139906800D01*
X106521077Y-140310824D01*
X106651215Y-140364862D01*
X106523200Y-140417757D01*
X106119176Y-140821077D01*
X105900250Y-141348309D01*
X105899752Y-141919187D01*
X106117757Y-142446800D01*
X106369761Y-142699244D01*
X106249683Y-142721838D01*
X106033559Y-142860910D01*
X105888569Y-143073110D01*
X105837560Y-143325000D01*
X105837560Y-145025000D01*
X105881838Y-145260317D01*
X106020910Y-145476441D01*
X106233110Y-145621431D01*
X106485000Y-145672440D01*
X108185000Y-145672440D01*
X108420317Y-145628162D01*
X108636441Y-145489090D01*
X108781431Y-145276890D01*
X108832440Y-145025000D01*
X108832440Y-143325000D01*
X108788162Y-143089683D01*
X108649090Y-142873559D01*
X108436890Y-142728569D01*
X108298719Y-142700589D01*
X108550824Y-142448923D01*
X108769750Y-141921691D01*
X108770248Y-141350813D01*
X108552243Y-140823200D01*
X108148923Y-140419176D01*
X108018785Y-140365138D01*
X108146800Y-140312243D01*
X108550824Y-139908923D01*
X108769750Y-139381691D01*
X108770248Y-138810813D01*
X108552243Y-138283200D01*
X108148923Y-137879176D01*
X108018785Y-137825138D01*
X108146800Y-137772243D01*
X108550824Y-137368923D01*
X108769750Y-136841691D01*
X108770248Y-136270813D01*
X108685043Y-136064601D01*
X113498620Y-136064601D01*
X113407041Y-136525000D01*
X113521115Y-137098489D01*
X113845971Y-137584670D01*
X114160752Y-137795000D01*
X113845971Y-138005330D01*
X113521115Y-138491511D01*
X113407041Y-139065000D01*
X113521115Y-139638489D01*
X113845971Y-140124670D01*
X114160752Y-140335000D01*
X113845971Y-140545330D01*
X113521115Y-141031511D01*
X113407041Y-141605000D01*
X113521115Y-142178489D01*
X113845971Y-142664670D01*
X114160752Y-142875000D01*
X113845971Y-143085330D01*
X113521115Y-143571511D01*
X113407041Y-144145000D01*
X113521115Y-144718489D01*
X113845971Y-145204670D01*
X114332152Y-145529526D01*
X114905641Y-145643600D01*
X114964359Y-145643600D01*
X115537848Y-145529526D01*
X116024029Y-145204670D01*
X116027947Y-145198805D01*
X116600800Y-145198805D01*
X116682741Y-145451516D01*
X117243030Y-145655248D01*
X117838635Y-145629058D01*
X118267259Y-145451516D01*
X118349200Y-145198805D01*
X117475000Y-144324605D01*
X116600800Y-145198805D01*
X116027947Y-145198805D01*
X116196613Y-144946380D01*
X116421195Y-145019200D01*
X117295395Y-144145000D01*
X117654605Y-144145000D01*
X118528805Y-145019200D01*
X118781516Y-144937259D01*
X118985248Y-144376970D01*
X118968835Y-144003691D01*
X128255000Y-144003691D01*
X128255000Y-144494250D01*
X128413750Y-144653000D01*
X129413000Y-144653000D01*
X129413000Y-143653750D01*
X129667000Y-143653750D01*
X129667000Y-144653000D01*
X130666250Y-144653000D01*
X130825000Y-144494250D01*
X130825000Y-144003691D01*
X130728327Y-143770302D01*
X130549699Y-143591673D01*
X130316310Y-143495000D01*
X129825750Y-143495000D01*
X129667000Y-143653750D01*
X129413000Y-143653750D01*
X129254250Y-143495000D01*
X128763690Y-143495000D01*
X128530301Y-143591673D01*
X128351673Y-143770302D01*
X128255000Y-144003691D01*
X118968835Y-144003691D01*
X118959058Y-143781365D01*
X118781516Y-143352741D01*
X118528805Y-143270800D01*
X117654605Y-144145000D01*
X117295395Y-144145000D01*
X116421195Y-143270800D01*
X116196613Y-143343620D01*
X116024029Y-143085330D01*
X115709248Y-142875000D01*
X116024029Y-142664670D01*
X116204992Y-142393839D01*
X116586510Y-142811821D01*
X116677551Y-142854490D01*
X116600800Y-143091195D01*
X117475000Y-143965395D01*
X118349200Y-143091195D01*
X118272449Y-142854490D01*
X118363490Y-142811821D01*
X118757688Y-142379947D01*
X118929958Y-141964026D01*
X118808817Y-141732000D01*
X117602000Y-141732000D01*
X117602000Y-141752000D01*
X117348000Y-141752000D01*
X117348000Y-141732000D01*
X117328000Y-141732000D01*
X117328000Y-141478000D01*
X117348000Y-141478000D01*
X117348000Y-139192000D01*
X117602000Y-139192000D01*
X117602000Y-141478000D01*
X118808817Y-141478000D01*
X118929958Y-141245974D01*
X118757688Y-140830053D01*
X118363490Y-140398179D01*
X118228687Y-140335000D01*
X118363490Y-140271821D01*
X118757688Y-139839947D01*
X118929958Y-139424026D01*
X118808817Y-139192000D01*
X117602000Y-139192000D01*
X117348000Y-139192000D01*
X117328000Y-139192000D01*
X117328000Y-138938000D01*
X117348000Y-138938000D01*
X117348000Y-138918000D01*
X117602000Y-138918000D01*
X117602000Y-138938000D01*
X118808817Y-138938000D01*
X118929958Y-138705974D01*
X118757688Y-138290053D01*
X118646050Y-138167745D01*
X121091861Y-138167745D01*
X121165995Y-138413864D01*
X121703223Y-138606965D01*
X122273454Y-138579778D01*
X122674005Y-138413864D01*
X122748139Y-138167745D01*
X121920000Y-137339605D01*
X121091861Y-138167745D01*
X118646050Y-138167745D01*
X118363490Y-137858179D01*
X118240772Y-137800664D01*
X118564029Y-137584670D01*
X118888885Y-137098489D01*
X118919769Y-136943223D01*
X120473035Y-136943223D01*
X120500222Y-137513454D01*
X120666136Y-137914005D01*
X120912255Y-137988139D01*
X121740395Y-137160000D01*
X122099605Y-137160000D01*
X122927745Y-137988139D01*
X123173864Y-137914005D01*
X123366965Y-137376777D01*
X123339778Y-136806546D01*
X123173864Y-136405995D01*
X122927745Y-136331861D01*
X122099605Y-137160000D01*
X121740395Y-137160000D01*
X120912255Y-136331861D01*
X120666136Y-136405995D01*
X120473035Y-136943223D01*
X118919769Y-136943223D01*
X119002959Y-136525000D01*
X118911380Y-136064601D01*
X120169529Y-136064601D01*
X120485435Y-136001764D01*
X120753246Y-135822818D01*
X120923318Y-135652746D01*
X121106077Y-135835824D01*
X121220768Y-135883448D01*
X121165995Y-135906136D01*
X121091861Y-136152255D01*
X121920000Y-136980395D01*
X122748139Y-136152255D01*
X122674005Y-135906136D01*
X122615746Y-135885195D01*
X122731800Y-135837243D01*
X123135824Y-135433923D01*
X123354750Y-134906691D01*
X123355248Y-134335813D01*
X123137243Y-133808200D01*
X122733923Y-133404176D01*
X122603785Y-133350138D01*
X122731800Y-133297243D01*
X123135824Y-132893923D01*
X123354750Y-132366691D01*
X123355248Y-131795813D01*
X123277560Y-131607794D01*
X129413481Y-137743714D01*
X129413483Y-137743717D01*
X129616212Y-137879176D01*
X129681295Y-137922663D01*
X129997200Y-137985501D01*
X129997205Y-137985500D01*
X135956433Y-137985500D01*
X136346077Y-138375824D01*
X136873309Y-138594750D01*
X137444187Y-138595248D01*
X137971800Y-138377243D01*
X138181663Y-138167745D01*
X142681861Y-138167745D01*
X142755995Y-138413864D01*
X143293223Y-138606965D01*
X143863454Y-138579778D01*
X144264005Y-138413864D01*
X144338139Y-138167745D01*
X143510000Y-137339605D01*
X142681861Y-138167745D01*
X138181663Y-138167745D01*
X138375824Y-137973923D01*
X138594750Y-137446691D01*
X138595189Y-136943223D01*
X142063035Y-136943223D01*
X142090222Y-137513454D01*
X142256136Y-137914005D01*
X142502255Y-137988139D01*
X143330395Y-137160000D01*
X143689605Y-137160000D01*
X144517745Y-137988139D01*
X144763864Y-137914005D01*
X144956965Y-137376777D01*
X144929778Y-136806546D01*
X144763864Y-136405995D01*
X144517745Y-136331861D01*
X143689605Y-137160000D01*
X143330395Y-137160000D01*
X142502255Y-136331861D01*
X142256136Y-136405995D01*
X142063035Y-136943223D01*
X138595189Y-136943223D01*
X138595248Y-136875813D01*
X138377243Y-136348200D01*
X137973923Y-135944176D01*
X137843785Y-135890138D01*
X137971800Y-135837243D01*
X138375824Y-135433923D01*
X138594750Y-134906691D01*
X138595248Y-134335813D01*
X138377243Y-133808200D01*
X137973923Y-133404176D01*
X137843785Y-133350138D01*
X137971800Y-133297243D01*
X138375824Y-132893923D01*
X138594750Y-132366691D01*
X138595248Y-131795813D01*
X138377243Y-131268200D01*
X137973923Y-130864176D01*
X137843785Y-130810138D01*
X137971800Y-130757243D01*
X138375824Y-130353923D01*
X138594750Y-129826691D01*
X138595248Y-129255813D01*
X138377243Y-128728200D01*
X137973923Y-128324176D01*
X137843785Y-128270138D01*
X137971800Y-128217243D01*
X138375824Y-127813923D01*
X138594750Y-127286691D01*
X138595248Y-126715813D01*
X138377243Y-126188200D01*
X137973923Y-125784176D01*
X137843785Y-125730138D01*
X137971800Y-125677243D01*
X138302751Y-125346868D01*
X138337306Y-125339995D01*
X138646319Y-125133519D01*
X140322719Y-123457119D01*
X140343179Y-123426499D01*
X140529195Y-123148106D01*
X140601700Y-122783600D01*
X140601700Y-119588459D01*
X140766800Y-119621300D01*
X141131306Y-119548795D01*
X141440319Y-119342319D01*
X141646795Y-119033306D01*
X141719300Y-118668800D01*
X141668500Y-118413412D01*
X141668500Y-106400669D01*
X141732000Y-106413300D01*
X141819591Y-106395877D01*
X141917167Y-106395962D01*
X142008143Y-106358372D01*
X142096506Y-106340795D01*
X142097267Y-106340287D01*
X142075250Y-106393309D01*
X142074752Y-106964187D01*
X142292757Y-107491800D01*
X142696077Y-107895824D01*
X142826215Y-107949862D01*
X142698200Y-108002757D01*
X142294176Y-108406077D01*
X142075250Y-108933309D01*
X142074752Y-109504187D01*
X142292757Y-110031800D01*
X142696077Y-110435824D01*
X142826215Y-110489862D01*
X142698200Y-110542757D01*
X142294176Y-110946077D01*
X142075250Y-111473309D01*
X142074752Y-112044187D01*
X142292757Y-112571800D01*
X142696077Y-112975824D01*
X142826215Y-113029862D01*
X142698200Y-113082757D01*
X142294176Y-113486077D01*
X142075250Y-114013309D01*
X142074752Y-114584187D01*
X142292757Y-115111800D01*
X142696077Y-115515824D01*
X142826215Y-115569862D01*
X142698200Y-115622757D01*
X142294176Y-116026077D01*
X142075250Y-116553309D01*
X142074752Y-117124187D01*
X142292757Y-117651800D01*
X142696077Y-118055824D01*
X142826215Y-118109862D01*
X142698200Y-118162757D01*
X142294176Y-118566077D01*
X142075250Y-119093309D01*
X142074752Y-119664187D01*
X142292757Y-120191800D01*
X142696077Y-120595824D01*
X142826215Y-120649862D01*
X142698200Y-120702757D01*
X142294176Y-121106077D01*
X142075250Y-121633309D01*
X142074752Y-122204187D01*
X142292757Y-122731800D01*
X142696077Y-123135824D01*
X142826215Y-123189862D01*
X142698200Y-123242757D01*
X142294176Y-123646077D01*
X142075250Y-124173309D01*
X142074752Y-124744187D01*
X142292757Y-125271800D01*
X142696077Y-125675824D01*
X142826215Y-125729862D01*
X142698200Y-125782757D01*
X142294176Y-126186077D01*
X142075250Y-126713309D01*
X142074752Y-127284187D01*
X142292757Y-127811800D01*
X142696077Y-128215824D01*
X142826215Y-128269862D01*
X142698200Y-128322757D01*
X142294176Y-128726077D01*
X142075250Y-129253309D01*
X142074752Y-129824187D01*
X142292757Y-130351800D01*
X142696077Y-130755824D01*
X142826215Y-130809862D01*
X142698200Y-130862757D01*
X142294176Y-131266077D01*
X142075250Y-131793309D01*
X142074752Y-132364187D01*
X142292757Y-132891800D01*
X142696077Y-133295824D01*
X142826215Y-133349862D01*
X142698200Y-133402757D01*
X142294176Y-133806077D01*
X142075250Y-134333309D01*
X142074752Y-134904187D01*
X142292757Y-135431800D01*
X142696077Y-135835824D01*
X142810768Y-135883448D01*
X142755995Y-135906136D01*
X142681861Y-136152255D01*
X143510000Y-136980395D01*
X144338139Y-136152255D01*
X144264005Y-135906136D01*
X144205746Y-135885195D01*
X144321800Y-135837243D01*
X144725824Y-135433923D01*
X144944750Y-134906691D01*
X144945248Y-134335813D01*
X144727243Y-133808200D01*
X144323923Y-133404176D01*
X144193785Y-133350138D01*
X144321800Y-133297243D01*
X144725824Y-132893923D01*
X144944750Y-132366691D01*
X144945248Y-131795813D01*
X144727243Y-131268200D01*
X144323923Y-130864176D01*
X144193785Y-130810138D01*
X144321800Y-130757243D01*
X144725824Y-130353923D01*
X144944750Y-129826691D01*
X144945248Y-129255813D01*
X144727243Y-128728200D01*
X144323923Y-128324176D01*
X144193785Y-128270138D01*
X144321800Y-128217243D01*
X144725824Y-127813923D01*
X144944750Y-127286691D01*
X144945248Y-126715813D01*
X144727243Y-126188200D01*
X144323923Y-125784176D01*
X144193785Y-125730138D01*
X144321800Y-125677243D01*
X144725824Y-125273923D01*
X144944750Y-124746691D01*
X144945248Y-124175813D01*
X144727243Y-123648200D01*
X144323923Y-123244176D01*
X144193785Y-123190138D01*
X144321800Y-123137243D01*
X144725824Y-122733923D01*
X144944750Y-122206691D01*
X144945248Y-121635813D01*
X144727243Y-121108200D01*
X144323923Y-120704176D01*
X144193785Y-120650138D01*
X144321800Y-120597243D01*
X144725824Y-120193923D01*
X144944750Y-119666691D01*
X144945248Y-119095813D01*
X144727243Y-118568200D01*
X144323923Y-118164176D01*
X144193785Y-118110138D01*
X144321800Y-118057243D01*
X144725824Y-117653923D01*
X144944750Y-117126691D01*
X144945248Y-116555813D01*
X144727243Y-116028200D01*
X144323923Y-115624176D01*
X144193785Y-115570138D01*
X144321800Y-115517243D01*
X144725824Y-115113923D01*
X144944750Y-114586691D01*
X144945248Y-114015813D01*
X144727243Y-113488200D01*
X144323923Y-113084176D01*
X144193785Y-113030138D01*
X144321800Y-112977243D01*
X144725824Y-112573923D01*
X144944750Y-112046691D01*
X144945248Y-111475813D01*
X144727243Y-110948200D01*
X144323923Y-110544176D01*
X144193785Y-110490138D01*
X144321800Y-110437243D01*
X144725824Y-110033923D01*
X144944750Y-109506691D01*
X144945248Y-108935813D01*
X144727243Y-108408200D01*
X144323923Y-108004176D01*
X144193785Y-107950138D01*
X144321800Y-107897243D01*
X144725824Y-107493923D01*
X144944750Y-106966691D01*
X144945248Y-106395813D01*
X144727243Y-105868200D01*
X144425312Y-105565742D01*
X144545317Y-105543162D01*
X144761441Y-105404090D01*
X144906431Y-105191890D01*
X144957440Y-104940000D01*
X144957440Y-103340000D01*
X144913162Y-103104683D01*
X144774090Y-102888559D01*
X144561890Y-102743569D01*
X144310000Y-102692560D01*
X142710000Y-102692560D01*
X142684500Y-102697358D01*
X142684500Y-94538800D01*
X147688300Y-94538800D01*
X147688300Y-117144800D01*
X147760805Y-117509306D01*
X147967281Y-117818319D01*
X152844081Y-122695119D01*
X152918336Y-122744735D01*
X152987273Y-122813792D01*
X153078184Y-122851542D01*
X153153094Y-122901595D01*
X153240683Y-122919018D01*
X153330801Y-122956438D01*
X153429238Y-122956524D01*
X153517600Y-122974100D01*
X153605191Y-122956677D01*
X153702767Y-122956762D01*
X153793743Y-122919172D01*
X153882106Y-122901595D01*
X153956361Y-122851979D01*
X154046543Y-122814717D01*
X154116210Y-122745172D01*
X154191119Y-122695119D01*
X154240735Y-122620864D01*
X154309792Y-122551927D01*
X154347542Y-122461016D01*
X154397595Y-122386106D01*
X154415018Y-122298517D01*
X154452438Y-122208399D01*
X154452524Y-122109962D01*
X154470100Y-122021600D01*
X154452677Y-121934009D01*
X154452762Y-121836433D01*
X154415172Y-121745457D01*
X154397595Y-121657094D01*
X154347979Y-121582839D01*
X154310717Y-121492657D01*
X154241172Y-121422990D01*
X154191119Y-121348081D01*
X149593300Y-116750262D01*
X149593300Y-113195938D01*
X154266481Y-117869119D01*
X154340736Y-117918734D01*
X154409673Y-117987792D01*
X154500586Y-118025543D01*
X154575495Y-118075595D01*
X154663083Y-118093017D01*
X154753201Y-118130438D01*
X154851639Y-118130524D01*
X154940000Y-118148100D01*
X155027591Y-118130677D01*
X155125167Y-118130762D01*
X155216143Y-118093172D01*
X155304506Y-118075595D01*
X155378761Y-118025979D01*
X155468943Y-117988717D01*
X155538610Y-117919172D01*
X155613519Y-117869119D01*
X155663135Y-117794864D01*
X155732192Y-117725927D01*
X155769942Y-117635016D01*
X155819995Y-117560106D01*
X155837418Y-117472517D01*
X155874838Y-117382399D01*
X155874924Y-117283962D01*
X155892500Y-117195600D01*
X155875077Y-117108009D01*
X155875162Y-117010433D01*
X155837571Y-116919456D01*
X155819995Y-116831095D01*
X155770380Y-116756841D01*
X155733117Y-116666657D01*
X155663571Y-116596990D01*
X155613519Y-116522081D01*
X151117300Y-112025862D01*
X151117300Y-105474338D01*
X152996481Y-107353519D01*
X153305494Y-107559995D01*
X153670000Y-107632500D01*
X157673212Y-107632500D01*
X157936077Y-107895824D01*
X158066215Y-107949862D01*
X157938200Y-108002757D01*
X157534176Y-108406077D01*
X157315250Y-108933309D01*
X157314752Y-109504187D01*
X157532757Y-110031800D01*
X157936077Y-110435824D01*
X158066215Y-110489862D01*
X157938200Y-110542757D01*
X157534176Y-110946077D01*
X157315250Y-111473309D01*
X157314752Y-112044187D01*
X157532757Y-112571800D01*
X157936077Y-112975824D01*
X158066215Y-113029862D01*
X157938200Y-113082757D01*
X157534176Y-113486077D01*
X157315250Y-114013309D01*
X157314752Y-114584187D01*
X157532757Y-115111800D01*
X157936077Y-115515824D01*
X158066215Y-115569862D01*
X157938200Y-115622757D01*
X157534176Y-116026077D01*
X157315250Y-116553309D01*
X157314752Y-117124187D01*
X157532757Y-117651800D01*
X157936077Y-118055824D01*
X158066215Y-118109862D01*
X157938200Y-118162757D01*
X157534176Y-118566077D01*
X157315250Y-119093309D01*
X157314752Y-119664187D01*
X157532757Y-120191800D01*
X157936077Y-120595824D01*
X158066215Y-120649862D01*
X157938200Y-120702757D01*
X157534176Y-121106077D01*
X157315250Y-121633309D01*
X157314752Y-122204187D01*
X157532757Y-122731800D01*
X157936077Y-123135824D01*
X158066215Y-123189862D01*
X157938200Y-123242757D01*
X157534176Y-123646077D01*
X157315250Y-124173309D01*
X157314752Y-124744187D01*
X157532757Y-125271800D01*
X157936077Y-125675824D01*
X158066215Y-125729862D01*
X157938200Y-125782757D01*
X157534176Y-126186077D01*
X157315250Y-126713309D01*
X157314752Y-127284187D01*
X157532757Y-127811800D01*
X157936077Y-128215824D01*
X158066215Y-128269862D01*
X157938200Y-128322757D01*
X157534176Y-128726077D01*
X157315250Y-129253309D01*
X157314752Y-129824187D01*
X157532757Y-130351800D01*
X157936077Y-130755824D01*
X158066215Y-130809862D01*
X157938200Y-130862757D01*
X157534176Y-131266077D01*
X157315250Y-131793309D01*
X157314752Y-132364187D01*
X157532757Y-132891800D01*
X157936077Y-133295824D01*
X158066215Y-133349862D01*
X157938200Y-133402757D01*
X157534176Y-133806077D01*
X157315250Y-134333309D01*
X157314752Y-134904187D01*
X157532757Y-135431800D01*
X157936077Y-135835824D01*
X158066215Y-135889862D01*
X157938200Y-135942757D01*
X157534176Y-136346077D01*
X157315250Y-136873309D01*
X157314752Y-137444187D01*
X157532757Y-137971800D01*
X157936077Y-138375824D01*
X158463309Y-138594750D01*
X159034187Y-138595248D01*
X159561800Y-138377243D01*
X159965824Y-137973923D01*
X160184750Y-137446691D01*
X160185248Y-136875813D01*
X159967243Y-136348200D01*
X159563923Y-135944176D01*
X159433785Y-135890138D01*
X159561800Y-135837243D01*
X159965824Y-135433923D01*
X160184750Y-134906691D01*
X160185248Y-134335813D01*
X159967243Y-133808200D01*
X159563923Y-133404176D01*
X159433785Y-133350138D01*
X159561800Y-133297243D01*
X159965824Y-132893923D01*
X160184750Y-132366691D01*
X160185248Y-131795813D01*
X159967243Y-131268200D01*
X159563923Y-130864176D01*
X159433785Y-130810138D01*
X159561800Y-130757243D01*
X159965824Y-130353923D01*
X160184750Y-129826691D01*
X160185248Y-129255813D01*
X159967243Y-128728200D01*
X159563923Y-128324176D01*
X159433785Y-128270138D01*
X159561800Y-128217243D01*
X159965824Y-127813923D01*
X160184750Y-127286691D01*
X160185248Y-126715813D01*
X159967243Y-126188200D01*
X159563923Y-125784176D01*
X159433785Y-125730138D01*
X159561800Y-125677243D01*
X159965824Y-125273923D01*
X160184750Y-124746691D01*
X160185248Y-124175813D01*
X159967243Y-123648200D01*
X159563923Y-123244176D01*
X159433785Y-123190138D01*
X159561800Y-123137243D01*
X159965824Y-122733923D01*
X160184750Y-122206691D01*
X160185248Y-121635813D01*
X159967243Y-121108200D01*
X159563923Y-120704176D01*
X159433785Y-120650138D01*
X159561800Y-120597243D01*
X159965824Y-120193923D01*
X160184750Y-119666691D01*
X160185248Y-119095813D01*
X159967243Y-118568200D01*
X159563923Y-118164176D01*
X159433785Y-118110138D01*
X159561800Y-118057243D01*
X159965824Y-117653923D01*
X160184750Y-117126691D01*
X160185248Y-116555813D01*
X159967243Y-116028200D01*
X159563923Y-115624176D01*
X159433785Y-115570138D01*
X159561800Y-115517243D01*
X159965824Y-115113923D01*
X160184750Y-114586691D01*
X160185248Y-114015813D01*
X159967243Y-113488200D01*
X159563923Y-113084176D01*
X159433785Y-113030138D01*
X159561800Y-112977243D01*
X159965824Y-112573923D01*
X160184750Y-112046691D01*
X160185248Y-111475813D01*
X159967243Y-110948200D01*
X159563923Y-110544176D01*
X159433785Y-110490138D01*
X159561800Y-110437243D01*
X159965824Y-110033923D01*
X160184750Y-109506691D01*
X160185248Y-108935813D01*
X159967243Y-108408200D01*
X159563923Y-108004176D01*
X159433785Y-107950138D01*
X159561800Y-107897243D01*
X159965824Y-107493923D01*
X160184750Y-106966691D01*
X160185248Y-106395813D01*
X159967243Y-105868200D01*
X159563923Y-105464176D01*
X159433785Y-105410138D01*
X159561800Y-105357243D01*
X159965824Y-104953923D01*
X160184750Y-104426691D01*
X160184812Y-104354481D01*
X163179777Y-104354481D01*
X163374995Y-104826943D01*
X163736155Y-105188735D01*
X164208276Y-105384777D01*
X164719481Y-105385223D01*
X165191943Y-105190005D01*
X165553735Y-104828845D01*
X165749777Y-104356724D01*
X165750223Y-103845519D01*
X165555005Y-103373057D01*
X165193845Y-103011265D01*
X164889765Y-102885000D01*
X165241310Y-102885000D01*
X165474699Y-102788327D01*
X165653327Y-102609698D01*
X165750000Y-102376309D01*
X165750000Y-101885750D01*
X165591250Y-101727000D01*
X164592000Y-101727000D01*
X164592000Y-101747000D01*
X164338000Y-101747000D01*
X164338000Y-101727000D01*
X163338750Y-101727000D01*
X163180000Y-101885750D01*
X163180000Y-102376309D01*
X163276673Y-102609698D01*
X163455301Y-102788327D01*
X163688690Y-102885000D01*
X164040567Y-102885000D01*
X163738057Y-103009995D01*
X163376265Y-103371155D01*
X163180223Y-103843276D01*
X163179777Y-104354481D01*
X160184812Y-104354481D01*
X160185248Y-103855813D01*
X159967243Y-103328200D01*
X159563923Y-102924176D01*
X159036691Y-102705250D01*
X158465813Y-102704752D01*
X157938200Y-102922757D01*
X157534176Y-103326077D01*
X157315250Y-103853309D01*
X157314752Y-104424187D01*
X157532757Y-104951800D01*
X157936077Y-105355824D01*
X158066215Y-105409862D01*
X157938200Y-105462757D01*
X157672995Y-105727500D01*
X154064538Y-105727500D01*
X152717500Y-104380462D01*
X152717500Y-100823691D01*
X163180000Y-100823691D01*
X163180000Y-101314250D01*
X163338750Y-101473000D01*
X164338000Y-101473000D01*
X164338000Y-100473750D01*
X164592000Y-100473750D01*
X164592000Y-101473000D01*
X165591250Y-101473000D01*
X165750000Y-101314250D01*
X165750000Y-100823691D01*
X165653327Y-100590302D01*
X165474699Y-100411673D01*
X165241310Y-100315000D01*
X164750750Y-100315000D01*
X164592000Y-100473750D01*
X164338000Y-100473750D01*
X164179250Y-100315000D01*
X163688690Y-100315000D01*
X163455301Y-100411673D01*
X163276673Y-100590302D01*
X163180000Y-100823691D01*
X152717500Y-100823691D01*
X152717500Y-94615000D01*
X152700077Y-94527409D01*
X152700162Y-94429833D01*
X152662572Y-94338857D01*
X152644995Y-94250494D01*
X152595379Y-94176239D01*
X152558117Y-94086057D01*
X152488572Y-94016390D01*
X152438519Y-93941481D01*
X152364264Y-93891865D01*
X152295327Y-93822808D01*
X152204416Y-93785058D01*
X152129506Y-93735005D01*
X152041917Y-93717582D01*
X151951799Y-93680162D01*
X151853362Y-93680076D01*
X151765000Y-93662500D01*
X151677409Y-93679923D01*
X151579833Y-93679838D01*
X151488857Y-93717428D01*
X151400494Y-93735005D01*
X151326239Y-93784621D01*
X151236057Y-93821883D01*
X151166390Y-93891428D01*
X151091481Y-93941481D01*
X151041865Y-94015736D01*
X151041155Y-94016446D01*
X150995179Y-93947639D01*
X150957917Y-93857457D01*
X150888372Y-93787790D01*
X150838319Y-93712881D01*
X150764064Y-93663265D01*
X150695127Y-93594208D01*
X150604216Y-93556458D01*
X150529306Y-93506405D01*
X150441717Y-93488982D01*
X150351599Y-93451562D01*
X150253162Y-93451476D01*
X150164800Y-93433900D01*
X150077209Y-93451323D01*
X149979633Y-93451238D01*
X149888657Y-93488828D01*
X149800294Y-93506405D01*
X149726039Y-93556021D01*
X149635857Y-93593283D01*
X149566190Y-93662828D01*
X149491281Y-93712881D01*
X149441665Y-93787136D01*
X149372608Y-93856073D01*
X149347910Y-93915553D01*
X149314319Y-93865281D01*
X149240064Y-93815665D01*
X149171127Y-93746608D01*
X149080216Y-93708858D01*
X149005306Y-93658805D01*
X148917717Y-93641382D01*
X148827599Y-93603962D01*
X148729162Y-93603876D01*
X148640800Y-93586300D01*
X148553209Y-93603723D01*
X148455633Y-93603638D01*
X148364657Y-93641228D01*
X148276294Y-93658805D01*
X148202039Y-93708421D01*
X148111857Y-93745683D01*
X148042190Y-93815228D01*
X147967281Y-93865281D01*
X147917665Y-93939536D01*
X147848608Y-94008473D01*
X147810858Y-94099384D01*
X147760805Y-94174294D01*
X147743382Y-94261883D01*
X147705962Y-94352001D01*
X147705876Y-94450438D01*
X147688300Y-94538800D01*
X142684500Y-94538800D01*
X142684500Y-88885854D01*
X160059457Y-88885854D01*
X160535727Y-90038515D01*
X161416847Y-90921174D01*
X162568674Y-91399454D01*
X163815854Y-91400543D01*
X164968515Y-90924273D01*
X165851174Y-90043153D01*
X166329454Y-88891326D01*
X166330543Y-87644146D01*
X165854273Y-86491485D01*
X164973153Y-85608826D01*
X163821326Y-85130546D01*
X162574146Y-85129457D01*
X161421485Y-85605727D01*
X160538826Y-86486847D01*
X160060546Y-87638674D01*
X160059457Y-88885854D01*
X142684500Y-88885854D01*
X142684500Y-87172800D01*
X142611995Y-86808294D01*
X142425240Y-86528795D01*
X142405519Y-86499280D01*
X140881519Y-84975281D01*
X140572506Y-84768805D01*
X140208000Y-84696300D01*
X97078800Y-84696300D01*
X96714294Y-84768805D01*
X96590521Y-84851507D01*
X96405281Y-84975280D01*
X94779681Y-86600881D01*
X94573205Y-86909894D01*
X94500700Y-87274400D01*
X94500700Y-89082088D01*
X94354283Y-89109638D01*
X94138159Y-89248710D01*
X93993169Y-89460910D01*
X93942160Y-89712800D01*
X78358348Y-89712800D01*
X78699454Y-88891326D01*
X78700543Y-87644146D01*
X78224273Y-86491485D01*
X77343153Y-85608826D01*
X76191326Y-85130546D01*
X74944146Y-85129457D01*
X73791485Y-85605727D01*
X72908826Y-86486847D01*
X72430546Y-87638674D01*
X72429457Y-88885854D01*
X71805000Y-88885854D01*
X71805000Y-84505000D01*
X166955000Y-84505000D01*
X166955000Y-156795000D01*
G36*
X113613946Y-123112579D02*
X113521115Y-123251511D01*
X113407041Y-123825000D01*
X113492295Y-124253601D01*
X111251547Y-124253601D01*
X111279622Y-124172922D01*
X111250083Y-123662572D01*
X111111611Y-123328271D01*
X110881016Y-123272590D01*
X110161605Y-123992000D01*
X110175748Y-124006143D01*
X109996143Y-124185748D01*
X109982000Y-124171605D01*
X109967858Y-124185748D01*
X109788253Y-124006143D01*
X109802395Y-123992000D01*
X109082984Y-123272590D01*
X108852389Y-123328271D01*
X108769021Y-123567843D01*
X108572814Y-123092984D01*
X109262590Y-123092984D01*
X109982000Y-123812395D01*
X110701410Y-123092984D01*
X110645729Y-122862389D01*
X110162922Y-122694378D01*
X109652572Y-122723917D01*
X109318271Y-122862389D01*
X109262590Y-123092984D01*
X108572814Y-123092984D01*
X108552243Y-123043200D01*
X108148923Y-122639176D01*
X108018785Y-122585138D01*
X108146800Y-122532243D01*
X108550824Y-122128923D01*
X108769750Y-121601691D01*
X108770248Y-121030813D01*
X108698182Y-120856399D01*
X111357765Y-120856399D01*
X113613946Y-123112579D01*
X113613946Y-123112579D01*
G37*
X113613946Y-123112579D02*
X113521115Y-123251511D01*
X113407041Y-123825000D01*
X113492295Y-124253601D01*
X111251547Y-124253601D01*
X111279622Y-124172922D01*
X111250083Y-123662572D01*
X111111611Y-123328271D01*
X110881016Y-123272590D01*
X110161605Y-123992000D01*
X110175748Y-124006143D01*
X109996143Y-124185748D01*
X109982000Y-124171605D01*
X109967858Y-124185748D01*
X109788253Y-124006143D01*
X109802395Y-123992000D01*
X109082984Y-123272590D01*
X108852389Y-123328271D01*
X108769021Y-123567843D01*
X108572814Y-123092984D01*
X109262590Y-123092984D01*
X109982000Y-123812395D01*
X110701410Y-123092984D01*
X110645729Y-122862389D01*
X110162922Y-122694378D01*
X109652572Y-122723917D01*
X109318271Y-122862389D01*
X109262590Y-123092984D01*
X108572814Y-123092984D01*
X108552243Y-123043200D01*
X108148923Y-122639176D01*
X108018785Y-122585138D01*
X108146800Y-122532243D01*
X108550824Y-122128923D01*
X108769750Y-121601691D01*
X108770248Y-121030813D01*
X108698182Y-120856399D01*
X111357765Y-120856399D01*
X113613946Y-123112579D01*
M02*
